<svg width="595" height="195" viewBox="0 0 595 195" fill="none" xmlns="http://www.w3.org/2000/svg">
<path d="M131.478 49.3525L140.298 49.3525L140.298 47.3005L134.052 47.3005C134.052 46.9405 134.34 46.6525 135.258 46.2205L137.382 45.2305C138.822 44.5645 140.1 43.6105 140.1 41.8285C140.1 39.9025 138.606 38.7325 136.068 38.7325C133.404 38.7325 131.712 40.0285 131.712 42.4225L134.016 42.4225C134.016 41.3065 134.79 40.7845 135.96 40.7845C136.896 40.7845 137.562 41.1085 137.562 41.9545C137.562 42.6025 137.184 43.0345 135.78 43.6825L133.692 44.6545C132.468 45.2305 131.478 46.2925 131.478 47.8765L131.478 49.3525ZM147.591 49.5325C150.777 49.5325 152.163 47.3365 152.163 44.0605C152.163 40.7845 150.777 38.7325 147.591 38.7325C144.423 38.7325 143.019 40.8565 143.019 44.1865C143.019 47.5345 144.441 49.5325 147.591 49.5325ZM147.591 47.4085C145.845 47.4085 145.575 46.0225 145.575 44.1145C145.575 42.2065 145.845 40.8565 147.591 40.8565C149.337 40.8565 149.607 42.2065 149.607 44.1145C149.607 46.0225 149.337 47.4085 147.591 47.4085ZM155.064 49.3525L163.884 49.3525L163.884 47.3005L157.638 47.3005C157.638 46.9405 157.926 46.6525 158.844 46.2205L160.968 45.2305C162.408 44.5645 163.686 43.6105 163.686 41.8285C163.686 39.9025 162.192 38.7325 159.654 38.7325C156.99 38.7325 155.298 40.0285 155.298 42.4225L157.602 42.4225C157.602 41.3065 158.376 40.7845 159.546 40.7845C160.482 40.7845 161.148 41.1085 161.148 41.9545C161.148 42.6025 160.77 43.0345 159.366 43.6825L157.278 44.6545C156.054 45.2305 155.064 46.2925 155.064 47.8765L155.064 49.3525ZM167.433 49.3525L175.029 49.3525L175.029 47.3005L172.707 47.3005L172.707 38.9305L170.907 38.9305C170.529 39.7405 169.701 40.0285 168.603 40.0285L167.433 40.0285L167.433 42.2065L168.099 42.2065C169.377 42.2065 169.881 41.8285 170.241 41.4865L170.241 47.3005L167.433 47.3005L167.433 49.3525ZM190.983 49.3525L193.485 49.3525L193.485 45.6625L198.075 45.6625L198.075 43.5745L193.485 43.5745L193.485 41.0185L198.831 41.0185L198.831 38.9305L190.983 38.9305L190.983 49.3525ZM202.776 49.3525L210.624 49.3525L210.624 47.2645L205.278 47.2645L205.278 38.9305L202.776 38.9305L202.776 49.3525ZM213.399 49.3525L216.009 49.3525L216.675 47.2285L219.969 47.2285L220.653 49.3525L223.299 49.3525L219.645 38.9305L217.035 38.9305L213.399 49.3525ZM217.431 44.7985L218.295 41.5945L219.195 44.7985L219.339 45.2845L217.269 45.2845L217.431 44.7985ZM228.936 49.3525L231.348 49.3525L235.2 38.9305L232.518 38.9305L230.97 43.7725L230.214 46.5265L229.458 43.7545L227.892 38.9305L225.084 38.9305L228.936 49.3525ZM238.137 49.3525L245.733 49.3525L245.733 47.2645L243.177 47.2645L243.177 41.0185L245.733 41.0185L245.733 38.9305L238.137 38.9305L238.137 41.0185L240.675 41.0185L240.675 47.2645L238.137 47.2645L238.137 49.3525ZM248.778 49.3525L251.388 49.3525L252.054 47.2285L255.348 47.2285L256.032 49.3525L258.678 49.3525L255.024 38.9305L252.414 38.9305L248.778 49.3525ZM252.81 44.7985L253.674 41.5945L254.574 44.7985L254.718 45.2845L252.648 45.2845L252.81 44.7985ZM261.741 49.3525L264.243 49.3525L264.243 45.9145L265.359 45.9145L267.501 49.3525L270.507 49.3525L267.735 45.4105C268.797 44.9425 269.733 44.0425 269.733 42.3865C269.733 39.9025 267.627 38.9305 265.143 38.9305L261.741 38.9305L261.741 49.3525ZM264.243 40.9825L265.143 40.9825C266.457 40.9825 267.159 41.3965 267.159 42.4585C267.159 43.5025 266.457 43.9345 265.143 43.9345L264.243 43.9345L264.243 40.9825ZM284.157 49.3525L286.767 49.3525L287.433 47.2285L290.727 47.2285L291.411 49.3525L294.057 49.3525L290.403 38.9305L287.793 38.9305L284.157 49.3525ZM288.189 44.7985L289.053 41.5945L289.953 44.7985L290.097 45.2845L288.027 45.2845L288.189 44.7985ZM297.12 49.3525L300.558 49.3525C304.05 49.3525 305.472 47.3725 305.472 44.0425C305.472 40.6765 304.014 38.9305 300.558 38.9305L297.12 38.9305L297.12 49.3525ZM299.622 41.0185L300.558 41.0185C302.448 41.0185 302.898 42.0445 302.898 44.1325C302.898 46.2025 302.448 47.2645 300.558 47.2645L299.622 47.2645L299.622 41.0185ZM311.487 49.3525L313.899 49.3525L317.751 38.9305L315.069 38.9305L313.521 43.7725L312.765 46.5265L312.009 43.7545L310.443 38.9305L307.635 38.9305L311.487 49.3525ZM320.706 49.3525L328.464 49.3525L328.464 47.2645L323.208 47.2645L323.208 45.0865L327.636 45.0865L327.636 42.9985L323.208 42.9985L323.208 41.0185L328.464 41.0185L328.464 38.9305L320.706 38.9305L320.706 49.3525ZM332.499 49.3525L334.695 49.3525L334.695 44.8705L334.353 41.5225L336.999 49.3525L340.059 49.3525L340.059 38.9305L337.863 38.9305L337.863 43.4125L338.205 46.7605L335.559 38.9305L332.499 38.9305L332.499 49.3525ZM346.812 49.3525L349.314 49.3525L349.314 41.0185L352.698 41.0185L352.698 38.9305L343.446 38.9305L343.446 41.0185L346.812 41.0185L346.812 49.3525ZM371.766 49.5325C374.61 49.5325 376.014 48.0925 376.194 45.3745L373.638 45.3745C373.548 46.7785 373.044 47.3905 371.784 47.3905C370.002 47.3905 369.66 46.1485 369.66 44.1325C369.66 42.1165 370.002 40.8745 371.748 40.8745C372.99 40.8745 373.548 41.5045 373.638 42.9085L376.194 42.9085C376.068 40.1545 374.7 38.7325 371.892 38.7325C368.436 38.7325 367.086 40.8745 367.086 44.2225C367.086 47.5165 368.4 49.5325 371.766 49.5325ZM378.501 49.3525L381.111 49.3525L381.777 47.2285L385.071 47.2285L385.755 49.3525L388.401 49.3525L384.747 38.9305L382.137 38.9305L378.501 49.3525ZM382.533 44.7985L383.397 41.5945L384.297 44.7985L384.441 45.2845L382.371 45.2845L382.533 44.7985ZM391.464 49.3525L399.312 49.3525L399.312 47.2645L393.966 47.2645L393.966 38.9305L391.464 38.9305L391.464 49.3525ZM403.257 49.3525L411.015 49.3525L411.015 47.2645L405.759 47.2645L405.759 45.0865L410.187 45.0865L410.187 42.9985L405.759 42.9985L405.759 41.0185L411.015 41.0185L411.015 38.9305L403.257 38.9305L403.257 49.3525ZM415.05 49.3525L417.246 49.3525L417.246 44.8705L416.904 41.5225L419.55 49.3525L422.61 49.3525L422.61 38.9305L420.414 38.9305L420.414 43.4125L420.756 46.7605L418.11 38.9305L415.05 38.9305L415.05 49.3525ZM426.843 49.3525L430.281 49.3525C433.773 49.3525 435.195 47.3725 435.195 44.0425C435.195 40.6765 433.737 38.9305 430.281 38.9305L426.843 38.9305L426.843 49.3525ZM429.345 41.0185L430.281 41.0185C432.171 41.0185 432.621 42.0445 432.621 44.1325C432.621 46.2025 432.171 47.2645 430.281 47.2645L429.345 47.2645L429.345 41.0185ZM437.466 49.3525L440.076 49.3525L440.742 47.2285L444.036 47.2285L444.72 49.3525L447.366 49.3525L443.712 38.9305L441.102 38.9305L437.466 49.3525ZM441.498 44.7985L442.362 41.5945L443.262 44.7985L443.406 45.2845L441.336 45.2845L441.498 44.7985ZM450.429 49.3525L452.931 49.3525L452.931 45.9145L454.047 45.9145L456.189 49.3525L459.195 49.3525L456.423 45.4105C457.485 44.9425 458.421 44.0425 458.421 42.3865C458.421 39.9025 456.315 38.9305 453.831 38.9305L450.429 38.9305L450.429 49.3525ZM452.931 40.9825L453.831 40.9825C455.145 40.9825 455.847 41.3965 455.847 42.4585C455.847 43.5025 455.145 43.9345 453.831 43.9345L452.931 43.9345L452.931 40.9825Z" fill="#E1DDD6"/>
<path d="M289.976 3.31598C289.976 4.59376 292.292 5.63196 295.087 5.63196C297.882 5.63196 300.198 4.59376 300.198 3.31598C300.198 2.0382 297.882 1 295.087 1C292.212 1 289.976 2.0382 289.976 3.31598Z" stroke="#BFB7AB" stroke-miterlimit="10"/>
<path d="M291.333 18.9688C291.333 18.9688 289.976 20.1667 289.976 22.882C289.976 24.1597 292.292 25.1979 295.087 25.1979C297.882 25.1979 300.198 24.1597 300.198 22.882C300.198 20.0868 298.84 18.9688 298.84 18.9688" stroke="#BFB7AB" stroke-miterlimit="10"/>
<path d="M289.975 3.31592C289.975 8.66663 287.979 10.5034 287.979 13.7778C287.979 17.1319 291.173 19.8472 295.086 19.8472C298.999 19.8472 302.194 17.1319 302.194 13.7778C302.194 10.4236 300.197 8.58677 300.197 3.31592" stroke="#BFB7AB" stroke-miterlimit="10"/>
<path d="M291.412 20.007C292.45 20.566 293.728 20.8854 295.086 20.8854C296.443 20.8854 297.721 20.566 298.759 20.007" stroke="#BFB7AB" stroke-miterlimit="10"/>
<path d="M289.017 13.9374C289.017 16.5729 291.732 18.7291 295.006 18.7291C298.36 18.7291 300.996 16.5729 300.996 13.9374C300.996 12.2604 298.52 10.9027 295.006 10.9027C291.652 10.9027 289.017 12.1805 289.017 13.9374Z" stroke="#BFB7AB" stroke-miterlimit="10"/>
<path d="M290.773 5.63196C291.652 6.27085 293.249 6.67016 295.006 6.67016C296.843 6.67016 298.36 6.27085 299.319 5.63196" stroke="#BFB7AB" stroke-miterlimit="10"/>
<path d="M295.006 15.8542C296.843 15.8542 298.44 15.4549 299.398 14.816" stroke="#BFB7AB" stroke-miterlimit="10"/>
<path d="M290.773 14.8959C291.412 15.2952 292.291 15.6146 293.329 15.7743" stroke="#BFB7AB" stroke-miterlimit="10"/>
<path d="M274.721 14.2571C274.721 15.3752 273.843 16.3335 272.645 16.3335C271.527 16.3335 270.568 15.455 270.568 14.2571C270.568 13.139 272.645 9.94458 272.645 9.94458C272.645 9.94458 274.721 13.139 274.721 14.2571Z" stroke="#BFB7AB" stroke-miterlimit="10"/>
<path d="M315.37 14.2571C315.37 15.3752 316.249 16.3335 317.447 16.3335C318.565 16.3335 319.523 15.455 319.523 14.2571C319.523 13.139 317.447 9.94458 317.447 9.94458C317.447 9.94458 315.37 13.139 315.37 14.2571Z" stroke="#BFB7AB" stroke-miterlimit="10"/>
<path d="M191.585 11.8612C192.304 11.8612 192.863 12.4202 192.863 13.139C192.863 13.8577 192.304 14.4168 191.585 14.4168C190.867 14.4168 190.308 13.8577 190.308 13.139C190.308 12.4202 190.947 11.8612 191.585 11.8612Z" stroke="#BFB7AB" stroke-miterlimit="10"/>
<path d="M231.915 11.8612C232.634 11.8612 233.193 12.4202 233.193 13.139C233.193 13.8577 232.634 14.4168 231.915 14.4168C231.197 14.4168 230.638 13.8577 230.638 13.139C230.638 12.4202 231.197 11.8612 231.915 11.8612Z" stroke="#BFB7AB" stroke-miterlimit="10"/>
<path d="M156.925 11.8612C157.644 11.8612 158.203 12.4202 158.203 13.139C158.203 13.8577 157.644 14.4168 156.925 14.4168C156.206 14.4168 155.647 13.8577 155.647 13.139C155.647 12.4202 156.206 11.8612 156.925 11.8612Z" stroke="#BFB7AB" stroke-miterlimit="10"/>
<path d="M398.506 11.8612C397.788 11.8612 397.229 12.4202 397.229 13.139C397.229 13.8577 397.788 14.4168 398.506 14.4168C399.225 14.4168 399.784 13.8577 399.784 13.139C399.784 12.4202 399.225 11.8612 398.506 11.8612Z" stroke="#BFB7AB" stroke-miterlimit="10"/>
<path d="M358.176 11.8612C357.457 11.8612 356.898 12.4202 356.898 13.139C356.898 13.8577 357.457 14.4168 358.176 14.4168C358.895 14.4168 359.454 13.8577 359.454 13.139C359.454 12.4202 358.895 11.8612 358.176 11.8612Z" stroke="#BFB7AB" stroke-miterlimit="10"/>
<path d="M433.165 11.8612C432.447 11.8612 431.888 12.4202 431.888 13.139C431.888 13.8577 432.447 14.4168 433.165 14.4168C433.884 14.4168 434.443 13.8577 434.443 13.139C434.443 12.4202 433.884 11.8612 433.165 11.8612Z" stroke="#BFB7AB" stroke-miterlimit="10"/>
<path d="M347.954 10.0242L347.874 9.8645C347.555 8.66658 346.277 8.02769 345.159 8.34713L341.725 9.30547C342.523 8.50686 343.002 7.46866 343.002 6.27074C343.002 3.8749 341.086 2.03809 338.77 2.03809C336.374 2.03809 334.537 3.95476 334.537 6.27074C334.537 7.46866 335.016 8.50686 335.815 9.30547L332.381 8.34713C331.183 8.02769 329.985 8.66658 329.666 9.8645L329.586 10.0242C329.266 11.2221 329.905 12.4201 331.103 12.7395L334.617 13.7777C334.777 14.0173 334.936 14.4965 334.697 15.2951C334.377 16.6527 333.659 17.9305 333.659 17.9305L332.221 20.5659C331.582 21.6041 332.061 23.0416 333.259 23.6805L333.419 23.7604C334.617 24.3993 336.054 24.0798 336.693 23.0416L337.732 21.2048C337.732 21.2048 337.971 20.8055 338.051 20.6458C338.37 20.1666 338.61 19.6875 338.929 19.368C339.249 19.6875 339.489 20.0868 339.808 20.6458C339.888 20.8055 340.127 21.2048 340.127 21.2048L341.166 23.0416C341.805 24.0798 343.242 24.3993 344.44 23.7604L344.6 23.6805C345.798 23.0416 346.277 21.6041 345.638 20.5659L344.2 17.9305C344.2 17.9305 343.482 16.5729 343.162 15.2951C342.923 14.3367 343.242 13.7777 343.322 13.618L346.436 12.7395C347.634 12.4201 348.273 11.2221 347.954 10.0242Z" stroke="#BFB7AB" stroke-miterlimit="10"/>
<path d="M331.103 12.6597C331.182 12.4201 331.502 12.5798 331.582 12.3403C331.662 12.1007 331.262 12.0208 331.342 11.7812C331.422 11.5417 331.741 11.7014 331.821 11.4618C331.901 11.2222 331.502 11.1423 331.582 10.9028C331.662 10.6632 331.981 10.8229 332.061 10.5833C332.141 10.3437 331.741 10.2639 331.821 10.0243C331.901 9.7847 332.221 9.94442 332.3 9.70484C332.38 9.46525 331.981 9.38539 332.061 9.14581C332.141 8.90622 332.46 9.06595 332.54 8.82636C332.62 8.58678 332.221 8.50692 332.3 8.26733" stroke="#BFB7AB" stroke-miterlimit="10"/>
<path d="M331.103 12.6597C331.182 12.4201 331.502 12.5798 331.582 12.3403C331.662 12.1007 331.262 12.0208 331.342 11.7812C331.422 11.5417 331.741 11.7014 331.821 11.4618C331.901 11.2222 331.502 11.1423 331.582 10.9028C331.662 10.6632 331.981 10.8229 332.061 10.5833C332.141 10.3437 331.741 10.2639 331.821 10.0243C331.901 9.7847 332.221 9.94442 332.3 9.70484C332.38 9.46525 331.981 9.38539 332.061 9.14581C332.141 8.90622 332.46 9.06595 332.54 8.82636C332.62 8.58678 332.221 8.50692 332.3 8.26733" stroke="#BFB7AB" stroke-miterlimit="10"/>
<path d="M333.1 19.2883C333.339 19.3682 333.179 19.7675 333.339 19.8474C333.579 19.9272 333.738 19.6078 333.978 19.7675C334.218 19.8474 334.058 20.2467 334.218 20.3265C334.457 20.4064 334.617 20.0869 334.857 20.2467C335.096 20.3265 334.936 20.7258 335.096 20.8057C335.336 20.8856 335.495 20.5661 335.735 20.7258C335.975 20.8057 335.815 21.205 335.975 21.2849C336.214 21.3647 336.374 21.0453 336.614 21.205C336.853 21.2849 336.693 21.6842 336.853 21.764C337.093 21.8439 337.252 21.5244 337.492 21.6842" stroke="#BFB7AB" stroke-miterlimit="10"/>
<path d="M344.999 19.6075C344.759 19.6874 344.6 19.368 344.36 19.5277C344.12 19.6075 344.28 20.0069 344.12 20.0867C343.881 20.1666 343.721 19.8471 343.481 20.0069C343.242 20.0867 343.402 20.486 343.242 20.5659C343.002 20.6457 342.843 20.3263 342.603 20.486C342.363 20.5659 342.523 20.9652 342.363 21.0451C342.124 21.1249 341.964 20.8055 341.724 20.9652C341.485 21.0451 341.645 21.4444 341.485 21.5242C341.245 21.6041 341.086 21.2846 340.846 21.4444C340.606 21.5242 340.766 21.9235 340.606 22.0034" stroke="#BFB7AB" stroke-miterlimit="10"/>
<path d="M346.436 12.7395C346.356 12.5 346.756 12.4201 346.676 12.1805C346.596 11.9409 346.276 12.1007 346.197 11.8611C346.117 11.6215 346.516 11.5416 346.436 11.302C346.356 11.0625 346.037 11.2222 345.957 10.9826C345.877 10.743 346.276 10.6631 346.197 10.4236C346.117 10.184 345.797 10.3437 345.717 10.1041C345.638 9.86453 346.037 9.78467 345.957 9.54509C345.877 9.3055 345.558 9.46523 345.478 9.22564C345.398 8.98606 345.797 8.9062 345.717 8.66661C345.638 8.42703 345.318 8.58675 345.238 8.34717" stroke="#BFB7AB" stroke-miterlimit="10"/>
<path d="M339.568 13.1389C339.568 13.5382 339.249 13.8577 338.85 13.8577C338.45 13.8577 338.131 13.5382 338.131 13.1389C338.131 12.7396 338.45 12.4202 338.85 12.4202C339.249 12.4202 339.568 12.7396 339.568 13.1389Z" stroke="#BFB7AB" stroke-miterlimit="10"/>
<path d="M339.568 15.455C339.568 15.8543 339.249 16.1737 338.85 16.1737C338.45 16.1737 338.131 15.8543 338.131 15.455C338.131 15.0557 338.45 14.7362 338.85 14.7362C339.249 14.7362 339.568 15.0557 339.568 15.455Z" stroke="#BFB7AB" stroke-miterlimit="10"/>
<path d="M339.568 10.7432C339.568 11.1425 339.249 11.4619 338.85 11.4619C338.45 11.4619 338.131 11.1425 338.131 10.7432C338.131 10.3439 338.45 10.0244 338.85 10.0244C339.249 10.0244 339.568 10.3439 339.568 10.7432Z" stroke="#BFB7AB" stroke-miterlimit="10"/>
<path d="M340.527 5.47233C340.527 5.71192 340.287 5.9515 340.048 5.9515C339.808 5.9515 339.568 5.71192 339.568 5.47233C339.568 5.23275 339.808 4.99316 340.048 4.99316C340.287 4.99316 340.527 5.23275 340.527 5.47233Z" stroke="#BFB7AB" stroke-miterlimit="10"/>
<path d="M337.811 5.47233C337.811 5.71192 337.571 5.9515 337.332 5.9515C337.092 5.9515 336.853 5.71192 336.853 5.47233C336.853 5.23275 337.092 4.99316 337.332 4.99316C337.571 4.99316 337.811 5.23275 337.811 5.47233Z" stroke="#BFB7AB" stroke-miterlimit="10"/>
<path d="M339.887 7.22925C339.887 7.62855 339.408 7.948 338.849 7.948C338.29 7.948 337.811 7.62855 337.811 7.22925" stroke="#BFB7AB" stroke-miterlimit="10"/>
<path d="M260.586 10.0242L260.506 9.8645C260.186 8.66658 258.909 8.02769 257.791 8.34713L254.356 9.30547C255.155 8.50686 255.634 7.46866 255.634 6.27074C255.634 3.95476 253.718 2.03809 251.402 2.03809C249.006 2.03809 247.169 3.95476 247.169 6.27074C247.169 7.46866 247.648 8.50686 248.447 9.30547L245.013 8.34713C243.815 8.02769 242.617 8.66658 242.297 9.8645L242.218 10.0242C241.898 11.2221 242.537 12.4201 243.735 12.7395L247.249 13.7777C247.409 14.0173 247.568 14.4965 247.329 15.2951C247.009 16.6527 246.29 17.9305 246.29 17.9305L244.853 20.5659C244.214 21.6041 244.693 23.0416 245.891 23.6805L246.051 23.7604C247.249 24.3993 248.686 24.0798 249.325 23.0416L250.363 21.2048C250.363 21.2048 250.603 20.8055 250.683 20.6458C251.002 20.1666 251.242 19.6875 251.561 19.368C251.881 19.6875 252.12 20.0868 252.44 20.6458C252.52 20.8055 252.759 21.2048 252.759 21.2048L253.797 23.0416C254.436 24.0798 255.874 24.3993 257.072 23.7604L257.231 23.6805C258.429 23.0416 258.909 21.6041 258.27 20.5659L256.832 17.9305C256.832 17.9305 256.113 16.5729 255.794 15.2951C255.554 14.3367 255.874 13.7777 255.954 13.618L259.068 12.7395C260.186 12.4201 260.905 11.2221 260.586 10.0242Z" stroke="#BFB7AB" stroke-miterlimit="10"/>
<path d="M243.735 12.6597C243.815 12.4201 244.135 12.5798 244.215 12.3403C244.294 12.1007 243.895 12.0208 243.975 11.7812C244.055 11.5417 244.374 11.7014 244.454 11.4618C244.534 11.2222 244.135 11.1423 244.215 10.9028C244.294 10.6632 244.614 10.8229 244.694 10.5833C244.774 10.3437 244.374 10.2639 244.454 10.0243C244.534 9.7847 244.853 9.94442 244.933 9.70484C245.013 9.46525 244.614 9.38539 244.694 9.14581C244.774 8.90622 245.093 9.06595 245.173 8.82636C245.253 8.58678 244.853 8.50692 244.933 8.26733" stroke="#BFB7AB" stroke-miterlimit="10"/>
<path d="M243.735 12.6597C243.815 12.4201 244.135 12.5798 244.215 12.3403C244.294 12.1007 243.895 12.0208 243.975 11.7812C244.055 11.5417 244.374 11.7014 244.454 11.4618C244.534 11.2222 244.135 11.1423 244.215 10.9028C244.294 10.6632 244.614 10.8229 244.694 10.5833C244.774 10.3437 244.374 10.2639 244.454 10.0243C244.534 9.7847 244.853 9.94442 244.933 9.70484C245.013 9.46525 244.614 9.38539 244.694 9.14581C244.774 8.90622 245.093 9.06595 245.173 8.82636C245.253 8.58678 244.853 8.50692 244.933 8.26733" stroke="#BFB7AB" stroke-miterlimit="10"/>
<path d="M245.731 19.2883C245.971 19.3682 245.811 19.7675 245.971 19.8474C246.211 19.9272 246.37 19.6078 246.61 19.7675C246.85 19.9272 246.69 20.2467 246.85 20.3265C247.089 20.4064 247.249 20.0869 247.488 20.2467C247.728 20.3265 247.568 20.7258 247.728 20.8057C247.968 20.8856 248.127 20.5661 248.367 20.7258C248.606 20.8057 248.447 21.205 248.606 21.2849C248.846 21.3647 249.006 21.0453 249.245 21.205C249.485 21.2849 249.325 21.6842 249.485 21.764C249.725 21.8439 249.884 21.5244 250.124 21.6842" stroke="#BFB7AB" stroke-miterlimit="10"/>
<path d="M257.631 19.6075C257.391 19.6874 257.231 19.368 256.992 19.5277C256.752 19.6075 256.912 20.0069 256.752 20.0867C256.513 20.1666 256.353 19.8471 256.113 20.0069C255.874 20.0867 256.033 20.486 255.874 20.5659C255.634 20.6457 255.474 20.3263 255.235 20.486C254.995 20.5659 255.155 20.9652 254.995 21.0451C254.756 21.1249 254.596 20.8055 254.356 20.9652C254.117 21.0451 254.276 21.4444 254.117 21.5242C253.877 21.6041 253.717 21.2846 253.478 21.4444C253.238 21.5242 253.398 21.9235 253.238 22.0034" stroke="#BFB7AB" stroke-miterlimit="10"/>
<path d="M259.069 12.7395C258.989 12.5 259.388 12.4201 259.309 12.1805C259.229 11.9409 258.909 12.1007 258.829 11.8611C258.75 11.6215 259.149 11.5416 259.069 11.302C258.989 11.0625 258.67 11.2222 258.59 10.9826C258.51 10.743 258.909 10.6631 258.829 10.4236C258.75 10.184 258.43 10.3437 258.35 10.1041C258.27 9.86453 258.67 9.78467 258.59 9.54509C258.51 9.3055 258.191 9.46523 258.111 9.22564C258.031 8.98606 258.43 8.9062 258.35 8.66661C258.27 8.42703 257.951 8.58675 257.871 8.34717" stroke="#BFB7AB" stroke-miterlimit="10"/>
<path d="M252.121 13.1389C252.121 13.5382 251.802 13.8577 251.402 13.8577C251.003 13.8577 250.684 13.5382 250.684 13.1389C250.684 12.7396 251.003 12.4202 251.402 12.4202C251.802 12.4202 252.121 12.7396 252.121 13.1389Z" stroke="#BFB7AB" stroke-miterlimit="10"/>
<path d="M252.121 15.455C252.121 15.8543 251.802 16.1737 251.402 16.1737C251.003 16.1737 250.684 15.8543 250.684 15.455C250.684 15.0557 251.003 14.7362 251.402 14.7362C251.802 14.7362 252.121 15.0557 252.121 15.455Z" stroke="#BFB7AB" stroke-miterlimit="10"/>
<path d="M252.121 10.7432C252.121 11.1425 251.802 11.4619 251.402 11.4619C251.003 11.4619 250.684 11.1425 250.684 10.7432C250.684 10.3439 251.003 10.0244 251.402 10.0244C251.802 10.0244 252.121 10.3439 252.121 10.7432Z" stroke="#BFB7AB" stroke-miterlimit="10"/>
<path d="M253.16 5.47233C253.16 5.71192 252.92 5.9515 252.68 5.9515C252.441 5.9515 252.201 5.71192 252.201 5.47233C252.201 5.23275 252.441 4.99316 252.68 4.99316C252.92 4.99316 253.16 5.23275 253.16 5.47233Z" stroke="#BFB7AB" stroke-miterlimit="10"/>
<path d="M250.364 5.47233C250.364 5.71192 250.124 5.9515 249.884 5.9515C249.645 5.9515 249.405 5.71192 249.405 5.47233C249.405 5.23275 249.645 4.99316 249.884 4.99316C250.124 4.99316 250.364 5.23275 250.364 5.47233Z" stroke="#BFB7AB" stroke-miterlimit="10"/>
<path d="M252.52 7.22925C252.52 7.62855 252.041 7.948 251.482 7.948C250.923 7.948 250.443 7.62855 250.443 7.22925" stroke="#BFB7AB" stroke-miterlimit="10"/>
<path d="M423.343 9.22571L408.249 9.22571L408.249 22.0834L423.343 22.0834L423.343 9.22571Z" stroke="#BFB7AB" stroke-miterlimit="10"/>
<path d="M424.301 7.06946L407.291 7.06946L407.291 9.22571L424.301 9.22571L424.301 7.06946Z" stroke="#BFB7AB" stroke-miterlimit="10"/>
<path d="M416.635 6.90991L414.958 6.90991L414.958 22.0836L416.635 22.0836L416.635 6.90991Z" stroke="#BFB7AB" stroke-miterlimit="10"/>
<path d="M415.437 6.98962C416.236 6.191 416.476 3.87502 417.993 4.19447C418.792 4.35419 419.51 5.1528 419.431 5.87156C419.191 7.06948 417.993 6.27086 415.437 6.98962Z" stroke="#BFB7AB" stroke-miterlimit="10"/>
<path d="M415.677 6.82994C415.118 6.27091 414.958 4.11466 413.681 4.91327C412.243 5.79175 415.278 7.14939 415.677 6.82994Z" stroke="#BFB7AB" stroke-miterlimit="10"/>
<path d="M181.843 9.22571L166.749 9.22571L166.749 22.0834L181.843 22.0834L181.843 9.22571Z" stroke="#BFB7AB" stroke-miterlimit="10"/>
<path d="M182.801 7.06946L165.791 7.06946L165.791 9.22571L182.801 9.22571L182.801 7.06946Z" stroke="#BFB7AB" stroke-miterlimit="10"/>
<path d="M175.135 6.90979L173.458 6.90979L173.458 22.0835L175.135 22.0835L175.135 6.90979Z" stroke="#BFB7AB" stroke-miterlimit="10"/>
<path d="M173.937 6.98962C174.736 6.191 174.976 3.87502 176.493 4.19447C177.292 4.35419 178.01 5.1528 177.931 5.87156C177.691 7.06948 176.493 6.27086 173.937 6.98962Z" stroke="#BFB7AB" stroke-miterlimit="10"/>
<path d="M174.097 6.82994C173.538 6.27091 173.378 4.11466 172.101 4.91327C170.743 5.79175 173.778 7.14939 174.097 6.82994Z" stroke="#BFB7AB" stroke-miterlimit="10"/>
<path d="M378.382 1.479L378.382 24.8784" stroke="#BFB7AB" stroke-miterlimit="10"/>
<path d="M378.302 1.31946C377.823 2.11807 377.264 2.91669 376.465 3.39585C376.225 3.55558 375.986 3.63544 375.746 3.63544C375.347 3.63544 374.868 3.39585 374.708 2.99655" stroke="#BFB7AB" stroke-miterlimit="10"/>
<path d="M375.187 2.67704C375.187 2.91663 375.027 3.15621 374.708 3.15621C374.468 3.15621 374.229 2.99649 374.229 2.67704C374.229 2.43746 374.388 2.19788 374.708 2.19788C375.027 2.19788 375.187 2.3576 375.187 2.67704Z" stroke="#BFB7AB" stroke-miterlimit="10"/>
<path d="M378.382 1.31946C378.861 2.11807 379.42 2.91669 380.219 3.39585C380.458 3.55558 380.698 3.63544 380.937 3.63544C381.337 3.63544 381.816 3.39585 381.976 2.99655" stroke="#BFB7AB" stroke-miterlimit="10"/>
<path d="M381.496 2.67704C381.496 2.91663 381.656 3.15621 381.975 3.15621C382.215 3.15621 382.454 2.99649 382.454 2.67704C382.454 2.43746 382.295 2.19788 381.975 2.19788C381.656 2.19788 381.496 2.3576 381.496 2.67704Z" stroke="#BFB7AB" stroke-miterlimit="10"/>
<path d="M378.302 4.67358C377.823 5.4722 377.264 6.27081 376.465 6.74998C376.225 6.9097 375.986 6.98956 375.746 6.98956C375.347 6.98956 374.868 6.74998 374.708 6.35067" stroke="#BFB7AB" stroke-miterlimit="10"/>
<path d="M375.187 5.95134C375.187 6.19092 375.027 6.4305 374.708 6.4305C374.468 6.4305 374.229 6.27078 374.229 5.95134C374.229 5.71175 374.388 5.47217 374.708 5.47217C375.027 5.55203 375.187 5.71175 375.187 5.95134Z" stroke="#BFB7AB" stroke-miterlimit="10"/>
<path d="M378.382 4.67358C378.861 5.4722 379.42 6.27081 380.219 6.74998C380.458 6.9097 380.698 6.98956 380.937 6.98956C381.337 6.98956 381.816 6.74998 381.976 6.35067" stroke="#BFB7AB" stroke-miterlimit="10"/>
<path d="M381.496 5.95134C381.496 6.19092 381.656 6.4305 381.975 6.4305C382.215 6.4305 382.454 6.27078 382.454 5.95134C382.454 5.71175 382.295 5.47217 381.975 5.47217C381.656 5.55203 381.496 5.71175 381.496 5.95134Z" stroke="#BFB7AB" stroke-miterlimit="10"/>
<path d="M378.301 7.78809C377.742 8.74642 377.103 9.70476 376.145 10.2638C375.905 10.4235 375.586 10.5034 375.266 10.5832C374.787 10.5832 374.228 10.2638 374.068 9.78462" stroke="#BFB7AB" stroke-miterlimit="10"/>
<path d="M374.628 9.38545C374.628 9.70489 374.388 9.94448 374.069 9.94448C373.749 9.94448 373.51 9.70489 373.51 9.38545C373.51 9.066 373.749 8.82642 374.069 8.82642C374.388 8.82642 374.628 9.066 374.628 9.38545Z" stroke="#BFB7AB" stroke-miterlimit="10"/>
<path d="M378.382 7.78809C378.941 8.74642 379.58 9.70476 380.538 10.2638C380.778 10.4235 381.097 10.5034 381.417 10.5832C381.896 10.5832 382.455 10.2638 382.615 9.78462" stroke="#BFB7AB" stroke-miterlimit="10"/>
<path d="M382.055 9.38545C382.055 9.70489 382.294 9.94448 382.614 9.94448C382.933 9.94448 383.173 9.70489 383.173 9.38545C383.173 9.066 382.933 8.82642 382.614 8.82642C382.294 8.82642 382.055 9.066 382.055 9.38545Z" stroke="#BFB7AB" stroke-miterlimit="10"/>
<path d="M378.301 10.8229C377.582 12.0208 376.784 13.2187 375.586 13.9375C375.266 14.0972 374.867 14.2569 374.468 14.2569C373.829 14.2569 373.19 13.8576 372.95 13.2986" stroke="#BFB7AB" stroke-miterlimit="10"/>
<path d="M373.749 12.7396C373.749 13.1389 373.43 13.3785 373.111 13.3785C372.711 13.3785 372.472 13.059 372.472 12.7396C372.472 12.3403 372.791 12.1007 373.111 12.1007C373.43 12.1007 373.749 12.3403 373.749 12.7396Z" stroke="#BFB7AB" stroke-miterlimit="10"/>
<path d="M378.382 10.8229C379.101 12.0208 379.899 13.2187 381.097 13.9375C381.417 14.0972 381.816 14.2569 382.215 14.2569C382.854 14.2569 383.493 13.8576 383.733 13.2986" stroke="#BFB7AB" stroke-miterlimit="10"/>
<path d="M382.934 12.7396C382.934 13.1389 383.253 13.3785 383.572 13.3785C383.972 13.3785 384.211 13.059 384.211 12.7396C384.211 12.3403 383.892 12.1007 383.572 12.1007C383.253 12.1007 382.934 12.3403 382.934 12.7396Z" stroke="#BFB7AB" stroke-miterlimit="10"/>
<path d="M378.301 13.8577C377.503 15.2153 376.545 16.6528 375.107 17.4514C374.708 17.691 374.308 17.8507 373.829 17.8507C373.11 17.8507 372.312 17.3716 372.072 16.7327" stroke="#BFB7AB" stroke-miterlimit="10"/>
<path d="M372.951 16.0937C372.951 16.493 372.631 16.8923 372.152 16.8923C371.753 16.8923 371.354 16.5728 371.354 16.0937C371.354 15.6944 371.673 15.295 372.152 15.295C372.551 15.3749 372.951 15.6944 372.951 16.0937Z" stroke="#BFB7AB" stroke-miterlimit="10"/>
<path d="M378.382 13.8577C379.18 15.2153 380.139 16.6528 381.576 17.4514C381.976 17.691 382.375 17.8507 382.854 17.8507C383.573 17.8507 384.371 17.3716 384.611 16.7327" stroke="#BFB7AB" stroke-miterlimit="10"/>
<path d="M383.732 16.0937C383.732 16.493 384.052 16.8923 384.531 16.8923C384.93 16.8923 385.33 16.5728 385.33 16.0937C385.33 15.6944 385.01 15.295 384.531 15.295C384.132 15.3749 383.732 15.6944 383.732 16.0937Z" stroke="#BFB7AB" stroke-miterlimit="10"/>
<path d="M378.301 16.8925C377.343 18.4897 376.225 20.1668 374.548 21.1251C374.069 21.3647 373.59 21.6043 373.031 21.6043C372.152 21.6043 371.274 21.0452 370.954 20.2466" stroke="#BFB7AB" stroke-miterlimit="10"/>
<path d="M371.992 19.5278C371.992 20.0069 371.593 20.4062 371.114 20.4062C370.634 20.4062 370.155 20.0069 370.155 19.5278C370.155 19.0486 370.555 18.6493 371.034 18.6493C371.513 18.6493 371.992 18.9687 371.992 19.5278Z" stroke="#BFB7AB" stroke-miterlimit="10"/>
<path d="M378.382 16.8925C379.34 18.4897 380.458 20.1668 382.135 21.1251C382.614 21.3647 383.094 21.6043 383.653 21.6043C384.531 21.6043 385.41 21.0452 385.729 20.2466" stroke="#BFB7AB" stroke-miterlimit="10"/>
<path d="M384.69 19.5278C384.69 20.007 385.09 20.4063 385.569 20.4063C386.048 20.4063 386.447 20.007 386.447 19.5278C386.447 19.0486 386.048 18.6493 385.569 18.6493C385.17 18.5695 384.69 18.9688 384.69 19.5278Z" stroke="#BFB7AB" stroke-miterlimit="10"/>
<path d="M211.791 1.47913L211.791 24.8785" stroke="#BFB7AB" stroke-miterlimit="10"/>
<path d="M211.791 1.31946C211.312 2.11807 210.753 2.91669 209.954 3.39585C209.715 3.55558 209.475 3.63544 209.235 3.63544C208.836 3.63544 208.357 3.39585 208.197 2.99655" stroke="#BFB7AB" stroke-miterlimit="10"/>
<path d="M208.676 2.67717C208.676 2.91675 208.516 3.15633 208.197 3.15633C207.957 3.15633 207.718 2.99661 207.718 2.67717C207.718 2.43758 207.877 2.198 208.197 2.198C208.437 2.198 208.676 2.35772 208.676 2.67717Z" stroke="#BFB7AB" stroke-miterlimit="10"/>
<path d="M211.791 1.31946C212.27 2.11807 212.829 2.91669 213.628 3.39585C213.867 3.55558 214.107 3.63544 214.347 3.63544C214.746 3.63544 215.225 3.39585 215.385 2.99655" stroke="#BFB7AB" stroke-miterlimit="10"/>
<path d="M214.905 2.67717C214.905 2.91675 215.065 3.15633 215.384 3.15633C215.624 3.15633 215.864 2.99661 215.864 2.67717C215.864 2.43758 215.704 2.198 215.384 2.198C215.145 2.198 214.905 2.35772 214.905 2.67717Z" stroke="#BFB7AB" stroke-miterlimit="10"/>
<path d="M211.791 4.67371C211.312 5.47232 210.753 6.27093 209.954 6.7501C209.715 6.90982 209.475 6.98969 209.235 6.98969C208.836 6.98969 208.357 6.7501 208.197 6.35079" stroke="#BFB7AB" stroke-miterlimit="10"/>
<path d="M208.676 5.95146C208.676 6.19104 208.516 6.43063 208.197 6.43063C207.957 6.43063 207.718 6.2709 207.718 5.95146C207.718 5.71187 207.877 5.47229 208.197 5.47229C208.437 5.55215 208.676 5.71187 208.676 5.95146Z" stroke="#BFB7AB" stroke-miterlimit="10"/>
<path d="M211.791 4.67371C212.27 5.47232 212.829 6.27093 213.628 6.7501C213.867 6.90982 214.107 6.98969 214.347 6.98969C214.746 6.98969 215.225 6.7501 215.385 6.35079" stroke="#BFB7AB" stroke-miterlimit="10"/>
<path d="M214.905 5.95146C214.905 6.19104 215.065 6.43063 215.384 6.43063C215.624 6.43063 215.864 6.2709 215.864 5.95146C215.864 5.71187 215.704 5.47229 215.384 5.47229C215.145 5.55215 214.905 5.71187 214.905 5.95146Z" stroke="#BFB7AB" stroke-miterlimit="10"/>
<path d="M211.79 7.78833C211.231 8.74667 210.592 9.705 209.634 10.264C209.394 10.4238 209.075 10.5036 208.756 10.5835C208.276 10.5835 207.717 10.264 207.558 9.78486" stroke="#BFB7AB" stroke-miterlimit="10"/>
<path d="M208.037 9.38545C208.037 9.70489 207.797 9.94448 207.478 9.94448C207.159 9.94448 206.919 9.70489 206.919 9.38545C206.919 9.066 207.159 8.82642 207.478 8.82642C207.797 8.82642 208.037 9.066 208.037 9.38545Z" stroke="#BFB7AB" stroke-miterlimit="10"/>
<path d="M211.791 7.78833C212.35 8.74667 212.989 9.705 213.947 10.264C214.187 10.4238 214.506 10.5036 214.826 10.5835C215.305 10.5835 215.864 10.264 216.024 9.78486" stroke="#BFB7AB" stroke-miterlimit="10"/>
<path d="M215.464 9.38545C215.464 9.70489 215.703 9.94448 216.023 9.94448C216.342 9.94448 216.582 9.70489 216.582 9.38545C216.582 9.066 216.342 8.82642 216.023 8.82642C215.703 8.82642 215.464 9.066 215.464 9.38545Z" stroke="#BFB7AB" stroke-miterlimit="10"/>
<path d="M211.71 10.8229C210.991 12.0208 210.193 13.2187 208.995 13.9375C208.675 14.0972 208.276 14.2569 207.877 14.2569C207.238 14.2569 206.599 13.8576 206.359 13.2986" stroke="#BFB7AB" stroke-miterlimit="10"/>
<path d="M207.159 12.7396C207.159 13.1389 206.839 13.3785 206.52 13.3785C206.12 13.3785 205.881 13.059 205.881 12.7396C205.881 12.3403 206.2 12.1007 206.52 12.1007C206.839 12.1007 207.159 12.3403 207.159 12.7396Z" stroke="#BFB7AB" stroke-miterlimit="10"/>
<path d="M211.791 10.8229C212.51 12.0208 213.308 13.2187 214.506 13.9375C214.826 14.0972 215.225 14.2569 215.624 14.2569C216.263 14.2569 216.902 13.8576 217.142 13.2986" stroke="#BFB7AB" stroke-miterlimit="10"/>
<path d="M216.423 12.7396C216.423 13.1389 216.742 13.3785 217.062 13.3785C217.461 13.3785 217.701 13.059 217.701 12.7396C217.701 12.3403 217.381 12.1007 217.062 12.1007C216.662 12.1007 216.423 12.3403 216.423 12.7396Z" stroke="#BFB7AB" stroke-miterlimit="10"/>
<path d="M211.711 13.8577C210.912 15.2153 209.954 16.6528 208.516 17.4514C208.117 17.691 207.718 17.8507 207.238 17.8507C206.52 17.8507 205.721 17.3716 205.481 16.7327" stroke="#BFB7AB" stroke-miterlimit="10"/>
<path d="M206.36 16.0937C206.36 16.493 206.04 16.8923 205.561 16.8923C205.162 16.8923 204.763 16.5728 204.763 16.0937C204.763 15.6944 205.082 15.295 205.561 15.295C206.04 15.3749 206.36 15.6944 206.36 16.0937Z" stroke="#BFB7AB" stroke-miterlimit="10"/>
<path d="M211.791 13.8577C212.59 15.2153 213.548 16.6528 214.985 17.4514C215.385 17.691 215.784 17.8507 216.263 17.8507C216.982 17.8507 217.781 17.3716 218.02 16.7327" stroke="#BFB7AB" stroke-miterlimit="10"/>
<path d="M217.222 16.0937C217.222 16.493 217.541 16.8923 218.02 16.8923C218.42 16.8923 218.819 16.5728 218.819 16.0937C218.819 15.6944 218.499 15.295 218.02 15.295C217.541 15.3749 217.222 15.6944 217.222 16.0937Z" stroke="#BFB7AB" stroke-miterlimit="10"/>
<path d="M211.711 16.8925C210.752 18.4897 209.634 20.1668 207.957 21.1251C207.478 21.3647 206.999 21.6043 206.44 21.6043C205.561 21.6043 204.683 21.0452 204.363 20.2466" stroke="#BFB7AB" stroke-miterlimit="10"/>
<path d="M205.401 19.5279C205.401 20.0071 205.002 20.4064 204.523 20.4064C204.044 20.4064 203.645 20.0071 203.645 19.5279C203.645 19.0487 204.044 18.6494 204.523 18.6494C205.002 18.6494 205.401 18.9689 205.401 19.5279Z" stroke="#BFB7AB" stroke-miterlimit="10"/>
<path d="M211.791 16.8925C212.749 18.4897 213.867 20.1668 215.545 21.1251C216.024 21.3647 216.503 21.6043 217.062 21.6043C217.94 21.6043 218.819 21.0452 219.138 20.2466" stroke="#BFB7AB" stroke-miterlimit="10"/>
<path d="M218.18 19.5278C218.18 20.007 218.579 20.4063 219.058 20.4063C219.537 20.4063 219.937 20.007 219.937 19.5278C219.937 19.0486 219.537 18.6493 219.058 18.6493C218.579 18.5695 218.18 18.9688 218.18 19.5278Z" stroke="#BFB7AB" stroke-miterlimit="10"/>
<path d="M449.538 13.6979L448.021 13.2188L449.458 12.6597L448.739 11.2222L450.177 11.8611L450.656 10.3438L451.295 11.7813L452.652 11.0625L452.093 12.5L453.611 12.9792L452.093 13.6181L452.892 14.9757L451.375 14.4167L450.896 15.934L450.336 14.4167L448.899 15.1354L449.538 13.6979Z" stroke="#BFB7AB" stroke-miterlimit="10"/>
<path d="M449.139 14.9757L445.226 18.8889" stroke="#BFB7AB" stroke-miterlimit="10"/>
<path d="M444.746 18.6493C445.065 18.6493 445.305 18.8889 445.305 19.2083C445.305 19.5278 445.065 19.7674 444.746 19.7674C444.426 19.7674 444.187 19.5278 444.187 19.2083C444.187 18.9687 444.426 18.6493 444.746 18.6493Z" stroke="#BFB7AB" stroke-miterlimit="10"/>
<path d="M448.979 11.4618L445.146 7.62842" stroke="#BFB7AB" stroke-miterlimit="10"/>
<path d="M444.746 7.94802C445.065 7.94802 445.305 7.70843 445.305 7.38899C445.305 7.06954 445.065 6.82996 444.746 6.82996C444.426 6.82996 444.187 7.06954 444.187 7.38899C444.187 7.70843 444.426 7.94802 444.746 7.94802Z" stroke="#BFB7AB" stroke-miterlimit="10"/>
<path d="M452.812 14.9757L456.726 18.8889" stroke="#BFB7AB" stroke-miterlimit="10"/>
<path d="M457.124 18.6493C456.805 18.6493 456.565 18.8889 456.565 19.2083C456.565 19.5278 456.805 19.7674 457.124 19.7674C457.444 19.7674 457.683 19.5278 457.683 19.2083C457.683 18.9687 457.444 18.6493 457.124 18.6493Z" stroke="#BFB7AB" stroke-miterlimit="10"/>
<path d="M452.652 11.0626L456.566 7.22925" stroke="#BFB7AB" stroke-miterlimit="10"/>
<path d="M456.885 7.5486C456.566 7.5486 456.326 7.30902 456.326 6.98957C456.326 6.67013 456.566 6.43054 456.885 6.43054C457.205 6.43054 457.444 6.67013 457.444 6.98957C457.444 7.30902 457.205 7.5486 456.885 7.5486Z" stroke="#BFB7AB" stroke-miterlimit="10"/>
<path d="M448.26 13.2188L442.75 13.2188" stroke="#BFB7AB" stroke-miterlimit="10"/>
<path d="M442.111 12.6597C442.43 12.6597 442.67 12.8993 442.67 13.2187C442.67 13.5381 442.43 13.7777 442.111 13.7777C441.791 13.7777 441.552 13.5381 441.552 13.2187C441.552 12.8993 441.791 12.6597 442.111 12.6597Z" stroke="#BFB7AB" stroke-miterlimit="10"/>
<path d="M445.306 15.6945L447.781 13.2188" stroke="#BFB7AB" stroke-miterlimit="10"/>
<path d="M443.069 15.6945L445.545 13.2188" stroke="#BFB7AB" stroke-miterlimit="10"/>
<path d="M445.306 10.7432L447.781 13.2189" stroke="#BFB7AB" stroke-miterlimit="10"/>
<path d="M443.069 10.7432L445.545 13.139" stroke="#BFB7AB" stroke-miterlimit="10"/>
<path d="M453.211 12.9791L458.721 12.9791" stroke="#BFB7AB" stroke-miterlimit="10"/>
<path d="M459.441 12.4202C459.121 12.4202 458.882 12.6598 458.882 12.9792C458.882 13.2986 459.121 13.5382 459.441 13.5382C459.76 13.5382 460 13.2986 460 12.9792C460 12.6598 459.76 12.4202 459.441 12.4202Z" stroke="#BFB7AB" stroke-miterlimit="10"/>
<path d="M456.166 15.4548L453.771 12.9791" stroke="#BFB7AB" stroke-miterlimit="10"/>
<path d="M458.403 15.4548L456.007 12.9791" stroke="#BFB7AB" stroke-miterlimit="10"/>
<path d="M456.166 10.5034L453.771 12.8993" stroke="#BFB7AB" stroke-miterlimit="10"/>
<path d="M458.402 10.5034L455.927 12.8993" stroke="#BFB7AB" stroke-miterlimit="10"/>
<path d="M450.655 10.5035L450.655 4.99304" stroke="#BFB7AB" stroke-miterlimit="10"/>
<path d="M450.097 4.27424C450.097 4.59369 450.336 4.83327 450.656 4.83327C450.975 4.83327 451.215 4.59369 451.215 4.27424C451.215 3.95479 450.975 3.71521 450.656 3.71521C450.336 3.71521 450.097 3.95479 450.097 4.27424Z" stroke="#BFB7AB" stroke-miterlimit="10"/>
<path d="M453.131 7.54871L450.655 9.94455" stroke="#BFB7AB" stroke-miterlimit="10"/>
<path d="M453.131 5.3125L450.655 7.70834" stroke="#BFB7AB" stroke-miterlimit="10"/>
<path d="M448.18 7.54871L450.655 10.0244" stroke="#BFB7AB" stroke-miterlimit="10"/>
<path d="M448.18 5.3125L450.655 7.7882" stroke="#BFB7AB" stroke-miterlimit="10"/>
<path d="M450.896 15.7742L450.896 21.2846" stroke="#BFB7AB" stroke-miterlimit="10"/>
<path d="M450.336 21.9237C450.336 21.6042 450.576 21.3646 450.895 21.3646C451.214 21.3646 451.454 21.6042 451.454 21.9237C451.454 22.2431 451.214 22.4827 450.895 22.4827C450.576 22.4827 450.336 22.2431 450.336 21.9237Z" stroke="#BFB7AB" stroke-miterlimit="10"/>
<path d="M453.371 18.7292L450.896 16.3334" stroke="#BFB7AB" stroke-miterlimit="10"/>
<path d="M453.371 20.9654L450.896 18.4897" stroke="#BFB7AB" stroke-miterlimit="10"/>
<path d="M448.42 18.7292L450.896 16.2535" stroke="#BFB7AB" stroke-miterlimit="10"/>
<path d="M448.34 20.9654L450.816 18.4897" stroke="#BFB7AB" stroke-miterlimit="10"/>
<path d="M138.797 11.8611L139.276 10.3438L139.835 11.8611L141.272 11.0625L140.633 12.5799L142.151 13.059L140.713 13.6181L141.432 15.0556L139.995 14.4167L139.515 15.934L138.877 14.4965L137.519 15.2153L138.078 13.7778L136.561 13.2986L138.078 12.6597L137.279 11.3021L138.797 11.8611Z" stroke="#BFB7AB" stroke-miterlimit="10"/>
<path d="M137.52 11.4618L133.606 7.54858" stroke="#BFB7AB" stroke-miterlimit="10"/>
<path d="M133.766 7.14924C133.766 7.46869 133.526 7.70827 133.206 7.70827C132.887 7.70827 132.647 7.46869 132.647 7.14924C132.647 6.82979 132.887 6.59021 133.206 6.59021C133.526 6.59021 133.766 6.82979 133.766 7.14924Z" stroke="#BFB7AB" stroke-miterlimit="10"/>
<path d="M140.953 11.382L144.866 7.46875" stroke="#BFB7AB" stroke-miterlimit="10"/>
<path d="M144.547 7.06953C144.547 7.38897 144.786 7.62856 145.106 7.62856C145.425 7.62856 145.665 7.38897 145.665 7.06953C145.665 6.75008 145.425 6.5105 145.106 6.5105C144.786 6.5105 144.547 6.75008 144.547 7.06953Z" stroke="#BFB7AB" stroke-miterlimit="10"/>
<path d="M137.52 15.2153L133.606 19.0487" stroke="#BFB7AB" stroke-miterlimit="10"/>
<path d="M133.766 19.5279C133.766 19.2085 133.526 18.9689 133.206 18.9689C132.887 18.9689 132.647 19.2085 132.647 19.5279C132.647 19.8473 132.887 20.0869 133.206 20.0869C133.526 20.0869 133.766 19.8473 133.766 19.5279Z" stroke="#BFB7AB" stroke-miterlimit="10"/>
<path d="M141.433 14.9757L145.266 18.8889" stroke="#BFB7AB" stroke-miterlimit="10"/>
<path d="M144.946 19.2883C144.946 18.9688 145.186 18.7292 145.505 18.7292C145.825 18.7292 146.064 18.9688 146.064 19.2883C146.064 19.6077 145.825 19.8473 145.505 19.8473C145.186 19.8473 144.946 19.6077 144.946 19.2883Z" stroke="#BFB7AB" stroke-miterlimit="10"/>
<path d="M139.276 10.6633L139.276 5.15283" stroke="#BFB7AB" stroke-miterlimit="10"/>
<path d="M139.836 4.43403C139.836 4.75348 139.596 4.99306 139.277 4.99306C138.957 4.99306 138.718 4.75348 138.718 4.43403C138.718 4.11458 138.957 3.875 139.277 3.875C139.596 3.875 139.836 4.19445 139.836 4.43403Z" stroke="#BFB7AB" stroke-miterlimit="10"/>
<path d="M136.801 7.70837L139.276 10.1042" stroke="#BFB7AB" stroke-miterlimit="10"/>
<path d="M136.801 5.47229L139.276 7.86813" stroke="#BFB7AB" stroke-miterlimit="10"/>
<path d="M141.752 7.70837L139.276 10.1841" stroke="#BFB7AB" stroke-miterlimit="10"/>
<path d="M141.752 5.47229L139.276 7.94799" stroke="#BFB7AB" stroke-miterlimit="10"/>
<path d="M139.516 15.6146L139.516 21.1251" stroke="#BFB7AB" stroke-miterlimit="10"/>
<path d="M140.075 21.764C140.075 21.4445 139.836 21.205 139.516 21.205C139.197 21.205 138.957 21.4445 138.957 21.764C138.957 22.0834 139.197 22.323 139.516 22.323C139.836 22.323 140.075 22.0834 140.075 21.764Z" stroke="#BFB7AB" stroke-miterlimit="10"/>
<path d="M137.04 18.5696L139.436 16.0939" stroke="#BFB7AB" stroke-miterlimit="10"/>
<path d="M137.04 20.8058L139.436 18.3301" stroke="#BFB7AB" stroke-miterlimit="10"/>
<path d="M141.991 18.5696L139.516 16.0939" stroke="#BFB7AB" stroke-miterlimit="10"/>
<path d="M141.991 20.8058L139.516 18.3301" stroke="#BFB7AB" stroke-miterlimit="10"/>
<path d="M141.992 13.0591L147.503 13.0591" stroke="#BFB7AB" stroke-miterlimit="10"/>
<path d="M148.141 12.5001C147.822 12.5001 147.582 12.7397 147.582 13.0592C147.582 13.3786 147.822 13.6182 148.141 13.6182C148.461 13.6182 148.7 13.3786 148.7 13.0592C148.78 12.7397 148.461 12.5001 148.141 12.5001Z" stroke="#BFB7AB" stroke-miterlimit="10"/>
<path d="M144.947 15.4549L142.551 13.0591" stroke="#BFB7AB" stroke-miterlimit="10"/>
<path d="M147.183 15.4549L144.707 13.0591" stroke="#BFB7AB" stroke-miterlimit="10"/>
<path d="M144.946 10.5035L142.471 12.9792" stroke="#BFB7AB" stroke-miterlimit="10"/>
<path d="M147.183 10.5035L144.707 12.9792" stroke="#BFB7AB" stroke-miterlimit="10"/>
<path d="M136.72 13.2188L131.21 13.2188" stroke="#BFB7AB" stroke-miterlimit="10"/>
<path d="M130.571 12.6598C130.891 12.6598 131.13 12.8994 131.13 13.2188C131.13 13.5383 130.891 13.7778 130.571 13.7778C130.252 13.7778 130.012 13.5383 130.012 13.2188C129.933 12.8994 130.252 12.6598 130.571 12.6598Z" stroke="#BFB7AB" stroke-miterlimit="10"/>
<path d="M133.767 15.6945L136.162 13.2987" stroke="#BFB7AB" stroke-miterlimit="10"/>
<path d="M131.53 15.6945L134.006 13.2987" stroke="#BFB7AB" stroke-miterlimit="10"/>
<path d="M133.767 10.743L136.242 13.2187" stroke="#BFB7AB" stroke-miterlimit="10"/>
<path d="M131.53 10.743L134.006 13.2187" stroke="#BFB7AB" stroke-miterlimit="10"/>
<path d="M228.13 73.1185V112.161L229.371 113.408H234.464V116.007H174V113.451H179.093L180.334 112.204V73.1185L179.093 71.8403H174V69.2778H187.692L204.182 106.655H204.803L220.294 69.2778H234.495V71.8403H229.402L228.13 73.1185ZM184.187 76.3169H183.566V112.161L184.807 113.408H200.876L184.187 76.3169ZM221.758 75.6934H221.15L205.268 113.439H220.487L221.727 112.192L221.758 75.6934ZM240.234 113.451H244.056L245.297 112.204V73.1185L244.056 71.8403H240.234V69.2778H274.623L276.534 83.9981L274.623 84.3847L269.542 71.8403H252.971L251.693 73.1185V90.7192H261.247L263.859 81.4419H265.72V102.559H263.859L261.247 93.2755H251.693V112.161L252.971 113.408H271.44L276.534 100.863L278.445 101.25L276.534 116.007H240.234V113.451ZM282.906 113.451H287.999L289.271 112.204V73.1185L287.999 71.8403H282.906V69.2778H303.28C313.789 69.2778 320.794 74.141 320.794 81.4419C320.794 87.5208 315.508 92.3216 307.61 93.3441L324.299 113.439H329.392V116.007H282.906V113.451ZM303.28 91.0684C310.03 91.0684 313.789 87.6143 313.789 81.4731C313.789 75.3318 310.03 71.8715 303.28 71.8715H296.914L295.642 73.1496V91.0684H303.28ZM315.688 113.47L300.097 93.5997H295.642V112.161L296.914 113.408L315.688 113.47ZM332.569 113.47H337.662L338.934 112.223V73.1185L337.662 71.8403H332.569V69.2778H352.943C363.453 69.2778 370.457 74.141 370.457 81.4419C370.457 87.5208 365.171 92.3216 357.273 93.3441L373.962 113.439H379.056V116.007H332.581L332.569 113.47ZM352.955 91.0684C359.705 91.0684 363.465 87.6143 363.465 81.4731C363.465 75.3318 359.705 71.8715 352.955 71.8715H346.59L345.312 73.1496V91.0684H352.955ZM365.363 113.47L349.773 93.5997H345.312V112.161L346.59 113.408L365.363 113.47ZM386.699 113.47H391.793L393.065 112.223V97.4403L379.695 73.1247L378.423 71.8466H373.336V69.2778H419.19V71.8403H414.847L399.448 97.4403V112.161L400.72 113.408H405.814V116.007H386.712L386.699 113.47ZM398.586 93.4064L410.684 73.1185L409.381 71.8403H387.983L386.712 73.1185L397.922 93.4064H398.586ZM127.297 180.473H137.484L138.756 179.226V128.637L137.484 127.359H133.662V124.797H150.221V127.359H146.38L145.108 128.637V177.213L139.376 183.036C136.956 185.467 133.792 187.07 131.094 187.194L126 187.519L127.297 180.473ZM160.73 155.534V128.637L159.409 127.359H154.315V124.797H202.086V127.359H196.987L195.715 128.637V155.516C195.715 166.975 189.92 172.798 178.455 172.798C166.686 172.773 160.699 166.975 160.699 155.516L160.73 155.534ZM192.569 155.534V128.637L191.329 127.359H168.374L167.102 128.637V155.516C167.102 164.35 171.687 168.958 180.13 168.958C188.078 168.958 192.538 164.35 192.538 155.516L192.569 155.534ZM206.901 168.976H210.722L211.994 167.73V128.637L210.722 127.359H206.87V124.797H223.428V127.359H219.588L218.347 128.637V167.037L219.588 168.284H237.418L243.163 156.987L245.074 157.436L243.163 171.527H206.87L206.901 168.976ZM251.483 168.976H256.577L257.817 167.73V152.959L244.441 128.644L243.201 127.366H238.076V124.797H283.93V127.359H279.587L264.183 152.959V167.68L265.461 168.927H270.554V171.527H251.452L251.483 168.976ZM263.327 148.944L275.424 128.637L274.122 127.359H252.724L251.483 128.637L262.687 148.925L263.327 148.944ZM286.827 153.308H305.93V156.189H286.796L286.827 153.308ZM364.173 128.637V167.68L365.445 168.927H370.539V171.527H310.043V168.97H315.13L316.371 167.723V128.637L315.13 127.359H310.043V124.797H323.735L340.226 162.206H340.846L356.338 124.797H370.539V127.359H365.445L364.173 128.637ZM320.23 131.836H319.61V167.68L320.888 168.927H336.931L320.23 131.836ZM357.802 131.212H357.181L341.311 168.958H356.53L357.771 167.711L357.802 131.212ZM373.727 168.97H378.312L393.785 128.637L392.544 127.359H382.99V124.797H399.505L415.555 168.958H420.841V171.527H373.69L373.727 168.97ZM406.845 168.97L408.085 167.723L403.439 154.63H386.973L382.01 167.723L383.288 168.97H406.845ZM402.638 152.012L396.019 132.247H395.398L387.866 151.999L402.638 152.012ZM427.541 171.527H426.27L424.359 152.51L426.586 152.317C429.006 164.668 433.15 170.236 442.381 170.236C448.877 170.236 453.549 166.589 453.549 161.083C453.549 156.607 450.366 153.664 443.87 151.039L437.288 148.458C429.514 145.34 426.27 141.805 426.27 135.658C426.27 128.363 431.853 123.5 440.595 123.5C445.055 123.5 447.729 124.778 453.623 124.778H454.895L456.806 140.59L454.579 140.777C452.413 131.375 448.275 126.062 440.632 126.062C435.346 126.062 431.946 129.261 431.946 133.868C431.946 138.027 434.744 140.845 441.37 143.595L447.99 146.282C456.396 149.736 459.902 153.39 459.902 159.338C459.957 167.424 453.48 172.773 442.381 172.773C436.965 172.773 433.59 171.527 427.541 171.527Z" fill="url(#paint0_linear)"/>
<line x1="0.5" y1="48.8525" x2="121.5" y2="48.8525" stroke="#BFB7AB" stroke-linecap="round" stroke-dasharray="1 2"/>
<line x1="0.5" y1="43.8525" x2="121.5" y2="43.8525" stroke="#BFB7AB" stroke-linecap="round" stroke-dasharray="1 2"/>
<line x1="0.5" y1="38.8525" x2="121.5" y2="38.8525" stroke="#BFB7AB" stroke-linecap="round" stroke-dasharray="1 2"/>
<line x1="473.5" y1="48.8525" x2="594.5" y2="48.8525" stroke="#BFB7AB" stroke-linecap="round" stroke-dasharray="1 2"/>
<line x1="473.5" y1="43.8525" x2="594.5" y2="43.8525" stroke="#BFB7AB" stroke-linecap="round" stroke-dasharray="1 2"/>
<line x1="473.5" y1="38.8525" x2="594.5" y2="38.8525" stroke="#BFB7AB" stroke-linecap="round" stroke-dasharray="1 2"/>
<defs>
<linearGradient id="paint0_linear" x1="173.991" y1="99.9965" x2="767.991" y2="99.9965" gradientUnits="userSpaceOnUse">
<stop stop-color="#C6FAED"/>
<stop offset="0.11" stop-color="#80B6F1"/>
<stop offset="0.21" stop-color="#9DA3E4"/>
<stop offset="0.33" stop-color="#ECDEE5"/>
<stop offset="0.47" stop-color="#FCE2C3"/>
<stop offset="0.57" stop-color="#EFF1E6"/>
<stop offset="0.69" stop-color="#C6FAED"/>
<stop offset="0.78" stop-color="#80B6F1"/>
<stop offset="0.88" stop-color="#9DA3E4"/>
<stop offset="0.96" stop-color="#ECDEE5"/>
</linearGradient>
</defs>
</svg>
