<svg width="402" height="31" viewBox="0 0 402 31" fill="none" xmlns="http://www.w3.org/2000/svg">
<path d="M194.906 3.8087C194.906 5.35833 197.714 6.61741 201.104 6.61741C204.494 6.61741 207.303 5.35833 207.303 3.8087C207.303 2.25907 204.494 1 201.104 1C197.618 1 194.906 2.25907 194.906 3.8087Z" stroke="#B17E6E" stroke-miterlimit="10"/>
<path d="M196.552 22.7916C196.552 22.7916 194.906 24.2443 194.906 27.5373C194.906 29.0869 197.714 30.346 201.104 30.346C204.494 30.346 207.303 29.0869 207.303 27.5373C207.303 24.1475 205.656 22.7916 205.656 22.7916" stroke="#B17E6E" stroke-miterlimit="10"/>
<path d="M194.906 3.80859C194.906 10.2977 192.484 12.5253 192.484 16.4962C192.484 20.564 196.358 23.8569 201.104 23.8569C205.85 23.8569 209.724 20.564 209.724 16.4962C209.724 12.4284 207.303 10.2008 207.303 3.80859" stroke="#B17E6E" stroke-miterlimit="10"/>
<path d="M196.649 24.0507C197.908 24.7287 199.458 25.1161 201.104 25.1161C202.751 25.1161 204.3 24.7287 205.559 24.0507" stroke="#B17E6E" stroke-miterlimit="10"/>
<path d="M193.743 16.6899C193.743 19.886 197.036 22.501 201.007 22.501C205.075 22.501 208.271 19.886 208.271 16.6899C208.271 14.656 205.269 13.0095 201.007 13.0095C196.939 13.0095 193.743 14.5592 193.743 16.6899Z" stroke="#B17E6E" stroke-miterlimit="10"/>
<path d="M195.874 6.61743C196.939 7.39225 198.876 7.87651 201.007 7.87651C203.235 7.87651 205.075 7.39225 206.237 6.61743" stroke="#B17E6E" stroke-miterlimit="10"/>
<path d="M201.007 19.0144C203.234 19.0144 205.171 18.5302 206.334 17.7554" stroke="#B17E6E" stroke-miterlimit="10"/>
<path d="M195.874 17.8522C196.649 18.3364 197.714 18.7238 198.973 18.9175" stroke="#B17E6E" stroke-miterlimit="10"/>
<path d="M176.407 17.0775C176.407 18.4335 175.342 19.5957 173.889 19.5957C172.533 19.5957 171.371 18.5303 171.371 17.0775C171.371 15.7216 173.889 11.8475 173.889 11.8475C173.889 11.8475 176.407 15.7216 176.407 17.0775Z" stroke="#B17E6E" stroke-miterlimit="10"/>
<path d="M225.704 17.0775C225.704 18.4335 226.769 19.5957 228.222 19.5957C229.578 19.5957 230.74 18.5303 230.74 17.0775C230.74 15.7216 228.222 11.8475 228.222 11.8475C228.222 11.8475 225.704 15.7216 225.704 17.0775Z" stroke="#B17E6E" stroke-miterlimit="10"/>
<path d="M75.5843 14.1719C76.456 14.1719 77.1339 14.8498 77.1339 15.7215C77.1339 16.5932 76.456 17.2711 75.5843 17.2711C74.7126 17.2711 74.0347 16.5932 74.0347 15.7215C74.0347 14.8498 74.8095 14.1719 75.5843 14.1719Z" stroke="#B17E6E" stroke-miterlimit="10"/>
<path d="M124.494 14.1719C125.366 14.1719 126.044 14.8498 126.044 15.7215C126.044 16.5932 125.366 17.2711 124.494 17.2711C123.623 17.2711 122.945 16.5932 122.945 15.7215C122.945 14.8498 123.623 14.1719 124.494 14.1719Z" stroke="#B17E6E" stroke-miterlimit="10"/>
<path d="M33.5501 14.1719C34.4218 14.1719 35.0997 14.8498 35.0997 15.7215C35.0997 16.5932 34.4218 17.2711 33.5501 17.2711C32.6784 17.2711 32.0005 16.5932 32.0005 15.7215C32.0005 14.8498 32.6784 14.1719 33.5501 14.1719Z" stroke="#B17E6E" stroke-miterlimit="10"/>
<path d="M326.528 14.1719C325.656 14.1719 324.978 14.8498 324.978 15.7215C324.978 16.5932 325.656 17.2711 326.528 17.2711C327.399 17.2711 328.077 16.5932 328.077 15.7215C328.077 14.8498 327.399 14.1719 326.528 14.1719Z" stroke="#B17E6E" stroke-miterlimit="10"/>
<path d="M277.617 14.1719C276.745 14.1719 276.067 14.8498 276.067 15.7215C276.067 16.5932 276.745 17.2711 277.617 17.2711C278.489 17.2711 279.167 16.5932 279.167 15.7215C279.167 14.8498 278.489 14.1719 277.617 14.1719Z" stroke="#B17E6E" stroke-miterlimit="10"/>
<path d="M368.56 14.1719C367.689 14.1719 367.011 14.8498 367.011 15.7215C367.011 16.5932 367.689 17.2711 368.56 17.2711C369.432 17.2711 370.11 16.5932 370.11 15.7215C370.11 14.8498 369.432 14.1719 368.56 14.1719Z" stroke="#B17E6E" stroke-miterlimit="10"/>
<path d="M265.22 11.9442L265.124 11.7505C264.736 10.2977 263.186 9.52292 261.831 9.91033L257.666 11.0726C258.634 10.104 259.216 8.84496 259.216 7.39218C259.216 4.48663 256.891 2.25903 254.082 2.25903C251.177 2.25903 248.949 4.58348 248.949 7.39218C248.949 8.84496 249.53 10.104 250.499 11.0726L246.334 9.91033C244.881 9.52292 243.429 10.2977 243.041 11.7505L242.944 11.9442C242.557 13.397 243.332 14.8498 244.785 15.2372L249.046 16.4963C249.24 16.7868 249.434 17.3679 249.143 18.3364C248.756 19.9829 247.884 21.5325 247.884 21.5325L246.141 24.7287C245.366 25.9877 245.947 27.7311 247.4 28.5059L247.593 28.6027C249.046 29.3775 250.789 28.9901 251.564 27.7311L252.823 25.5035C252.823 25.5035 253.114 25.0192 253.211 24.8255C253.598 24.2444 253.889 23.6633 254.276 23.2759C254.664 23.6633 254.954 24.1475 255.341 24.8255C255.438 25.0192 255.729 25.5035 255.729 25.5035L256.988 27.7311C257.763 28.9901 259.506 29.3775 260.959 28.6027L261.153 28.5059C262.605 27.7311 263.186 25.9877 262.412 24.7287L260.668 21.5325C260.668 21.5325 259.797 19.8861 259.409 18.3364C259.119 17.1742 259.506 16.4963 259.603 16.3025L263.38 15.2372C264.833 14.8498 265.608 13.397 265.22 11.9442Z" stroke="#B17E6E" stroke-miterlimit="10"/>
<path d="M244.785 15.1405C244.882 14.8499 245.269 15.0436 245.366 14.753C245.463 14.4625 244.978 14.3656 245.075 14.0751C245.172 13.7845 245.559 13.9782 245.656 13.6877C245.753 13.3971 245.269 13.3003 245.366 13.0097C245.463 12.7192 245.85 12.9129 245.947 12.6223C246.044 12.3317 245.559 12.2349 245.656 11.9443C245.753 11.6538 246.141 11.8475 246.237 11.5569C246.334 11.2664 245.85 11.1695 245.947 10.879C246.044 10.5884 246.431 10.7821 246.528 10.4916C246.625 10.201 246.141 10.1042 246.237 9.8136" stroke="#B17E6E" stroke-miterlimit="10"/>
<path d="M244.785 15.1405C244.882 14.8499 245.269 15.0436 245.366 14.753C245.463 14.4625 244.978 14.3656 245.075 14.0751C245.172 13.7845 245.559 13.9782 245.656 13.6877C245.753 13.3971 245.269 13.3003 245.366 13.0097C245.463 12.7192 245.85 12.9129 245.947 12.6223C246.044 12.3317 245.559 12.2349 245.656 11.9443C245.753 11.6538 246.141 11.8475 246.237 11.5569C246.334 11.2664 245.85 11.1695 245.947 10.879C246.044 10.5884 246.431 10.7821 246.528 10.4916C246.625 10.201 246.141 10.1042 246.237 9.8136" stroke="#B17E6E" stroke-miterlimit="10"/>
<path d="M247.206 23.1791C247.496 23.276 247.302 23.7602 247.496 23.8571C247.787 23.954 247.98 23.5665 248.271 23.7602C248.561 23.8571 248.368 24.3414 248.561 24.4382C248.852 24.5351 249.046 24.1477 249.336 24.3414C249.627 24.4382 249.433 24.9225 249.627 25.0193C249.917 25.1162 250.111 24.7288 250.402 24.9225C250.692 25.0193 250.499 25.5036 250.692 25.6004C250.983 25.6973 251.176 25.3099 251.467 25.5036C251.758 25.6004 251.564 26.0847 251.758 26.1815C252.048 26.2784 252.242 25.891 252.532 26.0847" stroke="#B17E6E" stroke-miterlimit="10"/>
<path d="M261.636 23.5664C261.346 23.6633 261.152 23.2759 260.862 23.4696C260.571 23.5664 260.765 24.0507 260.571 24.1476C260.28 24.2444 260.087 23.857 259.796 24.0507C259.506 24.1476 259.699 24.6318 259.506 24.7287C259.215 24.8255 259.021 24.4381 258.731 24.6318C258.44 24.7287 258.634 25.2129 258.44 25.3098C258.15 25.4066 257.956 25.0192 257.665 25.2129C257.375 25.3098 257.569 25.794 257.375 25.8909C257.084 25.9877 256.891 25.6003 256.6 25.794C256.31 25.8909 256.503 26.3751 256.31 26.472" stroke="#B17E6E" stroke-miterlimit="10"/>
<path d="M263.38 15.2373C263.283 14.9467 263.767 14.8498 263.671 14.5593C263.574 14.2687 263.186 14.4624 263.089 14.1719C262.993 13.8813 263.477 13.7845 263.38 13.4939C263.283 13.2034 262.896 13.3971 262.799 13.1065C262.702 12.816 263.186 12.7191 263.089 12.4285C262.993 12.138 262.605 12.3317 262.508 12.0411C262.412 11.7506 262.896 11.6537 262.799 11.3632C262.702 11.0726 262.315 11.2663 262.218 10.9758C262.121 10.6852 262.605 10.5884 262.508 10.2978C262.412 10.0073 262.024 10.201 261.927 9.9104" stroke="#B17E6E" stroke-miterlimit="10"/>
<path d="M255.05 15.7215C255.05 16.2058 254.663 16.5932 254.179 16.5932C253.695 16.5932 253.307 16.2058 253.307 15.7215C253.307 15.2373 253.695 14.8499 254.179 14.8499C254.663 14.8499 255.05 15.2373 255.05 15.7215Z" stroke="#B17E6E" stroke-miterlimit="10"/>
<path d="M255.05 18.5304C255.05 19.0146 254.663 19.402 254.179 19.402C253.695 19.402 253.307 19.0146 253.307 18.5304C253.307 18.0461 253.695 17.6587 254.179 17.6587C254.663 17.6587 255.05 18.0461 255.05 18.5304Z" stroke="#B17E6E" stroke-miterlimit="10"/>
<path d="M255.05 12.816C255.05 13.3003 254.663 13.6877 254.179 13.6877C253.695 13.6877 253.307 13.3003 253.307 12.816C253.307 12.3317 253.695 11.9443 254.179 11.9443C254.663 11.9443 255.05 12.3317 255.05 12.816Z" stroke="#B17E6E" stroke-miterlimit="10"/>
<path d="M256.213 6.42376C256.213 6.71432 255.922 7.00487 255.632 7.00487C255.341 7.00487 255.051 6.71432 255.051 6.42376C255.051 6.13321 255.341 5.84265 255.632 5.84265C255.922 5.84265 256.213 6.13321 256.213 6.42376Z" stroke="#B17E6E" stroke-miterlimit="10"/>
<path d="M252.92 6.42376C252.92 6.71432 252.629 7.00487 252.339 7.00487C252.048 7.00487 251.758 6.71432 251.758 6.42376C251.758 6.13321 252.048 5.84265 252.339 5.84265C252.629 5.84265 252.92 6.13321 252.92 6.42376Z" stroke="#B17E6E" stroke-miterlimit="10"/>
<path d="M255.438 8.55457C255.438 9.03882 254.856 9.42623 254.178 9.42623C253.501 9.42623 252.919 9.03882 252.919 8.55457" stroke="#B17E6E" stroke-miterlimit="10"/>
<path d="M159.264 11.9442L159.167 11.7505C158.78 10.2977 157.23 9.52292 155.874 9.91033L151.71 11.0726C152.678 10.104 153.259 8.84496 153.259 7.39218C153.259 4.58348 150.935 2.25903 148.126 2.25903C145.221 2.25903 142.993 4.58348 142.993 7.39218C142.993 8.84496 143.574 10.104 144.543 11.0726L140.378 9.91033C138.925 9.52292 137.473 10.2977 137.085 11.7505L136.988 11.9442C136.601 13.397 137.376 14.8498 138.829 15.2372L143.09 16.4963C143.284 16.7868 143.477 17.3679 143.187 18.3364C142.799 19.9829 141.928 21.5325 141.928 21.5325L140.184 24.7287C139.41 25.9877 139.991 27.7311 141.444 28.5059L141.637 28.6027C143.09 29.3775 144.833 28.9901 145.608 27.7311L146.867 25.5035C146.867 25.5035 147.158 25.0192 147.255 24.8255C147.642 24.2444 147.933 23.6633 148.32 23.2759C148.707 23.6633 148.998 24.1475 149.385 24.8255C149.482 25.0192 149.773 25.5035 149.773 25.5035L151.032 27.7311C151.807 28.9901 153.55 29.3775 155.003 28.6027L155.197 28.5059C156.649 27.7311 157.23 25.9877 156.456 24.7287L154.712 21.5325C154.712 21.5325 153.841 19.8861 153.453 18.3364C153.163 17.1742 153.55 16.4963 153.647 16.3025L157.424 15.2372C158.78 14.8498 159.652 13.397 159.264 11.9442Z" stroke="#B17E6E" stroke-miterlimit="10"/>
<path d="M138.829 15.1405C138.925 14.8499 139.313 15.0436 139.41 14.753C139.507 14.4625 139.022 14.3656 139.119 14.0751C139.216 13.7845 139.603 13.9782 139.7 13.6877C139.797 13.3971 139.313 13.3003 139.41 13.0097C139.507 12.7192 139.894 12.9129 139.991 12.6223C140.088 12.3317 139.603 12.2349 139.7 11.9443C139.797 11.6538 140.185 11.8475 140.281 11.5569C140.378 11.2664 139.894 11.1695 139.991 10.879C140.088 10.5884 140.475 10.7821 140.572 10.4916C140.669 10.201 140.185 10.1042 140.281 9.8136" stroke="#B17E6E" stroke-miterlimit="10"/>
<path d="M138.829 15.1405C138.925 14.8499 139.313 15.0436 139.41 14.753C139.507 14.4625 139.022 14.3656 139.119 14.0751C139.216 13.7845 139.603 13.9782 139.7 13.6877C139.797 13.3971 139.313 13.3003 139.41 13.0097C139.507 12.7192 139.894 12.9129 139.991 12.6223C140.088 12.3317 139.603 12.2349 139.7 11.9443C139.797 11.6538 140.185 11.8475 140.281 11.5569C140.378 11.2664 139.894 11.1695 139.991 10.879C140.088 10.5884 140.475 10.7821 140.572 10.4916C140.669 10.201 140.185 10.1042 140.281 9.8136" stroke="#B17E6E" stroke-miterlimit="10"/>
<path d="M141.25 23.1791C141.541 23.276 141.347 23.7602 141.541 23.8571C141.831 23.954 142.025 23.5665 142.315 23.7602C142.606 23.954 142.412 24.3414 142.606 24.4382C142.896 24.5351 143.09 24.1477 143.381 24.3414C143.671 24.4382 143.478 24.9225 143.671 25.0193C143.962 25.1162 144.156 24.7288 144.446 24.9225C144.737 25.0193 144.543 25.5036 144.737 25.6004C145.027 25.6973 145.221 25.3099 145.511 25.5036C145.802 25.6004 145.608 26.0847 145.802 26.1815C146.093 26.2784 146.286 25.891 146.577 26.0847" stroke="#B17E6E" stroke-miterlimit="10"/>
<path d="M155.68 23.5664C155.39 23.6633 155.196 23.2759 154.906 23.4696C154.615 23.5664 154.809 24.0507 154.615 24.1476C154.324 24.2444 154.131 23.857 153.84 24.0507C153.55 24.1476 153.743 24.6318 153.55 24.7287C153.259 24.8255 153.065 24.4381 152.775 24.6318C152.484 24.7287 152.678 25.2129 152.484 25.3098C152.194 25.4066 152 25.0192 151.709 25.2129C151.419 25.3098 151.613 25.794 151.419 25.8909C151.128 25.9877 150.935 25.6003 150.644 25.794C150.354 25.8909 150.547 26.3751 150.354 26.472" stroke="#B17E6E" stroke-miterlimit="10"/>
<path d="M157.424 15.2373C157.328 14.9467 157.812 14.8498 157.715 14.5593C157.618 14.2687 157.231 14.4624 157.134 14.1719C157.037 13.8813 157.521 13.7845 157.424 13.4939C157.328 13.2034 156.94 13.3971 156.843 13.1065C156.747 12.816 157.231 12.7191 157.134 12.4285C157.037 12.138 156.65 12.3317 156.553 12.0411C156.456 11.7506 156.94 11.6537 156.843 11.3632C156.747 11.0726 156.359 11.2663 156.262 10.9758C156.165 10.6852 156.65 10.5884 156.553 10.2978C156.456 10.0073 156.069 10.201 155.972 9.9104" stroke="#B17E6E" stroke-miterlimit="10"/>
<path d="M148.998 15.7215C148.998 16.2058 148.611 16.5932 148.127 16.5932C147.642 16.5932 147.255 16.2058 147.255 15.7215C147.255 15.2373 147.642 14.8499 148.127 14.8499C148.611 14.8499 148.998 15.2373 148.998 15.7215Z" stroke="#B17E6E" stroke-miterlimit="10"/>
<path d="M148.998 18.5304C148.998 19.0146 148.611 19.402 148.127 19.402C147.642 19.402 147.255 19.0146 147.255 18.5304C147.255 18.0461 147.642 17.6587 148.127 17.6587C148.611 17.6587 148.998 18.0461 148.998 18.5304Z" stroke="#B17E6E" stroke-miterlimit="10"/>
<path d="M148.998 12.816C148.998 13.3003 148.611 13.6877 148.127 13.6877C147.642 13.6877 147.255 13.3003 147.255 12.816C147.255 12.3317 147.642 11.9443 148.127 11.9443C148.611 11.9443 148.998 12.3317 148.998 12.816Z" stroke="#B17E6E" stroke-miterlimit="10"/>
<path d="M150.257 6.42376C150.257 6.71432 149.967 7.00487 149.676 7.00487C149.386 7.00487 149.095 6.71432 149.095 6.42376C149.095 6.13321 149.386 5.84265 149.676 5.84265C149.967 5.84265 150.257 6.13321 150.257 6.42376Z" stroke="#B17E6E" stroke-miterlimit="10"/>
<path d="M146.867 6.42376C146.867 6.71432 146.577 7.00487 146.286 7.00487C145.996 7.00487 145.705 6.71432 145.705 6.42376C145.705 6.13321 145.996 5.84265 146.286 5.84265C146.577 5.84265 146.867 6.13321 146.867 6.42376Z" stroke="#B17E6E" stroke-miterlimit="10"/>
<path d="M149.482 8.55457C149.482 9.03882 148.901 9.42623 148.223 9.42623C147.545 9.42623 146.964 9.03882 146.964 8.55457" stroke="#B17E6E" stroke-miterlimit="10"/>
<path d="M356.648 10.9757H338.343V26.5689H356.648V10.9757Z" stroke="#B17E6E" stroke-miterlimit="10"/>
<path d="M357.811 8.36072H337.181V10.9757H357.811V8.36072Z" stroke="#B17E6E" stroke-miterlimit="10"/>
<path d="M348.513 8.16711H346.479V26.569H348.513V8.16711Z" stroke="#B17E6E" stroke-miterlimit="10"/>
<path d="M347.061 8.26389C348.029 7.29537 348.32 4.48667 350.16 4.87408C351.128 5.06778 352 6.0363 351.903 6.90796C351.613 8.36074 350.16 7.39222 347.061 8.26389Z" stroke="#B17E6E" stroke-miterlimit="10"/>
<path d="M347.351 8.07019C346.673 7.39222 346.479 4.77723 344.93 5.74574C343.186 6.81111 346.867 8.4576 347.351 8.07019Z" stroke="#B17E6E" stroke-miterlimit="10"/>
<path d="M63.7689 10.9757H45.4639V26.5689H63.7689V10.9757Z" stroke="#B17E6E" stroke-miterlimit="10"/>
<path d="M64.9312 8.36072H44.3018V10.9757H64.9312V8.36072Z" stroke="#B17E6E" stroke-miterlimit="10"/>
<path d="M55.6335 8.16711H53.5996V26.569H55.6335V8.16711Z" stroke="#B17E6E" stroke-miterlimit="10"/>
<path d="M54.1812 8.26389C55.1497 7.29537 55.4402 4.48667 57.2804 4.87408C58.2489 5.06778 59.1206 6.0363 59.0237 6.90796C58.7332 8.36074 57.2804 7.39222 54.1812 8.26389Z" stroke="#B17E6E" stroke-miterlimit="10"/>
<path d="M54.3742 8.07019C53.6962 7.39222 53.5025 4.77723 51.9529 5.74574C50.3064 6.81111 53.9868 8.4576 54.3742 8.07019Z" stroke="#B17E6E" stroke-miterlimit="10"/>
<path d="M302.121 1.58105V29.9586" stroke="#B17E6E" stroke-miterlimit="10"/>
<path d="M302.024 1.38745C301.443 2.35597 300.765 3.32449 299.796 3.9056C299.506 4.0993 299.215 4.19615 298.925 4.19615C298.44 4.19615 297.859 3.9056 297.666 3.42134" stroke="#B17E6E" stroke-miterlimit="10"/>
<path d="M298.246 3.03387C298.246 3.32443 298.053 3.61498 297.665 3.61498C297.375 3.61498 297.084 3.42128 297.084 3.03387C297.084 2.74331 297.278 2.45276 297.665 2.45276C298.053 2.45276 298.246 2.64646 298.246 3.03387Z" stroke="#B17E6E" stroke-miterlimit="10"/>
<path d="M302.121 1.38745C302.702 2.35597 303.38 3.32449 304.348 3.9056C304.639 4.0993 304.929 4.19615 305.22 4.19615C305.704 4.19615 306.285 3.9056 306.479 3.42134" stroke="#B17E6E" stroke-miterlimit="10"/>
<path d="M305.898 3.03387C305.898 3.32443 306.092 3.61498 306.479 3.61498C306.77 3.61498 307.06 3.42128 307.06 3.03387C307.06 2.74331 306.866 2.45276 306.479 2.45276C306.092 2.45276 305.898 2.64646 305.898 3.03387Z" stroke="#B17E6E" stroke-miterlimit="10"/>
<path d="M302.024 5.45508C301.443 6.4236 300.765 7.39211 299.796 7.97323C299.506 8.16693 299.215 8.26378 298.925 8.26378C298.44 8.26378 297.859 7.97323 297.666 7.48897" stroke="#B17E6E" stroke-miterlimit="10"/>
<path d="M298.246 7.00482C298.246 7.29537 298.053 7.58593 297.665 7.58593C297.375 7.58593 297.084 7.39222 297.084 7.00482C297.084 6.71426 297.278 6.42371 297.665 6.42371C298.053 6.52056 298.246 6.71426 298.246 7.00482Z" stroke="#B17E6E" stroke-miterlimit="10"/>
<path d="M302.121 5.45508C302.702 6.4236 303.38 7.39211 304.348 7.97323C304.639 8.16693 304.929 8.26378 305.22 8.26378C305.704 8.26378 306.285 7.97323 306.479 7.48897" stroke="#B17E6E" stroke-miterlimit="10"/>
<path d="M305.898 7.00482C305.898 7.29537 306.092 7.58593 306.479 7.58593C306.77 7.58593 307.06 7.39222 307.06 7.00482C307.06 6.71426 306.866 6.42371 306.479 6.42371C306.092 6.52056 305.898 6.71426 305.898 7.00482Z" stroke="#B17E6E" stroke-miterlimit="10"/>
<path d="M302.023 9.2323C301.345 10.3945 300.571 11.5567 299.408 12.2347C299.118 12.4284 298.73 12.5253 298.343 12.6221C297.762 12.6221 297.084 12.2347 296.89 11.6536" stroke="#B17E6E" stroke-miterlimit="10"/>
<path d="M297.568 11.1695C297.568 11.5569 297.278 11.8475 296.89 11.8475C296.503 11.8475 296.212 11.5569 296.212 11.1695C296.212 10.7821 296.503 10.4916 296.89 10.4916C297.278 10.4916 297.568 10.7821 297.568 11.1695Z" stroke="#B17E6E" stroke-miterlimit="10"/>
<path d="M302.121 9.2323C302.799 10.3945 303.573 11.5567 304.736 12.2347C305.026 12.4284 305.414 12.5253 305.801 12.6221C306.382 12.6221 307.06 12.2347 307.254 11.6536" stroke="#B17E6E" stroke-miterlimit="10"/>
<path d="M306.576 11.1695C306.576 11.5569 306.866 11.8475 307.254 11.8475C307.641 11.8475 307.932 11.5569 307.932 11.1695C307.932 10.7821 307.641 10.4916 307.254 10.4916C306.866 10.4916 306.576 10.7821 306.576 11.1695Z" stroke="#B17E6E" stroke-miterlimit="10"/>
<path d="M302.023 12.9127C301.152 14.3655 300.183 15.8183 298.73 16.6899C298.343 16.8836 297.859 17.0773 297.374 17.0773C296.6 17.0773 295.825 16.5931 295.534 15.9151" stroke="#B17E6E" stroke-miterlimit="10"/>
<path d="M296.503 15.2372C296.503 15.7215 296.116 16.012 295.728 16.012C295.244 16.012 294.954 15.6246 294.954 15.2372C294.954 14.753 295.341 14.4624 295.728 14.4624C296.116 14.4624 296.503 14.753 296.503 15.2372Z" stroke="#B17E6E" stroke-miterlimit="10"/>
<path d="M302.121 12.9127C302.992 14.3655 303.961 15.8183 305.414 16.6899C305.801 16.8836 306.285 17.0773 306.77 17.0773C307.544 17.0773 308.319 16.5931 308.61 15.9151" stroke="#B17E6E" stroke-miterlimit="10"/>
<path d="M307.641 15.2372C307.641 15.7215 308.029 16.012 308.416 16.012C308.9 16.012 309.191 15.6246 309.191 15.2372C309.191 14.753 308.803 14.4624 308.416 14.4624C308.029 14.4624 307.641 14.753 307.641 15.2372Z" stroke="#B17E6E" stroke-miterlimit="10"/>
<path d="M302.023 16.5931C301.055 18.2396 299.892 19.983 298.149 20.9515C297.665 21.242 297.181 21.4357 296.6 21.4357C295.728 21.4357 294.759 20.8546 294.469 20.0798" stroke="#B17E6E" stroke-miterlimit="10"/>
<path d="M295.535 19.3049C295.535 19.7891 295.147 20.2734 294.566 20.2734C294.082 20.2734 293.598 19.886 293.598 19.3049C293.598 18.8206 293.985 18.3364 294.566 18.3364C295.05 18.4332 295.535 18.8206 295.535 19.3049Z" stroke="#B17E6E" stroke-miterlimit="10"/>
<path d="M302.121 16.5931C303.089 18.2396 304.251 19.983 305.995 20.9515C306.479 21.242 306.963 21.4357 307.544 21.4357C308.416 21.4357 309.385 20.8546 309.675 20.0798" stroke="#B17E6E" stroke-miterlimit="10"/>
<path d="M308.61 19.3049C308.61 19.7891 308.997 20.2734 309.578 20.2734C310.063 20.2734 310.547 19.886 310.547 19.3049C310.547 18.8206 310.159 18.3364 309.578 18.3364C309.094 18.4332 308.61 18.8206 308.61 19.3049Z" stroke="#B17E6E" stroke-miterlimit="10"/>
<path d="M302.024 20.2735C300.861 22.2105 299.506 24.2444 297.472 25.4066C296.891 25.6972 296.309 25.9878 295.631 25.9878C294.566 25.9878 293.501 25.3098 293.113 24.3413" stroke="#B17E6E" stroke-miterlimit="10"/>
<path d="M294.372 23.4695C294.372 24.0507 293.888 24.5349 293.307 24.5349C292.726 24.5349 292.145 24.0507 292.145 23.4695C292.145 22.8884 292.629 22.4042 293.21 22.4042C293.791 22.4042 294.372 22.7916 294.372 23.4695Z" stroke="#B17E6E" stroke-miterlimit="10"/>
<path d="M302.121 20.2735C303.283 22.2105 304.639 24.2444 306.673 25.4066C307.254 25.6972 307.835 25.9878 308.513 25.9878C309.578 25.9878 310.644 25.3098 311.031 24.3413" stroke="#B17E6E" stroke-miterlimit="10"/>
<path d="M309.772 23.4696C309.772 24.0507 310.256 24.535 310.837 24.535C311.418 24.535 311.903 24.0507 311.903 23.4696C311.903 22.8885 311.418 22.4042 310.837 22.4042C310.353 22.3074 309.772 22.7917 309.772 23.4696Z" stroke="#B17E6E" stroke-miterlimit="10"/>
<path d="M100.088 1.58105V29.9586" stroke="#B17E6E" stroke-miterlimit="10"/>
<path d="M100.088 1.38745C99.5072 2.35597 98.8292 3.32449 97.8607 3.9056C97.5702 4.0993 97.2796 4.19615 96.9891 4.19615C96.5048 4.19615 95.9237 3.9056 95.73 3.42134" stroke="#B17E6E" stroke-miterlimit="10"/>
<path d="M96.3107 3.03387C96.3107 3.32443 96.117 3.61498 95.7295 3.61498C95.439 3.61498 95.1484 3.42128 95.1484 3.03387C95.1484 2.74331 95.3421 2.45276 95.7295 2.45276C96.0201 2.45276 96.3107 2.64646 96.3107 3.03387Z" stroke="#B17E6E" stroke-miterlimit="10"/>
<path d="M100.088 1.38745C100.669 2.35597 101.347 3.32449 102.316 3.9056C102.607 4.0993 102.897 4.19615 103.188 4.19615C103.672 4.19615 104.253 3.9056 104.447 3.42134" stroke="#B17E6E" stroke-miterlimit="10"/>
<path d="M103.865 3.03387C103.865 3.32443 104.059 3.61498 104.446 3.61498C104.737 3.61498 105.027 3.42128 105.027 3.03387C105.027 2.74331 104.834 2.45276 104.446 2.45276C104.156 2.45276 103.865 2.64646 103.865 3.03387Z" stroke="#B17E6E" stroke-miterlimit="10"/>
<path d="M100.088 5.4552C99.5072 6.42372 98.8292 7.39224 97.8607 7.97335C97.5702 8.16705 97.2796 8.2639 96.9891 8.2639C96.5048 8.2639 95.9237 7.97335 95.73 7.48909" stroke="#B17E6E" stroke-miterlimit="10"/>
<path d="M96.3107 7.00482C96.3107 7.29537 96.117 7.58593 95.7295 7.58593C95.439 7.58593 95.1484 7.39222 95.1484 7.00482C95.1484 6.71426 95.3421 6.42371 95.7295 6.42371C96.0201 6.52056 96.3107 6.71426 96.3107 7.00482Z" stroke="#B17E6E" stroke-miterlimit="10"/>
<path d="M100.088 5.4552C100.669 6.42372 101.347 7.39224 102.316 7.97335C102.607 8.16705 102.897 8.2639 103.188 8.2639C103.672 8.2639 104.253 7.97335 104.447 7.48909" stroke="#B17E6E" stroke-miterlimit="10"/>
<path d="M103.865 7.00482C103.865 7.29537 104.059 7.58593 104.446 7.58593C104.737 7.58593 105.027 7.39222 105.027 7.00482C105.027 6.71426 104.834 6.42371 104.446 6.42371C104.156 6.52056 103.865 6.71426 103.865 7.00482Z" stroke="#B17E6E" stroke-miterlimit="10"/>
<path d="M100.088 9.23254C99.4098 10.3948 98.635 11.557 97.4727 12.235C97.1822 12.4287 96.7948 12.5255 96.4074 12.6224C95.8263 12.6224 95.1483 12.235 94.9546 11.6538" stroke="#B17E6E" stroke-miterlimit="10"/>
<path d="M95.5361 11.1695C95.5361 11.5569 95.2456 11.8475 94.8581 11.8475C94.4707 11.8475 94.1802 11.5569 94.1802 11.1695C94.1802 10.7821 94.4707 10.4916 94.8581 10.4916C95.2456 10.4916 95.5361 10.7821 95.5361 11.1695Z" stroke="#B17E6E" stroke-miterlimit="10"/>
<path d="M100.088 9.23254C100.766 10.3948 101.541 11.557 102.703 12.235C102.994 12.4287 103.381 12.5255 103.769 12.6224C104.35 12.6224 105.028 12.235 105.222 11.6538" stroke="#B17E6E" stroke-miterlimit="10"/>
<path d="M104.543 11.1695C104.543 11.5569 104.834 11.8475 105.221 11.8475C105.608 11.8475 105.899 11.5569 105.899 11.1695C105.899 10.7821 105.608 10.4916 105.221 10.4916C104.834 10.4916 104.543 10.7821 104.543 11.1695Z" stroke="#B17E6E" stroke-miterlimit="10"/>
<path d="M99.9905 12.9127C99.1189 14.3655 98.1503 15.8183 96.6976 16.6899C96.3102 16.8836 95.8259 17.0773 95.3417 17.0773C94.5668 17.0773 93.792 16.5931 93.5015 15.9151" stroke="#B17E6E" stroke-miterlimit="10"/>
<path d="M94.4705 15.2372C94.4705 15.7215 94.0831 16.012 93.6957 16.012C93.2114 16.012 92.9209 15.6246 92.9209 15.2372C92.9209 14.753 93.3083 14.4624 93.6957 14.4624C94.0831 14.4624 94.4705 14.753 94.4705 15.2372Z" stroke="#B17E6E" stroke-miterlimit="10"/>
<path d="M100.088 12.9127C100.96 14.3655 101.929 15.8183 103.381 16.6899C103.769 16.8836 104.253 17.0773 104.737 17.0773C105.512 17.0773 106.287 16.5931 106.577 15.9151" stroke="#B17E6E" stroke-miterlimit="10"/>
<path d="M105.706 15.2372C105.706 15.7215 106.093 16.012 106.48 16.012C106.965 16.012 107.255 15.6246 107.255 15.2372C107.255 14.753 106.868 14.4624 106.48 14.4624C105.996 14.4624 105.706 14.753 105.706 15.2372Z" stroke="#B17E6E" stroke-miterlimit="10"/>
<path d="M99.991 16.5931C99.0224 18.2396 97.8602 19.983 96.1169 20.9515C95.6326 21.242 95.1484 21.4357 94.5673 21.4357C93.6956 21.4357 92.7271 20.8546 92.4365 20.0798" stroke="#B17E6E" stroke-miterlimit="10"/>
<path d="M93.502 19.305C93.502 19.7893 93.1146 20.2735 92.5335 20.2735C92.0492 20.2735 91.5649 19.8861 91.5649 19.305C91.5649 18.8207 91.9523 18.3365 92.5335 18.3365C93.1146 18.4333 93.502 18.8207 93.502 19.305Z" stroke="#B17E6E" stroke-miterlimit="10"/>
<path d="M100.088 16.5931C101.057 18.2396 102.219 19.983 103.962 20.9515C104.447 21.242 104.931 21.4357 105.512 21.4357C106.384 21.4357 107.352 20.8546 107.643 20.0798" stroke="#B17E6E" stroke-miterlimit="10"/>
<path d="M106.674 19.305C106.674 19.7893 107.062 20.2735 107.643 20.2735C108.127 20.2735 108.611 19.8861 108.611 19.305C108.611 18.8207 108.224 18.3365 107.643 18.3365C107.062 18.4333 106.674 18.8207 106.674 19.305Z" stroke="#B17E6E" stroke-miterlimit="10"/>
<path d="M99.9909 20.2735C98.8287 22.2105 97.4728 24.2444 95.4389 25.4066C94.8578 25.6972 94.2767 25.9878 93.5987 25.9878C92.5333 25.9878 91.468 25.3098 91.0806 24.3413" stroke="#B17E6E" stroke-miterlimit="10"/>
<path d="M92.3397 23.4697C92.3397 24.0508 91.8555 24.535 91.2744 24.535C90.6932 24.535 90.209 24.0508 90.209 23.4697C90.209 22.8886 90.6932 22.4043 91.2744 22.4043C91.8555 22.4043 92.3397 22.7917 92.3397 23.4697Z" stroke="#B17E6E" stroke-miterlimit="10"/>
<path d="M100.088 20.2735C101.251 22.2105 102.607 24.2444 104.64 25.4066C105.222 25.6972 105.803 25.9878 106.481 25.9878C107.546 25.9878 108.611 25.3098 108.999 24.3413" stroke="#B17E6E" stroke-miterlimit="10"/>
<path d="M107.836 23.4697C107.836 24.0508 108.321 24.535 108.902 24.535C109.483 24.535 109.967 24.0508 109.967 23.4697C109.967 22.8886 109.483 22.4043 108.902 22.4043C108.321 22.3075 107.836 22.7917 107.836 23.4697Z" stroke="#B17E6E" stroke-miterlimit="10"/>
<path d="M388.416 16.3994L386.576 15.8183L388.319 15.1404L387.447 13.397L389.191 14.1719L389.772 12.3317L390.547 14.075L392.193 13.2033L391.515 14.9467L393.355 15.5278L391.515 16.3026L392.484 17.9491L390.643 17.2711L390.062 19.1113L389.384 17.2711L387.641 18.1428L388.416 16.3994Z" stroke="#B17E6E" stroke-miterlimit="10"/>
<path d="M387.932 17.9491L383.186 22.6948" stroke="#B17E6E" stroke-miterlimit="10"/>
<path d="M382.604 22.4042C382.992 22.4042 383.282 22.6947 383.282 23.0821C383.282 23.4695 382.992 23.7601 382.604 23.7601C382.217 23.7601 381.926 23.4695 381.926 23.0821C381.926 22.7916 382.217 22.4042 382.604 22.4042Z" stroke="#B17E6E" stroke-miterlimit="10"/>
<path d="M387.737 13.6876L383.088 9.0387" stroke="#B17E6E" stroke-miterlimit="10"/>
<path d="M382.604 9.42612C382.992 9.42612 383.282 9.13556 383.282 8.74815C383.282 8.36075 382.992 8.07019 382.604 8.07019C382.217 8.07019 381.926 8.36075 381.926 8.74815C381.926 9.13556 382.217 9.42612 382.604 9.42612Z" stroke="#B17E6E" stroke-miterlimit="10"/>
<path d="M392.387 17.9491L397.132 22.6948" stroke="#B17E6E" stroke-miterlimit="10"/>
<path d="M397.616 22.4042C397.229 22.4042 396.938 22.6947 396.938 23.0821C396.938 23.4695 397.229 23.7601 397.616 23.7601C398.003 23.7601 398.294 23.4695 398.294 23.0821C398.294 22.7916 398.003 22.4042 397.616 22.4042Z" stroke="#B17E6E" stroke-miterlimit="10"/>
<path d="M392.193 13.2035L396.939 8.55457" stroke="#B17E6E" stroke-miterlimit="10"/>
<path d="M397.326 8.94186C396.939 8.94186 396.648 8.65131 396.648 8.2639C396.648 7.87649 396.939 7.58594 397.326 7.58594C397.713 7.58594 398.004 7.87649 398.004 8.2639C398.004 8.65131 397.713 8.94186 397.326 8.94186Z" stroke="#B17E6E" stroke-miterlimit="10"/>
<path d="M386.866 15.8184H380.183" stroke="#B17E6E" stroke-miterlimit="10"/>
<path d="M379.408 15.1404C379.796 15.1404 380.086 15.4309 380.086 15.8183C380.086 16.2058 379.796 16.4963 379.408 16.4963C379.021 16.4963 378.73 16.2058 378.73 15.8183C378.73 15.4309 379.021 15.1404 379.408 15.1404Z" stroke="#B17E6E" stroke-miterlimit="10"/>
<path d="M383.283 18.8208L386.286 15.8184" stroke="#B17E6E" stroke-miterlimit="10"/>
<path d="M380.571 18.8208L383.573 15.8184" stroke="#B17E6E" stroke-miterlimit="10"/>
<path d="M383.283 12.816L386.286 15.8184" stroke="#B17E6E" stroke-miterlimit="10"/>
<path d="M380.571 12.816L383.573 15.7216" stroke="#B17E6E" stroke-miterlimit="10"/>
<path d="M392.871 15.5277H399.553" stroke="#B17E6E" stroke-miterlimit="10"/>
<path d="M400.426 14.8499C400.038 14.8499 399.748 15.1404 399.748 15.5278C399.748 15.9152 400.038 16.2058 400.426 16.2058C400.813 16.2058 401.103 15.9152 401.103 15.5278C401.103 15.1404 400.813 14.8499 400.426 14.8499Z" stroke="#B17E6E" stroke-miterlimit="10"/>
<path d="M396.454 18.5301L393.549 15.5277" stroke="#B17E6E" stroke-miterlimit="10"/>
<path d="M399.166 18.5301L396.261 15.5277" stroke="#B17E6E" stroke-miterlimit="10"/>
<path d="M396.454 12.5254L393.549 15.4309" stroke="#B17E6E" stroke-miterlimit="10"/>
<path d="M399.166 12.5254L396.164 15.4309" stroke="#B17E6E" stroke-miterlimit="10"/>
<path d="M389.771 12.5253V5.84253" stroke="#B17E6E" stroke-miterlimit="10"/>
<path d="M389.094 4.97093C389.094 5.35834 389.384 5.64889 389.772 5.64889C390.159 5.64889 390.45 5.35834 390.45 4.97093C390.45 4.58352 390.159 4.29297 389.772 4.29297C389.384 4.29297 389.094 4.58352 389.094 4.97093Z" stroke="#B17E6E" stroke-miterlimit="10"/>
<path d="M392.773 8.94202L389.771 11.8476" stroke="#B17E6E" stroke-miterlimit="10"/>
<path d="M392.773 6.22998L389.771 9.13554" stroke="#B17E6E" stroke-miterlimit="10"/>
<path d="M386.769 8.94202L389.771 11.9444" stroke="#B17E6E" stroke-miterlimit="10"/>
<path d="M386.769 6.22998L389.771 9.23239" stroke="#B17E6E" stroke-miterlimit="10"/>
<path d="M390.063 18.9175V25.6003" stroke="#B17E6E" stroke-miterlimit="10"/>
<path d="M389.384 26.3752C389.384 25.9878 389.675 25.6972 390.062 25.6972C390.45 25.6972 390.74 25.9878 390.74 26.3752C390.74 26.7626 390.45 27.0531 390.062 27.0531C389.675 27.0531 389.384 26.7626 389.384 26.3752Z" stroke="#B17E6E" stroke-miterlimit="10"/>
<path d="M393.065 22.5012L390.063 19.5956" stroke="#B17E6E" stroke-miterlimit="10"/>
<path d="M393.065 25.213L390.063 22.2106" stroke="#B17E6E" stroke-miterlimit="10"/>
<path d="M387.06 22.5011L390.062 19.4987" stroke="#B17E6E" stroke-miterlimit="10"/>
<path d="M386.963 25.213L389.965 22.2106" stroke="#B17E6E" stroke-miterlimit="10"/>
<path d="M11.5649 14.1719L12.146 12.3317L12.824 14.1719L14.5673 13.2033L13.7925 15.0435L15.6327 15.6246L13.8893 16.3026L14.761 18.0459L13.0177 17.2711L12.4365 19.1113L11.6617 17.368L10.0152 18.2396L10.6932 16.4963L8.85303 15.9152L10.6932 15.1404L9.72469 13.4939L11.5649 14.1719Z" stroke="#B17E6E" stroke-miterlimit="10"/>
<path d="M10.0158 13.6875L5.27002 8.94177" stroke="#B17E6E" stroke-miterlimit="10"/>
<path d="M5.46335 8.45763C5.46335 8.84503 5.17279 9.13559 4.78539 9.13559C4.39798 9.13559 4.10742 8.84503 4.10742 8.45763C4.10742 8.07022 4.39798 7.77966 4.78539 7.77966C5.17279 7.77966 5.46335 8.07022 5.46335 8.45763Z" stroke="#B17E6E" stroke-miterlimit="10"/>
<path d="M14.1802 13.5907L18.9259 8.84497" stroke="#B17E6E" stroke-miterlimit="10"/>
<path d="M18.5386 8.36082C18.5386 8.74823 18.8291 9.03879 19.2165 9.03879C19.6039 9.03879 19.8945 8.74823 19.8945 8.36082C19.8945 7.97342 19.6039 7.68286 19.2165 7.68286C18.8291 7.68286 18.5386 7.97342 18.5386 8.36082Z" stroke="#B17E6E" stroke-miterlimit="10"/>
<path d="M10.0158 18.2396L5.27002 22.8885" stroke="#B17E6E" stroke-miterlimit="10"/>
<path d="M5.46335 23.4696C5.46335 23.0822 5.17279 22.7917 4.78539 22.7917C4.39798 22.7917 4.10742 23.0822 4.10742 23.4696C4.10742 23.8571 4.39798 24.1476 4.78539 24.1476C5.17279 24.1476 5.46335 23.8571 5.46335 23.4696Z" stroke="#B17E6E" stroke-miterlimit="10"/>
<path d="M14.7612 17.9491L19.4101 22.6948" stroke="#B17E6E" stroke-miterlimit="10"/>
<path d="M19.0225 23.1791C19.0225 22.7917 19.313 22.5011 19.7004 22.5011C20.0878 22.5011 20.3784 22.7917 20.3784 23.1791C20.3784 23.5665 20.0878 23.857 19.7004 23.857C19.313 23.857 19.0225 23.5665 19.0225 23.1791Z" stroke="#B17E6E" stroke-miterlimit="10"/>
<path d="M12.1465 12.7192V6.03638" stroke="#B17E6E" stroke-miterlimit="10"/>
<path d="M12.8247 5.16466C12.8247 5.55206 12.5341 5.84262 12.1467 5.84262C11.7593 5.84262 11.4688 5.55206 11.4688 5.16466C11.4688 4.77725 11.7593 4.48669 12.1467 4.48669C12.5341 4.48669 12.8247 4.8741 12.8247 5.16466Z" stroke="#B17E6E" stroke-miterlimit="10"/>
<path d="M9.14404 9.13562L12.1464 12.0412" stroke="#B17E6E" stroke-miterlimit="10"/>
<path d="M9.14404 6.42383L12.1464 9.32938" stroke="#B17E6E" stroke-miterlimit="10"/>
<path d="M15.1489 9.13562L12.1465 12.138" stroke="#B17E6E" stroke-miterlimit="10"/>
<path d="M15.1489 6.42383L12.1465 9.42623" stroke="#B17E6E" stroke-miterlimit="10"/>
<path d="M12.4365 18.7238V25.4066" stroke="#B17E6E" stroke-miterlimit="10"/>
<path d="M13.1152 26.1814C13.1152 25.794 12.8246 25.5035 12.4372 25.5035C12.0498 25.5035 11.7593 25.794 11.7593 26.1814C11.7593 26.5689 12.0498 26.8594 12.4372 26.8594C12.8246 26.8594 13.1152 26.5689 13.1152 26.1814Z" stroke="#B17E6E" stroke-miterlimit="10"/>
<path d="M9.43457 22.3075L12.3401 19.3051" stroke="#B17E6E" stroke-miterlimit="10"/>
<path d="M9.43457 25.0193L12.3401 22.0169" stroke="#B17E6E" stroke-miterlimit="10"/>
<path d="M15.4389 22.3075L12.4365 19.3051" stroke="#B17E6E" stroke-miterlimit="10"/>
<path d="M15.4389 25.0193L12.4365 22.0169" stroke="#B17E6E" stroke-miterlimit="10"/>
<path d="M15.4395 15.6246H22.1222" stroke="#B17E6E" stroke-miterlimit="10"/>
<path d="M22.8972 14.9468C22.5098 14.9468 22.2192 15.2373 22.2192 15.6247C22.2192 16.0121 22.5098 16.3027 22.8972 16.3027C23.2846 16.3027 23.5752 16.0121 23.5752 15.6247C23.672 15.2373 23.2846 14.9468 22.8972 14.9468Z" stroke="#B17E6E" stroke-miterlimit="10"/>
<path d="M19.0227 18.5302L16.1172 15.6246" stroke="#B17E6E" stroke-miterlimit="10"/>
<path d="M21.7348 18.5302L18.7324 15.6246" stroke="#B17E6E" stroke-miterlimit="10"/>
<path d="M19.0229 12.5254L16.0205 15.5278" stroke="#B17E6E" stroke-miterlimit="10"/>
<path d="M21.7348 12.5254L18.7324 15.5278" stroke="#B17E6E" stroke-miterlimit="10"/>
<path d="M9.04703 15.8184H2.36426" stroke="#B17E6E" stroke-miterlimit="10"/>
<path d="M1.5895 15.1404C1.97691 15.1404 2.26746 15.4309 2.26746 15.8183C2.26746 16.2058 1.97691 16.4963 1.5895 16.4963C1.20209 16.4963 0.911537 16.2058 0.911537 15.8183C0.814685 15.4309 1.20209 15.1404 1.5895 15.1404Z" stroke="#B17E6E" stroke-miterlimit="10"/>
<path d="M5.46387 18.8208L8.36942 15.9153" stroke="#B17E6E" stroke-miterlimit="10"/>
<path d="M2.75195 18.8208L5.75436 15.9153" stroke="#B17E6E" stroke-miterlimit="10"/>
<path d="M5.46387 12.8159L8.46627 15.8183" stroke="#B17E6E" stroke-miterlimit="10"/>
<path d="M2.75195 12.8159L5.75436 15.8183" stroke="#B17E6E" stroke-miterlimit="10"/>
</svg>
