<svg width="684" height="114" fill="none" xmlns="http://www.w3.org/2000/svg"><path d="M175.8 49h8.8v-2.1h-6.2c0-.4.3-.6 1.2-1.1l2.1-1c1.4-.7 2.7-1.6 2.7-3.4 0-1.9-1.5-3.1-4-3.1-2.7 0-4.4 1.3-4.4 3.7h2.3c0-1.1.8-1.6 1.9-1.6.9 0 1.6.3 1.6 1.2 0 .6-.4 1.1-1.8 1.7l-2.1 1c-1.2.6-2.2 1.6-2.2 3.2V49h.1Zm16.1.2c3.2 0 4.6-2.2 4.6-5.5s-1.4-5.3-4.6-5.3c-3.2 0-4.6 2.1-4.6 5.5.1 3.3 1.5 5.3 4.6 5.3Zm0-2.1c-1.7 0-2-1.4-2-3.3s.3-3.3 2-3.3 2 1.3 2 3.3c0 1.9-.2 3.3-2 3.3Zm7.5 1.9h8.8v-2.1H202c0-.4.3-.6 1.2-1.1l2.1-1c1.4-.7 2.7-1.6 2.7-3.4 0-1.9-1.5-3.1-4-3.1-2.7 0-4.4 1.3-4.4 3.7h2.3c0-1.1.8-1.6 1.9-1.6.9 0 1.6.3 1.6 1.2 0 .6-.4 1.1-1.8 1.7l-2.1 1c-1.2.6-2.2 1.6-2.2 3.2V49h.1Zm12.4 0h7.6v-2.1H217v-8.4h-1.8c-.4.8-1.2 1.1-2.3 1.1h-1.2v2.2h.7c1.3 0 1.8-.4 2.1-.7v5.8h-2.8V49h.1Zm23.5 0h2.5v-3.7h4.6v-2.1h-4.6v-2.6h5.3v-2.1h-7.8V49Zm11.8 0h7.8v-2.1h-5.3v-8.3h-2.5V49Zm10.6 0h2.6l.7-2.1h3.3l.7 2.1h2.6L264 38.6h-2.6L257.7 49Zm4.1-4.6.9-3.2.9 3.2.1.5h-2.1l.2-.5Zm11.5 4.6h2.4l3.9-10.4h-2.7l-1.5 4.8-.8 2.8-.8-2.8-1.6-4.8h-2.8l3.9 10.4Zm9.2 0h7.6v-2.1h-2.6v-6.2h2.6v-2.1h-7.6v2.1h2.5v6.2h-2.5V49Zm10.6 0h2.6l.7-2.1h3.3l.7 2.1h2.6l-3.7-10.4h-2.6L293.1 49Zm4-4.6.9-3.2.9 3.2.1.5h-2l.1-.5Zm9 4.6h2.5v-3.4h1.1l2.1 3.4h3l-2.8-3.9c1.1-.5 2-1.4 2-3 0-2.5-2.1-3.5-4.6-3.5H306V49h.1Zm2.5-8.4h.9c1.3 0 2 .4 2 1.5 0 1-.7 1.5-2 1.5h-.9v-3Zm19.9 8.4h2.6l.7-2.1h3.3l.7 2.1h2.6l-3.7-10.4h-2.6L328.5 49Zm4-4.6.9-3.2.9 3.2.1.5h-2.1l.2-.5Zm9 4.6h3.4c3.5 0 4.9-2 4.9-5.3 0-3.4-1.5-5.1-4.9-5.1h-3.4V49Zm2.5-8.3h.9c1.9 0 2.3 1 2.3 3.1s-.5 3.1-2.3 3.1h-.9v-6.2Zm11.8 8.3h2.4l3.9-10.4h-2.7l-1.5 4.8-.8 2.8-.8-2.8-1.6-4.8H352l3.8 10.4Zm9.2 0h7.8v-2.1h-5.3v-2.2h4.4v-2.1h-4.4v-2h5.3v-2.1H365V49Zm11.8 0h2.2v-4.5l-.3-3.3 2.6 7.8h3.1V38.6h-2.2v4.5l.3 3.3-2.6-7.8h-3.1V49Zm14.3 0h2.5v-8.3h3.4v-2.1h-9.3v2.1h3.4V49Zm25 .2c2.8 0 4.2-1.4 4.4-4.2H418c-.1 1.4-.6 2-1.9 2-1.8 0-2.1-1.2-2.1-3.3 0-2 .3-3.3 2.1-3.3 1.2 0 1.8.6 1.9 2h2.6c-.1-2.8-1.5-4.2-4.3-4.2-3.5 0-4.8 2.1-4.8 5.5-.1 3.5 1.2 5.5 4.6 5.5Zm6.7-.2h2.6l.7-2.1h3.3l.7 2.1h2.6L429 38.6h-2.6L422.8 49Zm4.1-4.6.9-3.2.9 3.2.1.5h-2.1l.2-.5Zm8.9 4.6h7.8v-2.1h-5.3v-8.3h-2.5V49Zm11.8 0h7.8v-2.1h-5.3v-2.2h4.4v-2.1h-4.4v-2h5.3v-2.1h-7.8V49Zm11.8 0h2.2v-4.5l-.3-3.3 2.6 7.8h3.1V38.6h-2.2v4.5l.3 3.3-2.6-7.8h-3.1V49Zm11.8 0h3.4c3.5 0 4.9-2 4.9-5.3 0-3.4-1.5-5.1-4.9-5.1h-3.4V49Zm2.5-8.3h.9c1.9 0 2.3 1 2.3 3.1s-.5 3.1-2.3 3.1h-.9v-6.2Zm8.1 8.3h2.6l.7-2.1h3.3l.7 2.1h2.6L488 38.6h-2.6L481.8 49Zm4-4.6.9-3.2.9 3.2.1.5h-2.1l.2-.5Zm9 4.6h2.5v-3.4h1.1l2.1 3.4h3l-2.8-3.9c1.1-.5 2-1.4 2-3 0-2.5-2.1-3.5-4.6-3.5h-3.4V49h.1Zm2.5-8.4h.9c1.3 0 2 .4 2 1.5 0 1-.7 1.5-2 1.5h-.9v-3Z" fill="#E1DDD6"/><path d="M334.3 3c0 1.3 2.3 2.3 5.1 2.3s5.1-1 5.1-2.3c0-1.3-2.3-2.3-5.1-2.3-2.9-.1-5.1 1-5.1 2.3ZM335.7 18.6s-1.4 1.2-1.4 3.9c0 1.3 2.3 2.3 5.1 2.3s5.1-1 5.1-2.3c0-2.8-1.4-3.9-1.4-3.9" stroke="#BFB7AB" stroke-miterlimit="10"/><path d="M334.3 3c0 5.4-2 7.2-2 10.5 0 3.4 3.2 6.1 7.1 6.1 3.9 0 7.1-2.7 7.1-6.1 0-3.4-2-5.2-2-10.5M335.7 19.7c1 .6 2.3.9 3.7.9 1.4 0 2.6-.3 3.7-.9" stroke="#BFB7AB" stroke-miterlimit="10"/><path d="M333.3 13.6c0 2.6 2.7 4.8 6 4.8 3.4 0 6-2.2 6-4.8 0-1.7-2.5-3-6-3-3.3 0-6 1.2-6 3ZM335.1 5.3c.9.6 2.5 1 4.2 1 1.8 0 3.4-.4 4.3-1" stroke="#BFB7AB" stroke-miterlimit="10"/><path d="M339.3 15.5c1.8 0 3.4-.4 4.4-1M335.1 14.5c.6.4 1.5.7 2.6.9M319.1 13.9c0 1.1-.9 2.1-2.1 2.1-1.1 0-2.1-.9-2.1-2.1 0-1.1 2.1-4.3 2.1-4.3s2.1 3.2 2.1 4.3ZM359.7 13.9c0 1.1.9 2.1 2.1 2.1 1.1 0 2.1-.9 2.1-2.1 0-1.1-2.1-4.3-2.1-4.3s-2.1 3.2-2.1 4.3ZM235.9 11.5c.7 0 1.3.6 1.3 1.3 0 .7-.6 1.3-1.3 1.3-.7 0-1.3-.6-1.3-1.3 0-.7.7-1.3 1.3-1.3ZM276.2 11.5c.7 0 1.3.6 1.3 1.3 0 .7-.6 1.3-1.3 1.3-.7 0-1.3-.6-1.3-1.3.1-.7.6-1.3 1.3-1.3ZM201.3 11.5c.7 0 1.3.6 1.3 1.3 0 .7-.6 1.3-1.3 1.3-.7 0-1.3-.6-1.3-1.3 0-.7.5-1.3 1.3-1.3ZM442.8 11.5c-.7 0-1.3.6-1.3 1.3 0 .7.6 1.3 1.3 1.3.7 0 1.3-.6 1.3-1.3 0-.7-.5-1.3-1.3-1.3ZM402.5 11.5c-.7 0-1.3.6-1.3 1.3 0 .7.6 1.3 1.3 1.3.7 0 1.3-.6 1.3-1.3 0-.7-.6-1.3-1.3-1.3ZM477.5 11.5c-.7 0-1.3.6-1.3 1.3 0 .7.6 1.3 1.3 1.3.7 0 1.3-.6 1.3-1.3 0-.7-.6-1.3-1.3-1.3ZM392.3 9.7l-.1-.2c-.3-1.2-1.6-1.8-2.7-1.5l-3.4 1a4.16 4.16 0 0 0-2.9-7.2 4.16 4.16 0 0 0-2.9 7.2l-3.4-1c-1.2-.3-2.4.3-2.7 1.5l-.1.2c-.3 1.2.3 2.4 1.5 2.7l3.5 1c.2.2.3.7.1 1.5-.3 1.4-1 2.6-1 2.6l-1.4 2.6c-.6 1-.2 2.5 1 3.1l.2.1c1.2.6 2.6.3 3.3-.7l1-1.8.3-.6c.3-.5.6-1 .9-1.3.3.3.6.7.9 1.3l.3.6 1 1.8c.6 1 2.1 1.4 3.3.7l.2-.1c1.2-.6 1.7-2.1 1-3.1l-1.4-2.6s-.7-1.4-1-2.6c-.2-1 .1-1.5.2-1.7l3.1-.9c.9-.2 1.5-1.4 1.2-2.6Z" stroke="#BFB7AB" stroke-miterlimit="10"/><path d="M375.4 12.3c.1-.2.4-.1.5-.3.1-.2-.3-.3-.2-.6.1-.2.4-.1.5-.3.1-.2-.3-.3-.2-.6.1-.2.4-.1.5-.3.1-.2-.3-.3-.2-.6.1-.2.4-.1.5-.3.1-.2-.3-.3-.2-.6.1-.2.4-.1.5-.3.1-.2-.3-.3-.2-.6" stroke="#BFB7AB" stroke-miterlimit="10"/><path d="M375.4 12.3c.1-.2.4-.1.5-.3.1-.2-.3-.3-.2-.6.1-.2.4-.1.5-.3.1-.2-.3-.3-.2-.6.1-.2.4-.1.5-.3.1-.2-.3-.3-.2-.6.1-.2.4-.1.5-.3.1-.2-.3-.3-.2-.6.1-.2.4-.1.5-.3.1-.2-.3-.3-.2-.6M377.4 18.9c.2.1.1.5.2.6.2.1.4-.2.6-.1.2.1.1.5.2.6.2.1.4-.2.6-.1.2.1.1.5.2.6.2.1.4-.2.6-.1.2.1.1.5.2.6.2.1.4-.2.6-.1.2.1.1.5.2.6.2.1.4-.2.6-.1M389.3 19.3c-.2.1-.4-.2-.6-.1-.2.1-.1.5-.2.6-.2.1-.4-.2-.6-.1-.2.1-.1.5-.2.6-.2.1-.4-.2-.6-.1-.2.1-.1.5-.2.6-.2.1-.4-.2-.6-.1-.2.1-.1.5-.2.6-.2.1-.4-.2-.6-.1-.2.1-.1.5-.2.6M390.8 12.4c-.1-.2.3-.3.2-.6-.1-.2-.4-.1-.5-.3-.1-.2.3-.3.2-.6-.1-.2-.4-.1-.5-.3-.1-.2.3-.3.2-.6-.1-.2-.4-.1-.5-.3-.1-.2.3-.3.2-.6-.1-.2-.4-.1-.5-.3-.1-.2.3-.3.2-.6-.1-.2-.4-.1-.5-.3M383.9 12.8c0 .4-.3.7-.7.7-.4 0-.7-.3-.7-.7 0-.4.3-.7.7-.7.4 0 .7.3.7.7ZM383.9 15.1c0 .4-.3.7-.7.7-.4 0-.7-.3-.7-.7 0-.4.3-.7.7-.7.4 0 .7.3.7.7ZM383.9 10.4c0 .4-.3.7-.7.7-.4 0-.7-.3-.7-.7 0-.4.3-.7.7-.7.4 0 .7.3.7.7ZM384.9 5.1c0 .2-.2.5-.5.5s-.5-.2-.5-.5c0-.2.2-.5.5-.5s.5.3.5.5ZM382.1 5.1c0 .2-.2.5-.5.5-.2 0-.5-.2-.5-.5 0-.2.2-.5.5-.5s.5.3.5.5ZM384.2 6.9c0 .4-.5.7-1 .7-.6 0-1-.3-1-.7M304.9 9.7l-.1-.2c-.3-1.2-1.6-1.8-2.7-1.5l-3.4 1c.8-.8 1.3-1.8 1.3-3 0-2.3-1.9-4.2-4.2-4.2a4.16 4.16 0 0 0-2.9 7.2l-3.4-1c-1.2-.3-2.4.3-2.7 1.5l-.1.2c-.3 1.2.3 2.4 1.5 2.7l3.5 1c.2.2.3.7.1 1.5-.3 1.4-1 2.6-1 2.6l-1.4 2.6c-.6 1-.2 2.5 1 3.1l.2.1c1.2.6 2.6.3 3.3-.7l1-1.8.3-.6c.3-.5.6-1 .9-1.3.3.3.6.7.9 1.3l.3.6 1 1.8c.6 1 2.1 1.4 3.3.7l.2-.1c1.2-.6 1.7-2.1 1-3.1l-1.4-2.6s-.7-1.4-1-2.6c-.2-1 .1-1.5.2-1.7l3.1-.9c.8-.2 1.5-1.4 1.2-2.6Z" stroke="#BFB7AB" stroke-miterlimit="10"/><path d="M288.1 12.3c.1-.2.4-.1.5-.3.1-.2-.3-.3-.2-.6.1-.2.4-.1.5-.3.1-.2-.3-.3-.2-.6.1-.2.4-.1.5-.3.1-.2-.3-.3-.2-.6.1-.2.4-.1.5-.3.1-.2-.3-.3-.2-.6.1-.2.4-.1.5-.3.1-.2-.3-.3-.2-.6" stroke="#BFB7AB" stroke-miterlimit="10"/><path d="M288.1 12.3c.1-.2.4-.1.5-.3.1-.2-.3-.3-.2-.6.1-.2.4-.1.5-.3.1-.2-.3-.3-.2-.6.1-.2.4-.1.5-.3.1-.2-.3-.3-.2-.6.1-.2.4-.1.5-.3.1-.2-.3-.3-.2-.6.1-.2.4-.1.5-.3.1-.2-.3-.3-.2-.6M290.1 18.9c.2.1.1.5.2.6.2.1.4-.2.6-.1.2.2.1.5.2.6.2.1.4-.2.6-.1.2.1.1.5.2.6.2.1.4-.2.6-.1.2.1.1.5.2.6.2.1.4-.2.6-.1.2.1.1.5.2.6.2.1.4-.2.6-.1M302 19.3c-.2.1-.4-.2-.6-.1-.2.1-.1.5-.2.6-.2.1-.4-.2-.6-.1-.2.1-.1.5-.2.6-.2.1-.4-.2-.6-.1-.2.1-.1.5-.2.6-.2.1-.4-.2-.6-.1-.2.1-.1.5-.2.6-.2.1-.4-.2-.6-.1-.2.1-.1.5-.2.6M303.4 12.4c-.1-.2.3-.3.2-.6-.1-.2-.4-.1-.5-.3-.1-.2.3-.3.2-.6-.1-.3-.4-.1-.5-.3-.1-.2.3-.3.2-.6-.1-.2-.4-.1-.5-.3-.1-.2.3-.3.2-.6-.1-.2-.4-.1-.5-.3-.1-.2.3-.3.2-.6-.1-.2-.4-.1-.5-.3M296.5 12.8c0 .4-.3.7-.7.7-.4 0-.7-.3-.7-.7 0-.4.3-.7.7-.7.3 0 .7.3.7.7ZM296.5 15.1c0 .4-.3.7-.7.7-.4 0-.7-.3-.7-.7 0-.4.3-.7.7-.7.3 0 .7.3.7.7ZM296.5 10.4c0 .4-.3.7-.7.7-.4 0-.7-.3-.7-.7 0-.4.3-.7.7-.7.3 0 .7.3.7.7ZM297.5 5.1c0 .2-.2.5-.5.5-.2 0-.5-.2-.5-.5 0-.2.2-.5.5-.5s.5.3.5.5ZM294.7 5.1c0 .2-.2.5-.5.5-.2 0-.5-.2-.5-.5 0-.2.2-.5.5-.5s.5.3.5.5ZM296.9 6.9c0 .4-.5.7-1 .7s-1-.3-1-.7M467.7 8.9h-15.1v12.9h15.1V8.9ZM468.6 6.7h-17v2.2h17V6.7Z" stroke="#BFB7AB" stroke-miterlimit="10"/><path d="M461 6.6h-1.7v15.2h1.7V6.6ZM459.8 6.6c.8-.8 1-3.1 2.6-2.8.8.2 1.5 1 1.4 1.7-.3 1.2-1.5.4-4 1.1Z" stroke="#BFB7AB" stroke-miterlimit="10"/><path d="M460 6.5c-.6-.6-.7-2.7-2-1.9-1.4.8 1.6 2.2 2 1.9ZM226.2 8.9h-15.1v12.9h15.1V8.9ZM227.1 6.7h-17v2.2h17V6.7Z" stroke="#BFB7AB" stroke-miterlimit="10"/><path d="M219.5 6.6h-1.7v15.2h1.7V6.6ZM218.3 6.6c.8-.8 1-3.1 2.6-2.8.8.2 1.5 1 1.4 1.7-.3 1.2-1.5.4-4 1.1Z" stroke="#BFB7AB" stroke-miterlimit="10"/><path d="M218.4 6.5c-.6-.6-.7-2.7-2-1.9-1.3.8 1.7 2.2 2 1.9ZM422.7 1.1v23.4M422.6 1c-.5.8-1 1.6-1.8 2.1-.2.2-.5.2-.7.2-.4 0-.9-.2-1-.6" stroke="#BFB7AB" stroke-miterlimit="10"/><path d="M419.5 2.3c0 .2-.2.5-.5.5-.2 0-.5-.2-.5-.5 0-.2.2-.5.5-.5.4 0 .5.2.5.5ZM422.7 1c.5.8 1 1.6 1.8 2.1.2.2.5.2.7.2.4 0 .9-.2 1-.6" stroke="#BFB7AB" stroke-miterlimit="10"/><path d="M425.8 2.3c0 .2.2.5.5.5.2 0 .5-.2.5-.5 0-.2-.2-.5-.5-.5s-.5.2-.5.5ZM422.6 4.3c-.5.8-1 1.6-1.8 2.1-.2.2-.5.2-.7.2-.4 0-.9-.2-1-.6" stroke="#BFB7AB" stroke-miterlimit="10"/><path d="M419.5 5.6c0 .2-.2.5-.5.5-.2 0-.5-.2-.5-.5 0-.2.2-.5.5-.5.4.1.5.3.5.5ZM422.7 4.3c.5.8 1 1.6 1.8 2.1.2.2.5.2.7.2.4 0 .9-.2 1-.6" stroke="#BFB7AB" stroke-miterlimit="10"/><path d="M425.8 5.6c0 .2.2.5.5.5.2 0 .5-.2.5-.5 0-.2-.2-.5-.5-.5-.3.1-.5.3-.5.5ZM422.6 7.4c-.6 1-1.2 1.9-2.2 2.5-.2.2-.6.2-.9.3-.5 0-1-.3-1.2-.8" stroke="#BFB7AB" stroke-miterlimit="10"/><path d="M419 9c0 .3-.2.6-.6.6-.3 0-.6-.2-.6-.6 0-.3.2-.6.6-.6.3.1.6.3.6.6ZM422.7 7.4c.6 1 1.2 1.9 2.2 2.5.2.2.6.2.9.3.5 0 1-.3 1.2-.8" stroke="#BFB7AB" stroke-miterlimit="10"/><path d="M426.4 9c0 .3.2.6.6.6.3 0 .6-.2.6-.6 0-.3-.2-.6-.6-.6-.4.1-.6.3-.6.6ZM422.6 10.5c-.7 1.2-1.5 2.4-2.7 3.1-.3.2-.7.3-1.1.3-.6 0-1.3-.4-1.5-1" stroke="#BFB7AB" stroke-miterlimit="10"/><path d="M418.1 12.4c0 .4-.3.6-.6.6-.4 0-.6-.3-.6-.6 0-.4.3-.6.6-.6.3-.1.6.2.6.6ZM422.7 10.5c.7 1.2 1.5 2.4 2.7 3.1.3.2.7.3 1.1.3.6 0 1.3-.4 1.5-1" stroke="#BFB7AB" stroke-miterlimit="10"/><path d="M427.3 12.4c0 .4.3.6.6.6.4 0 .6-.3.6-.6 0-.4-.3-.6-.6-.6-.3-.1-.6.2-.6.6ZM422.6 13.5c-.8 1.4-1.8 2.8-3.2 3.6-.4.2-.8.4-1.3.4-.7 0-1.5-.5-1.8-1.1" stroke="#BFB7AB" stroke-miterlimit="10"/><path d="M417.3 15.7c0 .4-.3.8-.8.8-.4 0-.8-.3-.8-.8 0-.4.3-.8.8-.8.4.1.8.4.8.8ZM422.7 13.5c.8 1.4 1.8 2.8 3.2 3.6.4.2.8.4 1.3.4.7 0 1.5-.5 1.8-1.1" stroke="#BFB7AB" stroke-miterlimit="10"/><path d="M428.1 15.7c0 .4.3.8.8.8.4 0 .8-.3.8-.8 0-.4-.3-.8-.8-.8-.4.1-.8.4-.8.8ZM422.6 16.5c-1 1.6-2.1 3.3-3.8 4.2-.5.2-1 .5-1.5.5-.9 0-1.8-.6-2.1-1.4" stroke="#BFB7AB" stroke-miterlimit="10"/><path d="M416.3 19.2c0 .5-.4.9-.9.9s-1-.4-1-.9.4-.9.9-.9 1 .3 1 .9ZM422.7 16.5c1 1.6 2.1 3.3 3.8 4.2.5.2 1 .5 1.5.5.9 0 1.8-.6 2.1-1.4" stroke="#BFB7AB" stroke-miterlimit="10"/><path d="M429 19.2c0 .5.4.9.9.9s.9-.4.9-.9-.4-.9-.9-.9c-.4-.1-.9.3-.9.9ZM256.1 1.1v23.4M256.1 1c-.5.8-1 1.6-1.8 2.1-.2.2-.5.2-.7.2-.4 0-.9-.2-1-.6" stroke="#BFB7AB" stroke-miterlimit="10"/><path d="M253 2.3c0 .2-.2.5-.5.5-.2 0-.5-.2-.5-.5 0-.2.2-.5.5-.5s.5.2.5.5ZM256.1 1c.5.8 1 1.6 1.8 2.1.2.2.5.2.7.2.4 0 .9-.2 1-.6" stroke="#BFB7AB" stroke-miterlimit="10"/><path d="M259.2 2.3c0 .2.2.5.5.5.2 0 .5-.2.5-.5 0-.2-.2-.5-.5-.5-.2 0-.5.2-.5.5ZM256.1 4.3c-.5.8-1 1.6-1.8 2.1-.2.2-.5.2-.7.2-.4 0-.9-.2-1-.6" stroke="#BFB7AB" stroke-miterlimit="10"/><path d="M253 5.6c0 .2-.2.5-.5.5-.2 0-.5-.2-.5-.5 0-.2.2-.5.5-.5.3.1.5.3.5.5ZM256.1 4.3c.5.8 1 1.6 1.8 2.1.2.2.5.2.7.2.4 0 .9-.2 1-.6" stroke="#BFB7AB" stroke-miterlimit="10"/><path d="M259.2 5.6c0 .2.2.5.5.5.2 0 .5-.2.5-.5 0-.2-.2-.5-.5-.5-.2.1-.5.3-.5.5ZM256.1 7.4c-.6 1-1.2 1.9-2.2 2.5-.2.2-.6.2-.9.3-.5 0-1-.3-1.2-.8" stroke="#BFB7AB" stroke-miterlimit="10"/><path d="M252.4 9c0 .3-.2.6-.6.6-.4 0-.6-.2-.6-.6 0-.3.2-.6.6-.6.4 0 .6.3.6.6ZM256.1 7.4c.6 1 1.2 1.9 2.2 2.5.2.2.6.2.9.3.5 0 1-.3 1.2-.8" stroke="#BFB7AB" stroke-miterlimit="10"/><path d="M259.8 9c0 .3.2.6.6.6.3 0 .6-.2.6-.6 0-.3-.2-.6-.6-.6-.4.1-.6.3-.6.6ZM256 10.5c-.7 1.2-1.5 2.4-2.7 3.1-.3.2-.7.3-1.1.3-.6 0-1.3-.4-1.5-1" stroke="#BFB7AB" stroke-miterlimit="10"/><path d="M251.5 12.4c0 .4-.3.6-.6.6-.4 0-.6-.3-.6-.6 0-.4.3-.6.6-.6.3-.1.6.2.6.6ZM256.1 10.5c.7 1.2 1.5 2.4 2.7 3.1.3.2.7.3 1.1.3.6 0 1.3-.4 1.5-1" stroke="#BFB7AB" stroke-miterlimit="10"/><path d="M260.8 12.4c0 .4.3.6.6.6.4 0 .6-.3.6-.6 0-.4-.3-.6-.6-.6-.4-.1-.6.2-.6.6ZM256 13.5c-.8 1.4-1.8 2.8-3.2 3.6-.4.2-.8.4-1.3.4-.7 0-1.5-.5-1.8-1.1" stroke="#BFB7AB" stroke-miterlimit="10"/><path d="M250.7 15.7c0 .4-.3.8-.8.8-.4 0-.8-.3-.8-.8 0-.4.3-.8.8-.8.5.1.8.4.8.8ZM256.1 13.5c.8 1.4 1.8 2.8 3.2 3.6.4.2.8.4 1.3.4.7 0 1.5-.5 1.8-1.1" stroke="#BFB7AB" stroke-miterlimit="10"/><path d="M261.6 15.7c0 .4.3.8.8.8.4 0 .8-.3.8-.8 0-.4-.3-.8-.8-.8-.5.1-.8.4-.8.8ZM256 16.5c-1 1.6-2.1 3.3-3.8 4.2-.5.2-1 .5-1.5.5-.9 0-1.8-.6-2.1-1.4" stroke="#BFB7AB" stroke-miterlimit="10"/><path d="M249.7 19.2c0 .5-.4.9-.9.9a.9.9 0 0 1-.9-.9c0-.5.4-.9.9-.9s.9.3.9.9ZM256.1 16.5c1 1.6 2.1 3.3 3.8 4.2.5.2 1 .5 1.5.5.9 0 1.8-.6 2.1-1.4" stroke="#BFB7AB" stroke-miterlimit="10"/><path d="M262.5 19.2c0 .5.4.9.9.9s.9-.4.9-.9-.4-.9-.9-.9c-.5-.1-.9.3-.9.9ZM493.9 13.3l-1.5-.5 1.4-.6-.7-1.4 1.4.6.5-1.4.6 1.4 1.4-.7-.6 1.4 1.5.5-1.5.6.8 1.4-1.5-.6-.5 1.5-.6-1.5-1.4.7.7-1.4ZM493.5 14.6l-3.9 3.9M489.1 18.3c.3 0 .6.2.6.6 0 .3-.2.6-.6.6-.3 0-.6-.2-.6-.6 0-.3.3-.6.6-.6ZM493.3 11.1l-3.8-3.8M489.1 7.6c.3 0 .6-.2.6-.6 0-.3-.2-.6-.6-.6-.3 0-.6.2-.6.6 0 .4.3.6.6.6ZM497.1 14.6l3.9 3.9M501.5 18.3c-.3 0-.6.2-.6.6 0 .3.2.6.6.6.3 0 .6-.2.6-.6-.1-.3-.3-.6-.6-.6ZM497 10.7l3.9-3.8M501.2 7.2c-.3 0-.6-.2-.6-.6 0-.4.2-.6.6-.6.3 0 .6.2.6.6 0 .4-.3.6-.6.6ZM492.6 12.9h-5.5M486.4 12.3c.3 0 .6.2.6.6 0 .3-.2.6-.6.6-.3 0-.6-.2-.6-.6.1-.4.3-.6.6-.6ZM489.6 15.3l2.5-2.5M487.4 15.3l2.5-2.5M489.6 10.4l2.5 2.5M487.4 10.4l2.5 2.4M497.5 12.6h5.5M503.8 12.1c-.3 0-.6.2-.6.6 0 .3.2.6.6.6.3 0 .6-.2.6-.6-.1-.4-.3-.6-.6-.6ZM500.5 15.1l-2.4-2.5M502.7 15.1l-2.4-2.5M500.5 10.2l-2.4 2.4M502.7 10.2l-2.5 2.4M495 10.2V4.6M494.4 3.9c0 .3.2.6.6.6.3 0 .6-.2.6-.6 0-.3-.2-.6-.6-.6-.3.1-.6.3-.6.6ZM497.5 7.2 495 9.6M497.5 5 495 7.4M492.5 7.2l2.5 2.5M492.5 5l2.5 2.5M495.2 15.4v5.5M494.7 21.6c0-.3.2-.6.6-.6.3 0 .6.2.6.6 0 .3-.2.6-.6.6-.4-.1-.6-.3-.6-.6ZM497.7 18.4l-2.5-2.4M497.7 20.6l-2.5-2.5M492.8 18.4l2.5-2.5M492.7 20.6l2.5-2.5M183.1 11.5l.5-1.5.6 1.5 1.4-.8-.6 1.5 1.5.5-1.4.6.7 1.4-1.4-.6-.5 1.5-.6-1.4-1.4.7.6-1.4-1.5-.5 1.5-.6-.8-1.4 1.4.5ZM181.9 11.1 178 7.2M178.1 6.8c0 .3-.2.6-.6.6-.3 0-.6-.2-.6-.6 0-.3.2-.6.6-.6.4 0 .6.3.6.6ZM185.3 11l3.9-3.9M188.9 6.7c0 .3.2.6.6.6.3 0 .6-.2.6-.6 0-.3-.2-.6-.6-.6-.4.1-.6.3-.6.6ZM181.9 14.9l-3.9 3.8M178.1 19.2c0-.3-.2-.6-.6-.6-.3 0-.6.2-.6.6 0 .3.2.6.6.6.4-.1.6-.3.6-.6ZM185.8 14.6l3.8 3.9M189.3 18.9c0-.3.2-.6.6-.6.3 0 .6.2.6.6 0 .3-.2.6-.6.6-.4 0-.6-.2-.6-.6ZM183.6 10.3V4.8M184.2 4.1c0 .3-.2.6-.6.6-.3 0-.6-.2-.6-.6 0-.3.2-.6.6-.6.3 0 .6.3.6.6ZM181.1 7.4l2.5 2.4M181.1 5.1l2.5 2.4M186.1 7.4l-2.5 2.5M186.1 5.1l-2.5 2.5M183.8 15.3v5.5M184.4 21.4c0-.3-.2-.6-.6-.6-.3 0-.6.2-.6.6 0 .3.2.6.6.6.4 0 .6-.3.6-.6ZM181.4 18.2l2.4-2.5M181.4 20.5l2.4-2.5M186.3 18.2l-2.5-2.5M186.3 20.5l-2.5-2.5M186.3 12.7h5.5M192.5 12.1c-.3 0-.6.2-.6.6 0 .3.2.6.6.6.3 0 .6-.2.6-.6 0-.3-.3-.6-.6-.6ZM189.3 15.1l-2.4-2.4M191.5 15.1l-2.5-2.4M189.3 10.2l-2.5 2.5M191.5 10.2l-2.5 2.5M181.1 12.9h-5.5M174.9 12.3c.3 0 .6.2.6.6 0 .3-.2.6-.6.6-.3 0-.6-.2-.6-.6 0-.4.3-.6.6-.6ZM178.1 15.3l2.4-2.4M175.9 15.3l2.5-2.4M178.1 10.4l2.5 2.5M175.9 10.4l2.5 2.5" stroke="#BFB7AB" stroke-miterlimit="10"/><path d="M44.8 48.5h121M44.8 43.5h121M44.8 38.5h121M517.8 48.5h121M517.8 43.5h121M517.8 38.5h121" stroke="#BFB7AB" stroke-linecap="round" stroke-dasharray="1 1"/><path d="M5.1 97.2h2.5l.8-.8V70.8l-.8-.8H5.1v-1.7h22.7l1.3 9.7h-1.3l-3.4-7.6H13.5l-.8.8v10.5H19l1.7-5.9H22v13.9h-1.3L19 83.8h-6.3V96l.8.8h12.2l3.4-7.6h1.3L29 98.9H5.1v-1.7Zm26.4 0h3.6l10.6-13.9L36 69.9h-3.6v-1.7h30.2v1.7H59L49.9 82l10.8 15.2h3.6v1.7H31.5v-1.7Zm7.6 0h15.1l.4-.8L47 85.2l-8.4 11.2.5.8Zm9.4-17 6.9-9.4-.4-.9H42.4l-.4.9 6.5 9.4Zm17.9 17h3.4l.8-.8V70.8l-.8-.8h-3.4v-1.7h13.4c7.1 0 11.5 3.2 11.5 8.4s-4.4 8.4-11.5 8.4h-5v11.3l.8.8H84v1.7H66.4v-1.7Zm13.4-14.3c4.3 0 6.9-2.4 6.9-6.3s-2.6-6.3-6.9-6.3h-4.2l-.8.8v11.8h5Zm14.5 14.3h2.5l.8-.8V70.8l-.8-.8h-2.5v-1.7h10.9V70h-2.5l-.8.8V96l.8.8h11.8l3.8-7.1h1.3l-1.3 9.2h-24v-1.7Zm27.9-13.6c0-9.4 6.7-16.2 16.2-16.2 9.4 0 16.2 6.7 16.2 16.2 0 9.2-7 16.2-16.2 16.2-9.2-.1-16.2-7.1-16.2-16.2Zm27.3 0c0-8.5-4.2-13.6-11.1-13.6-6.9 0-11.1 5.2-11.1 13.6 0 8.5 4.2 13.6 11.1 13.6 6.9 0 11.1-5.1 11.1-13.6Zm7.8 13.6h3.4l.8-.8V70.8l-.8-.8h-3.4v-1.7h13.4c7.1 0 11.5 3.1 11.5 8 0 4.2-3.2 7.1-8.7 7.8l11 13.2 3.4.4V99h-30.6v-1.8Zm13.4-15.1c4.3 0 6.9-2.2 6.9-5.9 0-3.6-2.6-5.9-6.9-5.9h-4.2l-.8.8V82h5v.1Zm-4.2 15.1h12.3l-10.2-13h-2.9v12.2l.8.8Zm23.5 0h2.5l.8-.8V70.8l-.8-.8H190v-1.7h22.7L214 78h-1.3l-3.4-7.6h-10.9l-.8.8v10.5h6.3l1.7-5.9h1.3v13.9h-1.3l-1.7-5.9h-6.3V96l.8.8h12.2l3.4-7.6h1.3l-1.3 9.7h-24v-1.7Zm44.9 0h8l.8-.8V71.2l-.8-.8H234l-2.5 6.7h-1.3l.4-8.8h30.6l.4 8.8h-1.3l-2.5-6.7H249l-.8.8v25.2l.8.8h8v1.7h-22.3v-1.7h.2Zm29.5 0h3.4l.8-.8V70.8l-.8-.8h-3.4v-1.7h33.2V70h-3.4l-.8.8v25.6l.8.8h3.4v1.7h-33.2v-1.7Zm24.8-15.5V70.8l-.8-.8h-14.7l-.8.8v10.9h16.3Zm-15.5 15.5h14.7l.8-.8V83.8h-16.4v12.6l.9.8Zm27.3 0h2.5l.8-.8V70.8l-.8-.8H301v-1.7h22.7L325 78h-1.3l-3.4-7.6h-10.9l-.8.8v10.5h6.3l1.7-5.9h1.3v13.9h-1.3l-1.7-5.9h-6.3V96l.8.8h12.2l3.4-7.6h1.3l-1.3 9.7h-24v-1.7Zm39.6-28.9H388V70h-3.1l-10.8 29h-2.5l-6.7-19h-.4l-8.2 18.9H354l-10-29h-3.5v-1.6h.1Zm15.5 23.9h.4l8.4-18.9h1.9l6.9 18.9h.4l8-21.4-.8-.8h-31.5l-.8.8 7.1 21.4Zm34 5h3.4l.8-.8V70.8l-.8-.8h-3.4v-1.7h33.2V70h-3.4l-.8.8v25.6l.8.8h3.4v1.7h-33.2v-1.7Zm24.8-15.5V70.8l-.8-.8h-14.7l-.8.8v10.9h16.3Zm-15.6 15.5H414l.8-.8V83.8h-16.4v12.6l.9.8Zm27.3 0h3.4l.8-.8V70.8l-.8-.8h-3.4v-1.7h12.6V70h-3.4l-.8.8v25.6l.8.8h3.4v1.7h-12.6v-1.7Zm17.5 1.7h-.8L442 86.3h1.3c1.4 8.1 4.5 11.5 10.6 11.5 4.3 0 7-2.3 7-5.8 0-4.3-4.2-5.9-8.5-7.5-4.5-1.7-9.2-3.5-9.2-8.7 0-5.2 3.7-8.4 9.4-8.4 2.9 0 4.7.8 8.6.8h.8l1.3 10.5H462c-1.3-6.1-4.4-9.4-9.4-9.4-3.5 0-5.7 2-5.7 4.9 0 4 4.3 5.7 8.7 7.4 4.8 1.8 9.7 3.8 9.7 8.9 0 5.7-4.3 9.2-11.6 9.2-3.4 0-5.7-.8-9.6-.8Zm25.3-1.7h3.4l.8-.8V70.8l-.8-.8h-3.4v-1.7h26.9V70h-3.1l-8.9 9.7L495 96.4l1.3.8h2.5v1.7h-29.4v-1.7Zm20.2-26.4-.4-.8h-10.5l-.8.8v13l11.7-13Zm-11 26.4h10.5l.4-.8-8.3-13.3-3.5 4v9.3l.9.8Zm20.6-28.9h30.2V70h-2.9l-10.2 16.8v9.7l.8.8h3.4V99H508v-1.7h3.4l.8-.8v-9.7l-8.8-16-.8-.8h-3.4v-1.7Zm16 15.5h.4l8-13-.8-.8h-13.9l-.8.8 7.1 13Zm15.9-15.5h31.1V70h-3.1l-10.8 29h-3.1l-10.6-29h-3.5v-1.7Zm16.4 25.1h.4l8.4-22.7-.8-.8h-15.1l-.8.8 7.9 22.7Zm16.8 3.8h2.5l.8-.8V70.8l-.8-.8h-2.5v-1.7H587l1.3 9.7H587l-3.4-7.6h-10.9l-.8.8v10.5h6.3l1.7-5.9h1.3v13.9h-1.3l-1.7-5.9h-6.3V96l.8.8h12.2l3.4-7.6h1.3l-1.3 9.7h-23.9v-1.7h-.1Zm28.1 0h3.4l.8-.8V70.8l-.8-.8h-3.4v-1.7h13.4c7.1 0 11.5 3.1 11.5 8 0 4.2-3.2 7.1-8.7 7.8l11 13.2 3.4.4V99h-30.6v-1.8Zm13.5-15.1c4.3 0 6.9-2.2 6.9-5.9 0-3.6-2.6-5.9-6.9-5.9h-4.2l-.8.8V82h5v.1Zm-4.2 15.1H614l-10.2-13h-2.9v12.2l.8.8Zm25.8 1.7h-.8l-1.3-12.6h1.3c1.4 8.1 4.5 11.5 10.6 11.5 4.3 0 7-2.3 7-5.8 0-4.3-4.2-5.9-8.5-7.5-4.5-1.7-9.2-3.5-9.2-8.7 0-5.2 3.7-8.4 9.4-8.4 2.9 0 4.7.8 8.6.8h.8l1.3 10.5h-1.3c-1.3-6.1-4.4-9.4-9.4-9.4-3.5 0-5.7 2-5.7 4.9 0 4 4.3 5.7 8.7 7.4 4.8 1.8 9.7 3.8 9.7 8.9 0 5.7-4.3 9.2-11.6 9.2-3.4 0-5.6-.8-9.6-.8Zm25.3-1.7h2.5l.8-.8V70.8l-.8-.8h-2.5v-1.7h22.7l1.3 9.7h-1.3l-3.4-7.6h-10.9l-.8.8v10.5h6.3l1.7-5.9h1.3v13.9h-1.3l-1.7-5.9h-6.3V96l.8.8h12.2l3.4-7.6h1.3l-1.3 9.7h-23.9v-1.7h-.1Z" fill="url(#a)"/><defs><linearGradient id="a" x1="5.08" y1="83.57" x2="678.02" y2="83.57" gradientUnits="userSpaceOnUse"><stop stop-color="#C6FAED"/><stop offset=".11" stop-color="#80B6F1"/><stop offset=".21" stop-color="#9DA3E4"/><stop offset=".33" stop-color="#ECDEE5"/><stop offset=".47" stop-color="#FCE2C3"/><stop offset=".57" stop-color="#EFF1E6"/><stop offset=".69" stop-color="#C6FAED"/><stop offset=".78" stop-color="#80B6F1"/><stop offset=".88" stop-color="#9DA3E4"/><stop offset=".96" stop-color="#ECDEE5"/></linearGradient></defs></svg>