<svg width="351" height="151" fill="none" xmlns="http://www.w3.org/2000/svg"><path d="M9.3 49h8.8v-2.1h-6.2c0-.4.3-.6 1.2-1.1l2.1-1c1.4-.7 2.7-1.6 2.7-3.4 0-1.9-1.5-3.1-4-3.1-2.7 0-4.4 1.3-4.4 3.7h2.3c0-1.1.8-1.6 1.9-1.6.9 0 1.6.3 1.6 1.2 0 .6-.4 1.1-1.8 1.7l-2.1 1c-1.2.6-2.2 1.6-2.2 3.2V49h.1Zm16.1.2c3.2 0 4.6-2.2 4.6-5.5s-1.4-5.3-4.6-5.3c-3.2 0-4.6 2.1-4.6 5.5 0 3.3 1.5 5.3 4.6 5.3Zm0-2.1c-1.7 0-2-1.4-2-3.3s.3-3.3 2-3.3 2 1.3 2 3.3c0 1.9-.2 3.3-2 3.3Zm7.5 1.9h8.8v-2.1h-6.2c0-.4.3-.6 1.2-1.1l2.1-1c1.4-.7 2.7-1.6 2.7-3.4 0-1.9-1.5-3.1-4-3.1-2.7 0-4.4 1.3-4.4 3.7h2.3c0-1.1.8-1.6 1.9-1.6.9 0 1.6.3 1.6 1.2 0 .6-.4 1.1-1.8 1.7l-2.1 1c-1.2.6-2.2 1.6-2.2 3.2V49h.1Zm12.3 0h7.6v-2.1h-2.3v-8.4h-1.8c-.4.8-1.2 1.1-2.3 1.1h-1.2v2.2h.7c1.3 0 1.8-.4 2.1-.7v5.8h-2.8V49Zm23.6 0h2.5v-3.7h4.6v-2.1h-4.6v-2.6h5.3v-2.1h-7.8V49Zm11.8 0h7.8v-2.1h-5.3v-8.3h-2.5V49Zm10.6 0h2.6l.7-2.1h3.3l.7 2.1h2.6l-3.7-10.4h-2.6L91.2 49Zm4-4.6.9-3.2.9 3.2.1.5H95l.2-.5Zm11.6 4.6h2.4l3.9-10.4h-2.7l-1.5 4.8-.8 2.8-.8-2.8-1.6-4.8h-2.8l3.9 10.4Zm9.2 0h7.6v-2.1H121v-6.2h2.6v-2.1H116v2.1h2.5v6.2H116V49Zm10.6 0h2.6l.7-2.1h3.3l.7 2.1h2.6l-3.7-10.4h-2.6L126.6 49Zm4-4.6.9-3.2.9 3.2.1.5h-2.1l.2-.5Zm9 4.6h2.5v-3.4h1.1l2.1 3.4h3l-2.8-3.9c1.1-.5 2-1.4 2-3 0-2.5-2.1-3.5-4.6-3.5h-3.4V49h.1Zm2.5-8.4h.9c1.3 0 2 .4 2 1.5 0 1-.7 1.5-2 1.5h-.9v-3ZM162 49h2.6l.7-2.1h3.3l.7 2.1h2.6l-3.7-10.4h-2.6L162 49Zm4-4.6.9-3.2.9 3.2.1.5h-2.1l.2-.5Zm8.9 4.6h3.4c3.5 0 4.9-2 4.9-5.3 0-3.4-1.5-5.1-4.9-5.1h-3.4V49Zm2.5-8.3h.9c1.9 0 2.3 1 2.3 3.1s-.5 3.1-2.3 3.1h-.9v-6.2Zm11.9 8.3h2.4l3.9-10.4h-2.7l-1.5 4.8-.8 2.8-.8-2.8-1.6-4.8h-2.8l3.9 10.4Zm9.2 0h7.8v-2.1H201v-2.2h4.4v-2.1H201v-2h5.3v-2.1h-7.8V49Zm11.8 0h2.2v-4.5l-.3-3.3 2.6 7.8h3.1V38.6h-2.2v4.5l.3 3.3-2.6-7.8h-3.1V49Zm14.3 0h2.5v-8.3h3.4v-2.1h-9.3v2.1h3.4V49Zm25 .2c2.8 0 4.2-1.4 4.4-4.2h-2.6c-.1 1.4-.6 2-1.9 2-1.8 0-2.1-1.2-2.1-3.3 0-2 .3-3.3 2.1-3.3 1.2 0 1.8.6 1.9 2h2.6c-.1-2.8-1.5-4.2-4.3-4.2-3.5 0-4.8 2.1-4.8 5.5 0 3.5 1.3 5.5 4.7 5.5Zm6.7-.2h2.6l.7-2.1h3.3l.7 2.1h2.6l-3.7-10.4H260L256.3 49Zm4-4.6.9-3.2.9 3.2.1.5h-2.1l.2-.5Zm9 4.6h7.8v-2.1h-5.3v-8.3h-2.5V49Zm11.8 0h7.8v-2.1h-5.3v-2.2h4.4v-2.1h-4.4v-2h5.3v-2.1h-7.8V49Zm11.8 0h2.2v-4.5l-.3-3.3 2.6 7.8h3.1V38.6h-2.2v4.5l.3 3.3-2.6-7.8h-3.1V49Zm11.8 0h3.4c3.5 0 4.9-2 4.9-5.3 0-3.4-1.5-5.1-4.9-5.1h-3.4V49Zm2.5-8.3h.9c1.9 0 2.3 1 2.3 3.1s-.5 3.1-2.3 3.1h-.9v-6.2Zm8.1 8.3h2.6l.7-2.1h3.3l.7 2.1h2.6l-3.7-10.4h-2.6L315.3 49Zm4-4.6.9-3.2.9 3.2.1.5h-2.1l.2-.5Zm8.9 4.6h2.5v-3.4h1.1L334 49h3l-2.8-3.9c1.1-.5 2-1.4 2-3 0-2.5-2.1-3.5-4.6-3.5h-3.4V49Zm2.5-8.4h.9c1.3 0 2 .4 2 1.5 0 1-.7 1.5-2 1.5h-.9v-3Z" fill="#E1DDD6"/><path d="M167.8 3c0 1.3 2.3 2.3 5.1 2.3s5.1-1 5.1-2.3c0-1.3-2.3-2.3-5.1-2.3-2.9-.1-5.1 1-5.1 2.3ZM169.1 18.6s-1.4 1.2-1.4 3.9c0 1.3 2.3 2.3 5.1 2.3s5.1-1 5.1-2.3c0-2.8-1.4-3.9-1.4-3.9" stroke="#BFB7AB" stroke-miterlimit="10"/><path d="M167.8 3c0 5.4-2 7.2-2 10.5 0 3.4 3.2 6.1 7.1 6.1 3.9 0 7.1-2.7 7.1-6.1 0-3.4-2-5.2-2-10.5M169.2 19.7c1 .6 2.3.9 3.7.9 1.4 0 2.6-.3 3.7-.9" stroke="#BFB7AB" stroke-miterlimit="10"/><path d="M166.8 13.6c0 2.6 2.7 4.8 6 4.8 3.4 0 6-2.2 6-4.8 0-1.7-2.5-3-6-3-3.3 0-6 1.2-6 3ZM168.6 5.3c.9.6 2.5 1 4.2 1 1.8 0 3.4-.4 4.3-1" stroke="#BFB7AB" stroke-miterlimit="10"/><path d="M172.8 15.5c1.8 0 3.4-.4 4.4-1M168.6 14.5c.6.4 1.5.7 2.6.9M152.5 13.9c0 1.1-.9 2.1-2.1 2.1-1.1 0-2.1-.9-2.1-2.1 0-1.1 2.1-4.3 2.1-4.3s2.1 3.2 2.1 4.3ZM193.2 13.9c0 1.1.9 2.1 2.1 2.1 1.1 0 2.1-.9 2.1-2.1 0-1.1-2.1-4.3-2.1-4.3s-2.1 3.2-2.1 4.3ZM69.4 11.5c.7 0 1.3.6 1.3 1.3 0 .7-.6 1.3-1.3 1.3-.7 0-1.3-.6-1.3-1.3 0-.7.7-1.3 1.3-1.3ZM109.7 11.5c.7 0 1.3.6 1.3 1.3 0 .7-.6 1.3-1.3 1.3-.7 0-1.3-.6-1.3-1.3.1-.7.6-1.3 1.3-1.3ZM34.7 11.5c.7 0 1.3.6 1.3 1.3 0 .7-.6 1.3-1.3 1.3-.7 0-1.3-.6-1.3-1.3.1-.7.6-1.3 1.3-1.3ZM276.3 11.5c-.7 0-1.3.6-1.3 1.3 0 .7.6 1.3 1.3 1.3.7 0 1.3-.6 1.3-1.3 0-.7-.6-1.3-1.3-1.3ZM236 11.5c-.7 0-1.3.6-1.3 1.3 0 .7.6 1.3 1.3 1.3.7 0 1.3-.6 1.3-1.3 0-.7-.6-1.3-1.3-1.3ZM311 11.5c-.7 0-1.3.6-1.3 1.3 0 .7.6 1.3 1.3 1.3.7 0 1.3-.6 1.3-1.3 0-.7-.6-1.3-1.3-1.3ZM225.8 9.7l-.1-.2c-.3-1.2-1.6-1.8-2.7-1.5l-3.4 1a4.16 4.16 0 0 0-2.9-7.2 4.16 4.16 0 0 0-2.9 7.2l-3.4-1c-1.2-.3-2.4.3-2.7 1.5l-.1.2c-.3 1.2.3 2.4 1.5 2.7l3.5 1c.2.2.3.7.1 1.5-.3 1.4-1 2.6-1 2.6l-1.4 2.6c-.6 1-.2 2.5 1 3.1l.2.1c1.2.6 2.6.3 3.3-.7l1-1.8.3-.6c.3-.5.6-1 .9-1.3.3.3.6.7.9 1.3l.3.6 1 1.8c.6 1 2.1 1.4 3.3.7l.2-.1c1.2-.6 1.7-2.1 1-3.1l-1.4-2.6s-.7-1.4-1-2.6c-.2-1 .1-1.5.2-1.7l3.1-.9c.8-.2 1.5-1.4 1.2-2.6Z" stroke="#BFB7AB" stroke-miterlimit="10"/><path d="M208.9 12.3c.1-.2.4-.1.5-.3.1-.2-.3-.3-.2-.6.1-.2.4-.1.5-.3.1-.2-.3-.3-.2-.6.1-.2.4-.1.5-.3.1-.2-.3-.3-.2-.6.1-.2.4-.1.5-.3.1-.2-.3-.3-.2-.6.1-.2.4-.1.5-.3.1-.2-.3-.3-.2-.6" stroke="#BFB7AB" stroke-miterlimit="10"/><path d="M208.9 12.3c.1-.2.4-.1.5-.3.1-.2-.3-.3-.2-.6.1-.2.4-.1.5-.3.1-.2-.3-.3-.2-.6.1-.2.4-.1.5-.3.1-.2-.3-.3-.2-.6.1-.2.4-.1.5-.3.1-.2-.3-.3-.2-.6.1-.2.4-.1.5-.3.1-.2-.3-.3-.2-.6M210.9 18.9c.2.1.1.5.2.6.2.1.4-.2.6-.1.2.1.1.5.2.6.2.1.4-.2.6-.1.2.1.1.5.2.6.2.1.4-.2.6-.1.2.1.1.5.2.6.2.1.4-.2.6-.1.2.1.1.5.2.6.2.1.4-.2.6-.1M222.8 19.3c-.2.1-.4-.2-.6-.1-.2.1-.1.5-.2.6-.2.1-.4-.2-.6-.1-.2.1-.1.5-.2.6-.2.1-.4-.2-.6-.1-.2.1-.1.5-.2.6-.2.1-.4-.2-.6-.1-.2.1-.1.5-.2.6-.2.1-.4-.2-.6-.1-.2.1-.1.5-.2.6M224.3 12.4c-.1-.2.3-.3.2-.6-.1-.2-.4-.1-.5-.3-.1-.2.3-.3.2-.6-.1-.2-.4-.1-.5-.3-.1-.2.3-.3.2-.6-.1-.2-.4-.1-.5-.3-.1-.2.3-.3.2-.6-.1-.2-.4-.1-.5-.3-.1-.2.3-.3.2-.6-.1-.2-.4-.1-.5-.3M217.4 12.8c0 .4-.3.7-.7.7-.4 0-.7-.3-.7-.7 0-.4.3-.7.7-.7.4 0 .7.3.7.7ZM217.4 15.1c0 .4-.3.7-.7.7-.4 0-.7-.3-.7-.7 0-.4.3-.7.7-.7.4 0 .7.3.7.7ZM217.4 10.4c0 .4-.3.7-.7.7-.4 0-.7-.3-.7-.7 0-.4.3-.7.7-.7.4 0 .7.3.7.7ZM218.3 5.1c0 .2-.2.5-.5.5s-.5-.2-.5-.5c0-.2.2-.5.5-.5s.5.3.5.5ZM215.6 5.1c0 .2-.2.5-.5.5-.2 0-.5-.2-.5-.5 0-.2.2-.5.5-.5s.5.3.5.5ZM217.7 6.9c0 .4-.5.7-1 .7-.6 0-1-.3-1-.7M138.4 9.7l-.1-.2c-.3-1.2-1.6-1.8-2.7-1.5l-3.4 1c.8-.8 1.3-1.8 1.3-3 0-2.3-1.9-4.2-4.2-4.2a4.16 4.16 0 0 0-2.9 7.2L123 8c-1.2-.3-2.4.3-2.7 1.5l-.3.2c-.3 1.2.3 2.4 1.5 2.7l3.5 1c.2.2.3.7.1 1.5-.3 1.4-1 2.6-1 2.6l-1.4 2.6c-.6 1-.2 2.5 1 3.1l.2.1c1.2.6 2.6.3 3.3-.7l1-1.8.3-.6c.3-.5.6-1 .9-1.3.3.3.6.7.9 1.3l.3.6 1 1.8c.6 1 2.1 1.4 3.3.7l.2-.1c1.2-.6 1.7-2.1 1-3.1l-1.4-2.6s-.7-1.4-1-2.6c-.2-1 .1-1.5.2-1.7l3.1-.9c1-.2 1.7-1.4 1.4-2.6Z" stroke="#BFB7AB" stroke-miterlimit="10"/><path d="M121.5 12.3c.1-.2.4-.1.5-.3.1-.2-.3-.3-.2-.6.1-.2.4-.1.5-.3.1-.2-.3-.3-.2-.6.1-.2.4-.1.5-.3.1-.2-.3-.3-.2-.6.1-.2.4-.1.5-.3.1-.2-.3-.3-.2-.6.1-.2.4-.1.5-.3.1-.2-.3-.3-.2-.6" stroke="#BFB7AB" stroke-miterlimit="10"/><path d="M121.5 12.3c.1-.2.4-.1.5-.3.1-.2-.3-.3-.2-.6.1-.2.4-.1.5-.3.1-.2-.3-.3-.2-.6.1-.2.4-.1.5-.3.1-.2-.3-.3-.2-.6.1-.2.4-.1.5-.3.1-.2-.3-.3-.2-.6.1-.2.4-.1.5-.3.1-.2-.3-.3-.2-.6M123.5 18.9c.2.1.1.5.2.6.2.1.4-.2.6-.1.2.2.1.5.2.6.2.1.4-.2.6-.1.2.1.1.5.2.6.2.1.4-.2.6-.1.2.1.1.5.2.6.2.1.4-.2.6-.1.2.1.1.5.2.6.2.1.4-.2.6-.1M135.4 19.3c-.2.1-.4-.2-.6-.1-.2.1-.1.5-.2.6-.2.1-.4-.2-.6-.1-.2.1-.1.5-.2.6-.2.1-.4-.2-.6-.1-.2.1-.1.5-.2.6-.2.1-.4-.2-.6-.1-.2.1-.1.5-.2.6-.2.1-.4-.2-.6-.1-.2.1-.1.5-.2.6M136.9 12.4c-.1-.2.3-.3.2-.6-.1-.2-.4-.1-.5-.3-.1-.2.3-.3.2-.6-.1-.3-.4-.1-.5-.3-.1-.2.3-.3.2-.6-.1-.2-.4-.1-.5-.3-.1-.2.3-.3.2-.6-.1-.2-.4-.1-.5-.3-.1-.2.3-.3.2-.6-.1-.2-.4-.1-.5-.3M129.9 12.8c0 .4-.3.7-.7.7-.4 0-.7-.3-.7-.7 0-.4.3-.7.7-.7.4 0 .7.3.7.7ZM129.9 15.1c0 .4-.3.7-.7.7-.4 0-.7-.3-.7-.7 0-.4.3-.7.7-.7.4 0 .7.3.7.7ZM129.9 10.4c0 .4-.3.7-.7.7-.4 0-.7-.3-.7-.7 0-.4.3-.7.7-.7.4 0 .7.3.7.7ZM131 5.1c0 .2-.2.5-.5.5-.2 0-.5-.2-.5-.5 0-.2.2-.5.5-.5.2 0 .5.3.5.5ZM128.2 5.1c0 .2-.2.5-.5.5-.2 0-.5-.2-.5-.5 0-.2.2-.5.5-.5.2 0 .5.3.5.5ZM130.3 6.9c0 .4-.5.7-1 .7-.6 0-1-.3-1-.7M301.2 8.9h-15.1v12.9h15.1V8.9ZM302.1 6.7h-17v2.2h17V6.7Z" stroke="#BFB7AB" stroke-miterlimit="10"/><path d="M294.4 6.6h-1.7v15.2h1.7V6.6ZM293.3 6.6c.8-.8 1-3.1 2.6-2.8.8.2 1.5 1 1.4 1.7-.3 1.2-1.5.4-4 1.1Z" stroke="#BFB7AB" stroke-miterlimit="10"/><path d="M293.5 6.5c-.6-.6-.7-2.7-2-1.9-1.4.8 1.6 2.2 2 1.9ZM59.7 8.9H44.6v12.9h15.1V8.9ZM60.6 6.7h-17v2.2h17V6.7Z" stroke="#BFB7AB" stroke-miterlimit="10"/><path d="M52.9 6.6h-1.7v15.2h1.7V6.6ZM51.8 6.6c.8-.8 1-3.1 2.6-2.8.8.2 1.5 1 1.4 1.7-.3 1.2-1.5.4-4 1.1Z" stroke="#BFB7AB" stroke-miterlimit="10"/><path d="M51.9 6.5c-.6-.6-.7-2.7-2-1.9-1.3.8 1.7 2.2 2 1.9ZM256.2 1.1v23.4M256.1 1c-.5.8-1 1.6-1.8 2.1-.2.2-.5.2-.7.2-.4 0-.9-.2-1-.6" stroke="#BFB7AB" stroke-miterlimit="10"/><path d="M253 2.3c0 .2-.2.5-.5.5-.2 0-.5-.2-.5-.5 0-.2.2-.5.5-.5s.5.2.5.5ZM256.2 1c.5.8 1 1.6 1.8 2.1.2.2.5.2.7.2.4 0 .9-.2 1-.6" stroke="#BFB7AB" stroke-miterlimit="10"/><path d="M259.3 2.3c0 .2.2.5.5.5.2 0 .5-.2.5-.5 0-.2-.2-.5-.5-.5s-.5.2-.5.5ZM256.1 4.3c-.5.8-1 1.6-1.8 2.1-.2.2-.5.2-.7.2-.4 0-.9-.2-1-.6" stroke="#BFB7AB" stroke-miterlimit="10"/><path d="M253 5.6c0 .2-.2.5-.5.5-.2 0-.5-.2-.5-.5 0-.2.2-.5.5-.5.3.1.5.3.5.5ZM256.2 4.3c.5.8 1 1.6 1.8 2.1.2.2.5.2.7.2.4 0 .9-.2 1-.6" stroke="#BFB7AB" stroke-miterlimit="10"/><path d="M259.3 5.6c0 .2.2.5.5.5.2 0 .5-.2.5-.5 0-.2-.2-.5-.5-.5-.3.1-.5.3-.5.5ZM256.1 7.4c-.6 1-1.2 1.9-2.2 2.5-.2.2-.6.2-.9.3-.5 0-1-.3-1.2-.8" stroke="#BFB7AB" stroke-miterlimit="10"/><path d="M252.4 9c0 .3-.2.6-.6.6-.3 0-.6-.2-.6-.6 0-.3.2-.6.6-.6.4.1.6.3.6.6ZM256.2 7.4c.6 1 1.2 1.9 2.2 2.5.2.2.6.2.9.3.5 0 1-.3 1.2-.8" stroke="#BFB7AB" stroke-miterlimit="10"/><path d="M259.9 9c0 .3.2.6.6.6.3 0 .6-.2.6-.6 0-.3-.2-.6-.6-.6-.4.1-.6.3-.6.6ZM256.1 10.5c-.7 1.2-1.5 2.4-2.7 3.1-.3.2-.7.3-1.1.3-.6 0-1.3-.4-1.5-1" stroke="#BFB7AB" stroke-miterlimit="10"/><path d="M251.6 12.4c0 .4-.3.6-.6.6-.4 0-.6-.3-.6-.6 0-.4.3-.6.6-.6.2-.1.6.2.6.6ZM256.2 10.5c.7 1.2 1.5 2.4 2.7 3.1.3.2.7.3 1.1.3.6 0 1.3-.4 1.5-1" stroke="#BFB7AB" stroke-miterlimit="10"/><path d="M260.7 12.4c0 .4.3.6.6.6.4 0 .6-.3.6-.6 0-.4-.3-.6-.6-.6-.2-.1-.6.2-.6.6ZM256.1 13.5c-.8 1.4-1.8 2.8-3.2 3.6-.4.2-.8.4-1.3.4-.7 0-1.5-.5-1.8-1.1" stroke="#BFB7AB" stroke-miterlimit="10"/><path d="M250.8 15.7c0 .4-.3.8-.8.8-.4 0-.8-.3-.8-.8 0-.4.3-.8.8-.8.4.1.8.4.8.8ZM256.2 13.5c.8 1.4 1.8 2.8 3.2 3.6.4.2.8.4 1.3.4.7 0 1.5-.5 1.8-1.1" stroke="#BFB7AB" stroke-miterlimit="10"/><path d="M261.5 15.7c0 .4.3.8.8.8.4 0 .8-.3.8-.8 0-.4-.3-.8-.8-.8-.4.1-.8.4-.8.8ZM256.1 16.5c-1 1.6-2.1 3.3-3.8 4.2-.5.2-1 .5-1.5.5-.9 0-1.8-.6-2.1-1.4" stroke="#BFB7AB" stroke-miterlimit="10"/><path d="M249.8 19.2c0 .5-.4.9-.9.9s-1-.4-1-.9.4-.9.9-.9 1 .3 1 .9ZM256.2 16.5c1 1.6 2.1 3.3 3.8 4.2.5.2 1 .5 1.5.5.9 0 1.8-.6 2.1-1.4" stroke="#BFB7AB" stroke-miterlimit="10"/><path d="M262.5 19.2c0 .5.4.9.9.9s.9-.4.9-.9-.4-.9-.9-.9c-.4-.1-.9.3-.9.9ZM89.6 1.1v23.4M89.6 1c-.5.8-1 1.6-1.8 2.1-.2.2-.5.2-.7.2-.4 0-.9-.2-1-.6" stroke="#BFB7AB" stroke-miterlimit="10"/><path d="M86.5 2.3c0 .2-.2.5-.5.5-.2 0-.5-.2-.5-.5 0-.2.2-.5.5-.5s.5.2.5.5ZM89.6 1c.5.8 1 1.6 1.8 2.1.2.2.5.2.7.2.4 0 .9-.2 1-.6" stroke="#BFB7AB" stroke-miterlimit="10"/><path d="M92.7 2.3c0 .2.2.5.5.5.2 0 .5-.2.5-.5 0-.2-.2-.5-.5-.5-.2 0-.5.2-.5.5ZM89.6 4.3c-.5.8-1 1.6-1.8 2.1-.2.2-.5.2-.7.2-.4 0-.9-.2-1-.6" stroke="#BFB7AB" stroke-miterlimit="10"/><path d="M86.5 5.6c0 .2-.2.5-.5.5-.2 0-.5-.2-.5-.5 0-.2.2-.5.5-.5.3.1.5.3.5.5ZM89.6 4.3c.5.8 1 1.6 1.8 2.1.2.2.5.2.7.2.4 0 .9-.2 1-.6" stroke="#BFB7AB" stroke-miterlimit="10"/><path d="M92.7 5.6c0 .2.2.5.5.5.2 0 .5-.2.5-.5 0-.2-.2-.5-.5-.5-.2.1-.5.3-.5.5ZM89.6 7.4c-.6 1-1.2 1.9-2.2 2.5-.2.2-.6.2-.9.3-.5 0-1-.3-1.2-.8" stroke="#BFB7AB" stroke-miterlimit="10"/><path d="M85.9 9c0 .3-.2.6-.6.6-.4 0-.6-.2-.6-.6 0-.3.2-.6.6-.6.4 0 .6.3.6.6ZM89.6 7.4c.6 1 1.2 1.9 2.2 2.5.2.2.6.2.9.3.5 0 1-.3 1.2-.8" stroke="#BFB7AB" stroke-miterlimit="10"/><path d="M93.3 9c0 .3.2.6.6.6.3 0 .6-.2.6-.6 0-.3-.2-.6-.6-.6-.4.1-.6.3-.6.6ZM89.5 10.5c-.7 1.2-1.5 2.4-2.7 3.1-.3.2-.7.3-1.1.3-.6 0-1.3-.4-1.5-1" stroke="#BFB7AB" stroke-miterlimit="10"/><path d="M85 12.4c0 .4-.3.6-.6.6-.4 0-.6-.3-.6-.6 0-.4.3-.6.6-.6.3-.1.6.2.6.6ZM89.6 10.5c.7 1.2 1.5 2.4 2.7 3.1.3.2.7.3 1.1.3.6 0 1.3-.4 1.5-1" stroke="#BFB7AB" stroke-miterlimit="10"/><path d="M94.2 12.4c0 .4.3.6.6.6.4 0 .6-.3.6-.6 0-.4-.3-.6-.6-.6-.3-.1-.6.2-.6.6ZM89.5 13.5c-.8 1.4-1.8 2.8-3.2 3.6-.4.2-.8.4-1.3.4-.7 0-1.5-.5-1.8-1.1" stroke="#BFB7AB" stroke-miterlimit="10"/><path d="M84.2 15.7c0 .4-.3.8-.8.8-.4 0-.8-.3-.8-.8 0-.4.3-.8.8-.8.5.1.8.4.8.8ZM89.6 13.5c.8 1.4 1.8 2.8 3.2 3.6.4.2.8.4 1.3.4.7 0 1.5-.5 1.8-1.1" stroke="#BFB7AB" stroke-miterlimit="10"/><path d="M95 15.7c0 .4.3.8.8.8.4 0 .8-.3.8-.8 0-.4-.3-.8-.8-.8-.4.1-.8.4-.8.8ZM89.5 16.5c-1 1.6-2.1 3.3-3.8 4.2-.5.2-1 .5-1.5.5-.9 0-1.8-.6-2.1-1.4" stroke="#BFB7AB" stroke-miterlimit="10"/><path d="M83.2 19.2c0 .5-.4.9-.9.9a.9.9 0 0 1-.9-.9c0-.5.4-.9.9-.9s.9.3.9.9ZM89.6 16.5c1 1.6 2.1 3.3 3.8 4.2.5.2 1 .5 1.5.5.9 0 1.8-.6 2.1-1.4" stroke="#BFB7AB" stroke-miterlimit="10"/><path d="M96 19.2c0 .5.4.9.9.9s.9-.4.9-.9-.4-.9-.9-.9c-.5-.1-.9.3-.9.9ZM327.4 13.3l-1.5-.5 1.4-.6-.7-1.4 1.4.6.5-1.5.6 1.4 1.4-.7-.6 1.4 1.5.5-1.5.6.8 1.4-1.5-.6-.5 1.5-.6-1.5-1.4.7.7-1.3ZM327 14.6l-3.9 3.9M322.6 18.3c.3 0 .6.2.6.6 0 .3-.2.6-.6.6-.3 0-.6-.2-.6-.6 0-.3.2-.6.6-.6ZM326.8 11.1 323 7.3M322.6 7.6c.3 0 .6-.2.6-.6 0-.3-.2-.6-.6-.6-.3 0-.6.2-.6.6 0 .4.2.6.6.6ZM330.6 14.6l3.9 3.9M334.9 18.3c-.3 0-.6.2-.6.6 0 .3.2.6.6.6.3 0 .6-.2.6-.6 0-.3-.2-.6-.6-.6ZM330.5 10.7l3.9-3.8M334.7 7.2c-.3 0-.6-.2-.6-.6 0-.4.2-.6.6-.6.3 0 .6.2.6.6 0 .4-.3.6-.6.6ZM326.1 12.9h-5.5M319.9 12.3c.3 0 .6.2.6.6 0 .3-.2.6-.6.6-.3 0-.6-.2-.6-.6.1-.4.3-.6.6-.6ZM323.1 15.3l2.5-2.5M320.9 15.3l2.5-2.5M323.1 10.4l2.5 2.5M320.9 10.4l2.5 2.4M331 12.6h5.5M337.3 12.1c-.3 0-.6.2-.6.6 0 .3.2.6.6.6.3 0 .6-.2.6-.6-.1-.4-.3-.6-.6-.6ZM334 15.1l-2.4-2.5M336.2 15.1l-2.4-2.5M334 10.2l-2.4 2.4M336.2 10.2l-2.5 2.4M328.5 10.2V4.6M327.9 3.9c0 .3.2.6.6.6.3 0 .6-.2.6-.6 0-.3-.2-.6-.6-.6-.3.1-.6.3-.6.6ZM330.9 7.2l-2.5 2.4M330.9 5l-2.5 2.4M326 7.2l2.5 2.5M326 5l2.5 2.5M328.7 15.4v5.5M328.2 21.6c0-.3.2-.6.6-.6.3 0 .6.2.6.6 0 .3-.2.6-.6.6-.4-.1-.6-.3-.6-.6ZM331.2 18.4l-2.5-2.4M331.2 20.6l-2.5-2.5M326.2 18.4l2.5-2.5M326.2 20.6l2.5-2.5M16.6 11.5l.5-1.5.6 1.5 1.4-.8-.6 1.5 1.5.5-1.4.6.7 1.4-1.4-.6-.5 1.5-.6-1.4-1.4.7.6-1.4-1.5-.5 1.5-.6-.8-1.4 1.4.5ZM15.3 11.1l-3.9-3.9M11.6 6.8c0 .3-.2.6-.6.6-.3 0-.6-.2-.6-.6 0-.3.2-.6.6-.6.3 0 .6.3.6.6ZM18.8 11l3.9-3.9M22.4 6.7c0 .3.2.6.6.6.3 0 .6-.2.6-.6 0-.3-.2-.6-.6-.6-.4.1-.6.3-.6.6ZM15.3 14.9l-3.9 3.8M11.6 19.2c0-.3-.2-.6-.6-.6-.3 0-.6.2-.6.6 0 .3.2.6.6.6.3-.1.6-.3.6-.6ZM19.2 14.6l3.8 3.9M22.8 18.9c0-.3.2-.6.6-.6.3 0 .6.2.6.6 0 .3-.2.6-.6.6-.4 0-.6-.2-.6-.6ZM17.1 10.3V4.8M17.7 4.1c0 .3-.2.6-.6.6-.3 0-.6-.2-.6-.6 0-.3.2-.6.6-.6.3 0 .6.3.6.6ZM14.6 7.4l2.5 2.4M14.6 5.1l2.5 2.4M19.6 7.4l-2.5 2.5M19.6 5.1l-2.5 2.5M17.3 15.3v5.5M17.9 21.4c0-.3-.2-.6-.6-.6-.3 0-.6.2-.6.6 0 .3.2.6.6.6.4 0 .6-.3.6-.6ZM14.9 18.2l2.4-2.5M14.9 20.5l2.4-2.5M19.8 18.2l-2.5-2.5M19.8 20.5 17.3 18M19.8 12.7h5.5M26 12.1c-.3 0-.6.2-.6.6 0 .3.2.6.6.6.3 0 .6-.2.6-.6 0-.3-.3-.6-.6-.6ZM22.8 15.1l-2.4-2.4M25 15.1l-2.5-2.4M22.8 10.2l-2.5 2.5M25 10.2l-2.5 2.5M14.5 12.9H9M8.4 12.3c.3 0 .6.2.6.6 0 .3-.2.6-.6.6-.3 0-.6-.2-.6-.6-.1-.4.3-.6.6-.6ZM11.6 15.3l2.4-2.4M9.3 15.3l2.5-2.4M11.6 10.4l2.5 2.5M9.3 10.4l2.5 2.5" stroke="#BFB7AB" stroke-miterlimit="10"/><path d="M12.3 96.3h2.5l.8-.8v-26l-.8-.8h-2.5V67h22.9l1.3 9.8h-1.3l-3.4-7.6h-11l-.9.8v10.6h6.4l1.7-5.9h1.3v14H28l-1.7-5.9h-6.4V95l.8.8H33l3.4-7.6h1.3L36.5 98H12.3v-1.7Zm26.7 0h3.6l10.7-14-9.8-13.5h-3.6V67h30.6v1.7h-3.6l-9.3 12.2 10.9 15.4h3.7V98H39v-1.7Zm7.7 0H62l.4-.8-7.6-11.3-8.5 11.3.4.8Zm9.5-17.2 7-9.5-.4-.8H50.1l-.4.8 6.5 9.5Zm18.1 17.2h3.4l.8-.8v-26l-.8-.8h-3.4V67h13.6c7.2 0 11.7 3.3 11.7 8.5 0 5.3-4.5 8.5-11.7 8.5h-5.1v11.5l.8.8h8.5V98H74.3v-1.7Zm13.5-14.5c4.3 0 7-2.4 7-6.4 0-3.9-2.7-6.4-7-6.4h-4.2l-.9 1v11.9h5.1v-.1Zm14.7 14.5h2.5l.8-.8v-26l-.8-.8h-2.5V67h11v1.7H111l-.8.8V95l.8.8h11.9l3.8-7.2h1.3l-1.3 9.3h-24.2v-1.6Zm28.2-13.8c0-9.5 6.8-16.3 16.3-16.3s16.3 6.8 16.3 16.3A16 16 0 0 1 147 98.8c-9.2 0-16.3-7.1-16.3-16.3Zm27.6 0c0-8.6-4.2-13.8-11.2-13.8-7 0-11.2 5.2-11.2 13.8 0 8.6 4.2 13.8 11.2 13.8 6.9 0 11.2-5.3 11.2-13.8Zm7.8 13.8h3.4l.8-.8v-26l-.8-.8h-3.4V67h13.6c7.2 0 11.7 3.1 11.7 8.1 0 4.3-3.3 7.2-8.8 7.9l11.1 13.3 3.4.4V98h-31v-1.7ZM179.7 81c4.3 0 7-2.2 7-5.9 0-3.6-2.7-5.9-7-5.9h-4.2l-.8.8v11h5Zm-4.2 15.3H188l-10.4-13.2h-3v12.3l.9.9Zm23.7 0h2.5l.8-.8v-26l-.8-.8h-2.5V67h22.9l1.3 9.8h-1.3l-3.4-7.6h-11l-.8.8v10.6h6.4l1.7-5.9h1.3v14H215l-1.7-5.9h-6.4V95l.8.8H220l3.4-7.6h1.3l-1.3 9.8h-24.2v-1.7Zm45.4 0h8.1l.8-.8V70l-.8-.8h-8.9l-2.5 6.8H240l.4-8.9h31l.4 8.9h-1.3l-2.5-6.8h-9l-.8.8v25.5l.8.8h8.1V98h-22.5v-1.7Zm29.9 0h3.4l.8-.8v-26l-.8-.8h-3.4V67H308v1.7h-3.4l-.8.8v25.9l.8.8h3.4V98h-33.5v-1.7Zm25-15.7v-11l-.8-.8h-14.9l-.8.8v11h16.5Zm-15.7 15.7h14.9l.8-.8V82.7H283v12.7l.8.9Zm27.6 0h2.5l.8-.8v-26l-.8-.8h-2.5V67h22.9l1.3 9.8h-1.3l-3.4-7.6h-11l-.9.8v10.6h6.4l1.7-5.9h1.3v14h-1.3l-1.7-5.9H319V95l.8.8h12.3l3.4-7.6h1.3l-1.3 9.8h-24.2v-1.7h.1ZM3.3 109.5h48v1.7h-3.1l-10.9 29.3h-2.5L28 121.4h-.4l-8.3 19.1H17L6.8 111.2H3.3v-1.7ZM19 133.7h.4l8.5-19.1h1.9l7 19.1h.4l8.1-21.6-.8-.8H12.7l-.8.8 7.1 21.6Zm34.4 5.1h3.4l.8-.8v-25.9l-.8-.8h-3.4v-1.7h33.5v1.7h-3.4l-.8.8V138l.8.8h3.4v1.7H53.4v-1.7Zm25-15.7v-11l-.8-.8H62.7l-.8.8v11h16.5Zm-15.7 15.7h14.9l.8-.8v-12.7H61.9V138l.8.8Zm27.6 0h3.4l.8-.8v-25.9l-.8-.8h-3.4v-1.7H103v1.7h-3.4l-.8.8V138l.8.8h3.4v1.7H90.3v-1.7Zm17.6 1.7h-.8l-1.3-12.7h1.3c1.4 8.1 4.6 11.7 10.7 11.7 4.3 0 7.1-2.3 7.1-5.9 0-4.3-4.2-5.9-8.6-7.6-4.6-1.7-9.3-3.6-9.3-8.8 0-5.3 3.7-8.5 9.5-8.5 3 0 4.8.8 8.7.8h.8l1.3 10.6H126c-1.3-6.2-4.4-9.5-9.5-9.5-3.5 0-5.8 2-5.8 5 0 4.1 4.3 5.7 8.8 7.5 4.8 1.9 9.8 3.9 9.8 9 0 5.8-4.3 9.3-11.7 9.3-3.4-.1-5.6-.9-9.7-.9Zm25.7-1.7h3.4l.8-.8v-25.9l-.8-.8h-3.4v-1.7h27.2v1.7h-3.1l-9 9.8 10.8 17 1.3.8h2.5v1.7h-29.7v-1.8Zm20.3-26.7-.4-.8h-10.6l-.8.8v13.1l11.8-13.1Zm-11 26.7h10.6l.4-.8-8.4-13.4-3.5 4v9.4l.9.8Zm20.8-29.3h30.6v1.7h-2.9l-10.3 17v9.8l.8.8h3.4v1.7h-12.7v-1.7h3.4l.8-.8v-9.8l-8.9-16.1-.8-.8h-3.4v-1.8Zm16.1 15.7h.4l8.1-13.2-.8-.8h-14l-.8.8 7.1 13.2Zm16.1-15.7h31.4v1.7h-3.1l-10.9 29.3h-3.2l-10.7-29.3h-3.5v-1.7Zm16.6 25.5h.4l8.5-22.9-.8-.8h-15.3l-.8.8 8 22.9Zm17 3.8h2.5l.8-.8v-25.9l-.8-.8h-2.5v-1.7h22.9l1.3 9.8h-1.3l-3.4-7.6h-11l-.8.8v10.6h6.4l1.7-5.9h1.3v14h-1.3l-1.7-5.9h-6.4v12.3l.8.8h12.3l3.4-7.6h1.3l-1.3 9.8h-24.2v-1.9Zm28.4 0h3.4l.8-.8v-25.9l-.8-.8h-3.4v-1.7h13.6c7.2 0 11.7 3.1 11.7 8.1 0 4.3-3.3 7.2-8.8 7.9l11.1 13.3 3.4.4v1.3h-31v-1.8Zm13.6-15.3c4.3 0 7-2.2 7-5.9 0-3.6-2.7-5.9-7-5.9h-4.2l-.8.8v11h5Zm-4.3 15.3h12.5l-10.4-13.2h-3v12.3l.9.9Zm26.1 1.7h-.8l-1.3-12.7h1.3c1.4 8.1 4.6 11.7 10.7 11.7 4.3 0 7.1-2.3 7.1-5.9 0-4.3-4.2-5.9-8.6-7.6-4.6-1.7-9.3-3.6-9.3-8.8 0-5.3 3.7-8.5 9.5-8.5 3 0 4.8.8 8.7.8h.8l1.3 10.6h-1.3c-1.3-6.2-4.4-9.5-9.5-9.5-3.5 0-5.8 2-5.8 5 0 4.1 4.3 5.7 8.8 7.5 4.8 1.9 9.8 3.9 9.8 9 0 5.8-4.3 9.3-11.7 9.3-3.4-.1-5.6-.9-9.7-.9Zm25.7-1.7h2.5l.8-.8v-25.9l-.8-.8H319v-1.7h22.9l1.3 9.8h-1.3l-3.4-7.6h-11l-.8.8v10.6h6.4l1.7-5.9h1.3v14h-1.3l-1.7-5.9h-6.4v12.3l.8.8h12.3l3.4-7.6h1.3l-1.3 9.8H319v-1.9Z" fill="url(#a)"/><defs><linearGradient id="a" x1="3.32" y1="103.73" x2="344.43" y2="103.73" gradientUnits="userSpaceOnUse"><stop stop-color="#C6FAED"/><stop offset=".11" stop-color="#80B6F1"/><stop offset=".21" stop-color="#9DA3E4"/><stop offset=".33" stop-color="#ECDEE5"/><stop offset=".47" stop-color="#FCE2C3"/><stop offset=".57" stop-color="#EFF1E6"/><stop offset=".69" stop-color="#C6FAED"/><stop offset=".78" stop-color="#80B6F1"/><stop offset=".88" stop-color="#9DA3E4"/><stop offset=".96" stop-color="#ECDEE5"/></linearGradient></defs></svg>