<svg width="595" height="131" viewBox="0 0 595 131" fill="none" xmlns="http://www.w3.org/2000/svg">
<path d="M131.478 49L140.298 49L140.298 46.948L134.052 46.948C134.052 46.588 134.34 46.3 135.258 45.868L137.382 44.878C138.822 44.212 140.1 43.258 140.1 41.476C140.1 39.55 138.606 38.38 136.068 38.38C133.404 38.38 131.712 39.676 131.712 42.07L134.016 42.07C134.016 40.954 134.79 40.432 135.96 40.432C136.896 40.432 137.562 40.756 137.562 41.602C137.562 42.25 137.184 42.682 135.78 43.33L133.692 44.302C132.468 44.878 131.478 45.94 131.478 47.524L131.478 49ZM147.591 49.18C150.777 49.18 152.163 46.984 152.163 43.708C152.163 40.432 150.777 38.38 147.591 38.38C144.423 38.38 143.019 40.504 143.019 43.834C143.019 47.182 144.441 49.18 147.591 49.18ZM147.591 47.056C145.845 47.056 145.575 45.67 145.575 43.762C145.575 41.854 145.845 40.504 147.591 40.504C149.337 40.504 149.607 41.854 149.607 43.762C149.607 45.67 149.337 47.056 147.591 47.056ZM155.064 49L163.884 49L163.884 46.948L157.638 46.948C157.638 46.588 157.926 46.3 158.844 45.868L160.968 44.878C162.408 44.212 163.686 43.258 163.686 41.476C163.686 39.55 162.192 38.38 159.654 38.38C156.99 38.38 155.298 39.676 155.298 42.07L157.602 42.07C157.602 40.954 158.376 40.432 159.546 40.432C160.482 40.432 161.148 40.756 161.148 41.602C161.148 42.25 160.77 42.682 159.366 43.33L157.278 44.302C156.054 44.878 155.064 45.94 155.064 47.524L155.064 49ZM167.433 49L175.029 49L175.029 46.948L172.707 46.948L172.707 38.578L170.907 38.578C170.529 39.388 169.701 39.676 168.603 39.676L167.433 39.676L167.433 41.854L168.099 41.854C169.377 41.854 169.881 41.476 170.241 41.134L170.241 46.948L167.433 46.948L167.433 49ZM190.983 49L193.485 49L193.485 45.31L198.075 45.31L198.075 43.222L193.485 43.222L193.485 40.666L198.831 40.666L198.831 38.578L190.983 38.578L190.983 49ZM202.776 49L210.624 49L210.624 46.912L205.278 46.912L205.278 38.578L202.776 38.578L202.776 49ZM213.399 49L216.009 49L216.675 46.876L219.969 46.876L220.653 49L223.299 49L219.645 38.578L217.035 38.578L213.399 49ZM217.431 44.446L218.295 41.242L219.195 44.446L219.339 44.932L217.269 44.932L217.431 44.446ZM228.936 49L231.348 49L235.2 38.578L232.518 38.578L230.97 43.42L230.214 46.174L229.458 43.402L227.892 38.578L225.084 38.578L228.936 49ZM238.137 49L245.733 49L245.733 46.912L243.177 46.912L243.177 40.666L245.733 40.666L245.733 38.578L238.137 38.578L238.137 40.666L240.675 40.666L240.675 46.912L238.137 46.912L238.137 49ZM248.778 49L251.388 49L252.054 46.876L255.348 46.876L256.032 49L258.678 49L255.024 38.578L252.414 38.578L248.778 49ZM252.81 44.446L253.674 41.242L254.574 44.446L254.718 44.932L252.648 44.932L252.81 44.446ZM261.741 49L264.243 49L264.243 45.562L265.359 45.562L267.501 49L270.507 49L267.735 45.058C268.797 44.59 269.733 43.69 269.733 42.034C269.733 39.55 267.627 38.578 265.143 38.578L261.741 38.578L261.741 49ZM264.243 40.63L265.143 40.63C266.457 40.63 267.159 41.044 267.159 42.106C267.159 43.15 266.457 43.582 265.143 43.582L264.243 43.582L264.243 40.63ZM284.157 49L286.767 49L287.433 46.876L290.727 46.876L291.411 49L294.057 49L290.403 38.578L287.793 38.578L284.157 49ZM288.189 44.446L289.053 41.242L289.953 44.446L290.097 44.932L288.027 44.932L288.189 44.446ZM297.12 49L300.558 49C304.05 49 305.472 47.02 305.472 43.69C305.472 40.324 304.014 38.578 300.558 38.578L297.12 38.578L297.12 49ZM299.622 40.666L300.558 40.666C302.448 40.666 302.898 41.692 302.898 43.78C302.898 45.85 302.448 46.912 300.558 46.912L299.622 46.912L299.622 40.666ZM311.487 49L313.899 49L317.751 38.578L315.069 38.578L313.521 43.42L312.765 46.174L312.009 43.402L310.443 38.578L307.635 38.578L311.487 49ZM320.706 49L328.464 49L328.464 46.912L323.208 46.912L323.208 44.734L327.636 44.734L327.636 42.646L323.208 42.646L323.208 40.666L328.464 40.666L328.464 38.578L320.706 38.578L320.706 49ZM332.499 49L334.695 49L334.695 44.518L334.353 41.17L336.999 49L340.059 49L340.059 38.578L337.863 38.578L337.863 43.06L338.205 46.408L335.559 38.578L332.499 38.578L332.499 49ZM346.812 49L349.314 49L349.314 40.666L352.698 40.666L352.698 38.578L343.446 38.578L343.446 40.666L346.812 40.666L346.812 49ZM371.766 49.18C374.61 49.18 376.014 47.74 376.194 45.022L373.638 45.022C373.548 46.426 373.044 47.038 371.784 47.038C370.002 47.038 369.66 45.796 369.66 43.78C369.66 41.764 370.002 40.522 371.748 40.522C372.99 40.522 373.548 41.152 373.638 42.556L376.194 42.556C376.068 39.802 374.7 38.38 371.892 38.38C368.436 38.38 367.086 40.522 367.086 43.87C367.086 47.164 368.4 49.18 371.766 49.18ZM378.501 49L381.111 49L381.777 46.876L385.071 46.876L385.755 49L388.401 49L384.747 38.578L382.137 38.578L378.501 49ZM382.533 44.446L383.397 41.242L384.297 44.446L384.441 44.932L382.371 44.932L382.533 44.446ZM391.464 49L399.312 49L399.312 46.912L393.966 46.912L393.966 38.578L391.464 38.578L391.464 49ZM403.257 49L411.015 49L411.015 46.912L405.759 46.912L405.759 44.734L410.187 44.734L410.187 42.646L405.759 42.646L405.759 40.666L411.015 40.666L411.015 38.578L403.257 38.578L403.257 49ZM415.05 49L417.246 49L417.246 44.518L416.904 41.17L419.55 49L422.61 49L422.61 38.578L420.414 38.578L420.414 43.06L420.756 46.408L418.11 38.578L415.05 38.578L415.05 49ZM426.843 49L430.281 49C433.773 49 435.195 47.02 435.195 43.69C435.195 40.324 433.737 38.578 430.281 38.578L426.843 38.578L426.843 49ZM429.345 40.666L430.281 40.666C432.171 40.666 432.621 41.692 432.621 43.78C432.621 45.85 432.171 46.912 430.281 46.912L429.345 46.912L429.345 40.666ZM437.466 49L440.076 49L440.742 46.876L444.036 46.876L444.72 49L447.366 49L443.712 38.578L441.102 38.578L437.466 49ZM441.498 44.446L442.362 41.242L443.262 44.446L443.406 44.932L441.336 44.932L441.498 44.446ZM450.429 49L452.931 49L452.931 45.562L454.047 45.562L456.189 49L459.195 49L456.423 45.058C457.485 44.59 458.421 43.69 458.421 42.034C458.421 39.55 456.315 38.578 453.831 38.578L450.429 38.578L450.429 49ZM452.931 40.63L453.831 40.63C455.145 40.63 455.847 41.044 455.847 42.106C455.847 43.15 455.145 43.582 453.831 43.582L452.931 43.582L452.931 40.63Z" fill="#E1DDD6"/>
<path d="M289.975 2.96332C289.975 4.2411 292.291 5.2793 295.086 5.2793C297.881 5.2793 300.197 4.2411 300.197 2.96332C300.197 1.68554 297.881 0.647339 295.086 0.647339C292.211 0.647339 289.975 1.68554 289.975 2.96332Z" stroke="#BFB7AB" stroke-miterlimit="10"/>
<path d="M291.332 18.6161C291.332 18.6161 289.975 19.814 289.975 22.5293C289.975 23.8071 292.291 24.8453 295.086 24.8453C297.881 24.8453 300.197 23.8071 300.197 22.5293C300.197 19.7341 298.839 18.6161 298.839 18.6161" stroke="#BFB7AB" stroke-miterlimit="10"/>
<path d="M289.975 2.96326C289.975 8.31397 287.978 10.1508 287.978 13.4251C287.978 16.7793 291.172 19.4946 295.086 19.4946C298.999 19.4946 302.193 16.7793 302.193 13.4251C302.193 10.0709 300.197 8.23411 300.197 2.96326" stroke="#BFB7AB" stroke-miterlimit="10"/>
<path d="M291.412 19.6543C292.45 20.2133 293.728 20.5328 295.086 20.5328C296.443 20.5328 297.721 20.2133 298.759 19.6543" stroke="#BFB7AB" stroke-miterlimit="10"/>
<path d="M289.016 13.5848C289.016 16.2202 291.731 18.3765 295.006 18.3765C298.36 18.3765 300.995 16.2202 300.995 13.5848C300.995 11.9077 298.52 10.55 295.006 10.55C291.652 10.55 289.016 11.8278 289.016 13.5848Z" stroke="#BFB7AB" stroke-miterlimit="10"/>
<path d="M290.773 5.2793C291.651 5.91819 293.249 6.31749 295.006 6.31749C296.842 6.31749 298.36 5.91819 299.318 5.2793" stroke="#BFB7AB" stroke-miterlimit="10"/>
<path d="M295.005 15.5016C296.842 15.5016 298.439 15.1023 299.398 14.4634" stroke="#BFB7AB" stroke-miterlimit="10"/>
<path d="M290.773 14.5432C291.412 14.9425 292.29 15.262 293.329 15.4217" stroke="#BFB7AB" stroke-miterlimit="10"/>
<path d="M274.721 13.9044C274.721 15.0225 273.843 15.9808 272.645 15.9808C271.527 15.9808 270.568 15.1024 270.568 13.9044C270.568 12.7864 272.645 9.59192 272.645 9.59192C272.645 9.59192 274.721 12.7864 274.721 13.9044Z" stroke="#BFB7AB" stroke-miterlimit="10"/>
<path d="M315.37 13.9044C315.37 15.0225 316.249 15.9808 317.447 15.9808C318.565 15.9808 319.523 15.1024 319.523 13.9044C319.523 12.7864 317.447 9.59192 317.447 9.59192C317.447 9.59192 315.37 12.7864 315.37 13.9044Z" stroke="#BFB7AB" stroke-miterlimit="10"/>
<path d="M191.585 11.5085C192.304 11.5085 192.863 12.0676 192.863 12.7863C192.863 13.5051 192.304 14.0641 191.585 14.0641C190.867 14.0641 190.308 13.5051 190.308 12.7863C190.308 12.0676 190.947 11.5085 191.585 11.5085Z" stroke="#BFB7AB" stroke-miterlimit="10"/>
<path d="M231.915 11.5085C232.634 11.5085 233.193 12.0676 233.193 12.7863C233.193 13.5051 232.634 14.0641 231.915 14.0641C231.197 14.0641 230.638 13.5051 230.638 12.7863C230.638 12.0676 231.197 11.5085 231.915 11.5085Z" stroke="#BFB7AB" stroke-miterlimit="10"/>
<path d="M156.925 11.5085C157.644 11.5085 158.203 12.0676 158.203 12.7863C158.203 13.5051 157.644 14.0641 156.925 14.0641C156.206 14.0641 155.647 13.5051 155.647 12.7863C155.647 12.0676 156.206 11.5085 156.925 11.5085Z" stroke="#BFB7AB" stroke-miterlimit="10"/>
<path d="M398.506 11.5085C397.788 11.5085 397.229 12.0676 397.229 12.7863C397.229 13.5051 397.788 14.0641 398.506 14.0641C399.225 14.0641 399.784 13.5051 399.784 12.7863C399.784 12.0676 399.225 11.5085 398.506 11.5085Z" stroke="#BFB7AB" stroke-miterlimit="10"/>
<path d="M358.176 11.5085C357.457 11.5085 356.898 12.0676 356.898 12.7863C356.898 13.5051 357.457 14.0641 358.176 14.0641C358.895 14.0641 359.454 13.5051 359.454 12.7863C359.454 12.0676 358.895 11.5085 358.176 11.5085Z" stroke="#BFB7AB" stroke-miterlimit="10"/>
<path d="M433.165 11.5085C432.447 11.5085 431.888 12.0676 431.888 12.7863C431.888 13.5051 432.447 14.0641 433.165 14.0641C433.884 14.0641 434.443 13.5051 434.443 12.7863C434.443 12.0676 433.884 11.5085 433.165 11.5085Z" stroke="#BFB7AB" stroke-miterlimit="10"/>
<path d="M347.954 9.67156L347.874 9.51184C347.555 8.31392 346.277 7.67503 345.159 7.99447L341.725 8.95281C342.524 8.1542 343.003 7.116 343.003 5.91808C343.003 3.52224 341.086 1.68542 338.77 1.68542C336.374 1.68542 334.538 3.6021 334.538 5.91808C334.538 7.116 335.017 8.1542 335.815 8.95281L332.381 7.99447C331.183 7.67503 329.986 8.31392 329.666 9.51184L329.586 9.67156C329.267 10.8695 329.906 12.0674 331.104 12.3868L334.617 13.425C334.777 13.6646 334.937 14.1438 334.697 14.9424C334.378 16.3001 333.659 17.5778 333.659 17.5778L332.222 20.2133C331.583 21.2515 332.062 22.689 333.26 23.3279L333.42 23.4077C334.617 24.0466 336.055 23.7272 336.694 22.689L337.732 20.8522C337.732 20.8522 337.972 20.4528 338.052 20.2931C338.371 19.814 338.611 19.3348 338.93 19.0153C339.249 19.3348 339.489 19.7341 339.808 20.2931C339.888 20.4528 340.128 20.8522 340.128 20.8522L341.166 22.689C341.805 23.7272 343.242 24.0466 344.44 23.4077L344.6 23.3279C345.798 22.689 346.277 21.2515 345.638 20.2133L344.201 17.5778C344.201 17.5778 343.482 16.2202 343.163 14.9424C342.923 13.9841 343.243 13.425 343.322 13.2653L346.437 12.3868C347.635 12.0674 348.274 10.8695 347.954 9.67156Z" stroke="#BFB7AB" stroke-miterlimit="10"/>
<path d="M331.104 12.307C331.183 12.0675 331.503 12.2272 331.583 11.9876C331.663 11.748 331.263 11.6682 331.343 11.4286C331.423 11.189 331.742 11.3487 331.822 11.1091C331.902 10.8695 331.503 10.7897 331.583 10.5501C331.663 10.3105 331.982 10.4702 332.062 10.2307C332.142 9.99107 331.742 9.91121 331.822 9.67162C331.902 9.43204 332.222 9.59176 332.301 9.35218C332.381 9.11259 331.982 9.03273 332.062 8.79315C332.142 8.55356 332.461 8.71329 332.541 8.4737C332.621 8.23412 332.222 8.15426 332.301 7.91467" stroke="#BFB7AB" stroke-miterlimit="10"/>
<path d="M331.104 12.307C331.183 12.0675 331.503 12.2272 331.583 11.9876C331.663 11.748 331.263 11.6682 331.343 11.4286C331.423 11.189 331.742 11.3487 331.822 11.1091C331.902 10.8695 331.503 10.7897 331.583 10.5501C331.663 10.3105 331.982 10.4702 332.062 10.2307C332.142 9.99107 331.742 9.91121 331.822 9.67162C331.902 9.43204 332.222 9.59176 332.301 9.35218C332.381 9.11259 331.982 9.03273 332.062 8.79315C332.142 8.55356 332.461 8.71329 332.541 8.4737C332.621 8.23412 332.222 8.15426 332.301 7.91467" stroke="#BFB7AB" stroke-miterlimit="10"/>
<path d="M333.1 18.9357C333.339 19.0155 333.179 19.4148 333.339 19.4947C333.579 19.5746 333.738 19.2551 333.978 19.4148C334.218 19.4947 334.058 19.894 334.218 19.9739C334.457 20.0537 334.617 19.7343 334.857 19.894C335.096 19.9739 334.936 20.3732 335.096 20.453C335.336 20.5329 335.495 20.2135 335.735 20.3732C335.975 20.453 335.815 20.8523 335.975 20.9322C336.214 21.0121 336.374 20.6926 336.614 20.8523C336.853 20.9322 336.693 21.3315 336.853 21.4114C337.093 21.4912 337.252 21.1718 337.492 21.3315" stroke="#BFB7AB" stroke-miterlimit="10"/>
<path d="M344.999 19.2549C344.76 19.3347 344.6 19.0153 344.36 19.175C344.121 19.2549 344.281 19.6542 344.121 19.7341C343.881 19.8139 343.722 19.4945 343.482 19.6542C343.242 19.7341 343.402 20.1334 343.242 20.2132C343.003 20.2931 342.843 19.9736 342.603 20.1334C342.364 20.2132 342.524 20.6125 342.364 20.6924C342.124 20.7723 341.965 20.4528 341.725 20.6125C341.485 20.6924 341.645 21.0917 341.485 21.1716C341.246 21.2514 341.086 20.932 340.847 21.0917C340.607 21.1716 340.767 21.5709 340.607 21.6507" stroke="#BFB7AB" stroke-miterlimit="10"/>
<path d="M346.437 12.3869C346.357 12.1473 346.756 12.0674 346.676 11.8279C346.596 11.5883 346.277 11.748 346.197 11.5084C346.117 11.2688 346.517 11.189 346.437 10.9494C346.357 10.7098 346.037 10.8695 345.958 10.6299C345.878 10.3903 346.277 10.3105 346.197 10.0709C346.117 9.83132 345.798 9.99104 345.718 9.75146C345.638 9.51187 346.037 9.43201 345.958 9.19243C345.878 8.95284 345.558 9.11257 345.478 8.87298C345.399 8.6334 345.798 8.55354 345.718 8.31395C345.638 8.07437 345.319 8.23409 345.239 7.99451" stroke="#BFB7AB" stroke-miterlimit="10"/>
<path d="M339.569 12.7863C339.569 13.1856 339.249 13.505 338.85 13.505C338.451 13.505 338.131 13.1856 338.131 12.7863C338.131 12.387 338.451 12.0675 338.85 12.0675C339.249 12.0675 339.569 12.387 339.569 12.7863Z" stroke="#BFB7AB" stroke-miterlimit="10"/>
<path d="M339.569 15.1023C339.569 15.5016 339.249 15.8211 338.85 15.8211C338.451 15.8211 338.131 15.5016 338.131 15.1023C338.131 14.703 338.451 14.3835 338.85 14.3835C339.249 14.3835 339.569 14.703 339.569 15.1023Z" stroke="#BFB7AB" stroke-miterlimit="10"/>
<path d="M339.569 10.3905C339.569 10.7898 339.249 11.1093 338.85 11.1093C338.451 11.1093 338.131 10.7898 338.131 10.3905C338.131 9.9912 338.451 9.67175 338.85 9.67175C339.249 9.67175 339.569 9.9912 339.569 10.3905Z" stroke="#BFB7AB" stroke-miterlimit="10"/>
<path d="M340.527 5.11967C340.527 5.35926 340.288 5.59884 340.048 5.59884C339.808 5.59884 339.569 5.35926 339.569 5.11967C339.569 4.88009 339.808 4.6405 340.048 4.6405C340.288 4.6405 340.527 4.88009 340.527 5.11967Z" stroke="#BFB7AB" stroke-miterlimit="10"/>
<path d="M337.812 5.11967C337.812 5.35926 337.572 5.59884 337.333 5.59884C337.093 5.59884 336.854 5.35926 336.854 5.11967C336.854 4.88009 337.093 4.6405 337.333 4.6405C337.572 4.6405 337.812 4.88009 337.812 5.11967Z" stroke="#BFB7AB" stroke-miterlimit="10"/>
<path d="M339.888 6.87659C339.888 7.27589 339.409 7.59534 338.85 7.59534C338.291 7.59534 337.812 7.27589 337.812 6.87659" stroke="#BFB7AB" stroke-miterlimit="10"/>
<path d="M260.586 9.67156L260.506 9.51184C260.186 8.31392 258.909 7.67503 257.791 7.99447L254.356 8.95281C255.155 8.1542 255.634 7.116 255.634 5.91808C255.634 3.6021 253.718 1.68542 251.402 1.68542C249.006 1.68542 247.169 3.6021 247.169 5.91808C247.169 7.116 247.648 8.1542 248.447 8.95281L245.013 7.99447C243.815 7.67503 242.617 8.31392 242.297 9.51184L242.218 9.67156C241.898 10.8695 242.537 12.0674 243.735 12.3868L247.249 13.425C247.409 13.6646 247.568 14.1438 247.329 14.9424C247.009 16.3001 246.29 17.5778 246.29 17.5778L244.853 20.2133C244.214 21.2515 244.693 22.689 245.891 23.3279L246.051 23.4077C247.249 24.0466 248.686 23.7272 249.325 22.689L250.363 20.8522C250.363 20.8522 250.603 20.4528 250.683 20.2931C251.002 19.814 251.242 19.3348 251.561 19.0153C251.881 19.3348 252.12 19.7341 252.44 20.2931C252.52 20.4528 252.759 20.8522 252.759 20.8522L253.797 22.689C254.436 23.7272 255.874 24.0466 257.072 23.4077L257.231 23.3279C258.429 22.689 258.909 21.2515 258.27 20.2133L256.832 17.5778C256.832 17.5778 256.113 16.2202 255.794 14.9424C255.554 13.9841 255.874 13.425 255.954 13.2653L259.068 12.3868C260.186 12.0674 260.905 10.8695 260.586 9.67156Z" stroke="#BFB7AB" stroke-miterlimit="10"/>
<path d="M243.735 12.307C243.815 12.0675 244.134 12.2272 244.214 11.9876C244.294 11.748 243.895 11.6682 243.974 11.4286C244.054 11.189 244.374 11.3487 244.454 11.1091C244.533 10.8695 244.134 10.7897 244.214 10.5501C244.294 10.3105 244.613 10.4702 244.693 10.2307C244.773 9.99107 244.374 9.91121 244.454 9.67162C244.533 9.43204 244.853 9.59176 244.933 9.35218C245.013 9.11259 244.613 9.03273 244.693 8.79315C244.773 8.55356 245.093 8.71329 245.172 8.4737C245.252 8.23412 244.853 8.15426 244.933 7.91467" stroke="#BFB7AB" stroke-miterlimit="10"/>
<path d="M243.735 12.307C243.815 12.0675 244.134 12.2272 244.214 11.9876C244.294 11.748 243.895 11.6682 243.974 11.4286C244.054 11.189 244.374 11.3487 244.454 11.1091C244.533 10.8695 244.134 10.7897 244.214 10.5501C244.294 10.3105 244.613 10.4702 244.693 10.2307C244.773 9.99107 244.374 9.91121 244.454 9.67162C244.533 9.43204 244.853 9.59176 244.933 9.35218C245.013 9.11259 244.613 9.03273 244.693 8.79315C244.773 8.55356 245.093 8.71329 245.172 8.4737C245.252 8.23412 244.853 8.15426 244.933 7.91467" stroke="#BFB7AB" stroke-miterlimit="10"/>
<path d="M245.732 18.9357C245.972 19.0155 245.812 19.4148 245.972 19.4947C246.211 19.5746 246.371 19.2551 246.61 19.4148C246.85 19.5746 246.69 19.894 246.85 19.9739C247.09 20.0537 247.249 19.7343 247.489 19.894C247.728 19.9739 247.569 20.3732 247.728 20.453C247.968 20.5329 248.128 20.2135 248.367 20.3732C248.607 20.453 248.447 20.8523 248.607 20.9322C248.847 21.0121 249.006 20.6926 249.246 20.8523C249.485 20.9322 249.326 21.3315 249.485 21.4114C249.725 21.4912 249.885 21.1718 250.124 21.3315" stroke="#BFB7AB" stroke-miterlimit="10"/>
<path d="M257.631 19.2549C257.391 19.3347 257.231 19.0153 256.992 19.175C256.752 19.2549 256.912 19.6542 256.752 19.7341C256.513 19.8139 256.353 19.4945 256.113 19.6542C255.874 19.7341 256.033 20.1334 255.874 20.2132C255.634 20.2931 255.474 19.9736 255.235 20.1334C254.995 20.2132 255.155 20.6125 254.995 20.6924C254.756 20.7723 254.596 20.4528 254.356 20.6125C254.117 20.6924 254.276 21.0917 254.117 21.1716C253.877 21.2514 253.717 20.932 253.478 21.0917C253.238 21.1716 253.398 21.5709 253.238 21.6507" stroke="#BFB7AB" stroke-miterlimit="10"/>
<path d="M259.069 12.3869C258.989 12.1473 259.388 12.0674 259.309 11.8279C259.229 11.5883 258.909 11.748 258.829 11.5084C258.75 11.2688 259.149 11.189 259.069 10.9494C258.989 10.7098 258.67 10.8695 258.59 10.6299C258.51 10.3903 258.909 10.3105 258.829 10.0709C258.75 9.83132 258.43 9.99104 258.35 9.75146C258.27 9.51187 258.67 9.43201 258.59 9.19243C258.51 8.95284 258.191 9.11257 258.111 8.87298C258.031 8.6334 258.43 8.55354 258.35 8.31395C258.27 8.07437 257.951 8.23409 257.871 7.99451" stroke="#BFB7AB" stroke-miterlimit="10"/>
<path d="M252.121 12.7863C252.121 13.1856 251.801 13.505 251.402 13.505C251.003 13.505 250.683 13.1856 250.683 12.7863C250.683 12.387 251.003 12.0675 251.402 12.0675C251.801 12.0675 252.121 12.387 252.121 12.7863Z" stroke="#BFB7AB" stroke-miterlimit="10"/>
<path d="M252.121 15.1023C252.121 15.5016 251.801 15.8211 251.402 15.8211C251.003 15.8211 250.683 15.5016 250.683 15.1023C250.683 14.703 251.003 14.3835 251.402 14.3835C251.801 14.3835 252.121 14.703 252.121 15.1023Z" stroke="#BFB7AB" stroke-miterlimit="10"/>
<path d="M252.121 10.3905C252.121 10.7898 251.801 11.1093 251.402 11.1093C251.003 11.1093 250.683 10.7898 250.683 10.3905C250.683 9.9912 251.003 9.67175 251.402 9.67175C251.801 9.67175 252.121 9.9912 252.121 10.3905Z" stroke="#BFB7AB" stroke-miterlimit="10"/>
<path d="M253.159 5.11967C253.159 5.35926 252.919 5.59884 252.68 5.59884C252.44 5.59884 252.201 5.35926 252.201 5.11967C252.201 4.88009 252.44 4.6405 252.68 4.6405C252.919 4.6405 253.159 4.88009 253.159 5.11967Z" stroke="#BFB7AB" stroke-miterlimit="10"/>
<path d="M250.364 5.11967C250.364 5.35926 250.124 5.59884 249.884 5.59884C249.645 5.59884 249.405 5.35926 249.405 5.11967C249.405 4.88009 249.645 4.6405 249.884 4.6405C250.124 4.6405 250.364 4.88009 250.364 5.11967Z" stroke="#BFB7AB" stroke-miterlimit="10"/>
<path d="M252.52 6.87659C252.52 7.27589 252.041 7.59534 251.482 7.59534C250.923 7.59534 250.443 7.27589 250.443 6.87659" stroke="#BFB7AB" stroke-miterlimit="10"/>
<path d="M423.343 8.87305H408.249V21.7307H423.343V8.87305Z" stroke="#BFB7AB" stroke-miterlimit="10"/>
<path d="M424.301 6.7168H407.291V8.87305H424.301V6.7168Z" stroke="#BFB7AB" stroke-miterlimit="10"/>
<path d="M416.635 6.55725H414.958V21.7309H416.635V6.55725Z" stroke="#BFB7AB" stroke-miterlimit="10"/>
<path d="M415.438 6.63695C416.236 5.83834 416.476 3.52236 417.993 3.84181C418.792 4.00153 419.51 4.80014 419.431 5.5189C419.191 6.71682 417.993 5.9182 415.438 6.63695Z" stroke="#BFB7AB" stroke-miterlimit="10"/>
<path d="M415.677 6.47728C415.118 5.91825 414.958 3.762 413.68 4.56061C412.243 5.43908 415.277 6.79673 415.677 6.47728Z" stroke="#BFB7AB" stroke-miterlimit="10"/>
<path d="M181.843 8.87305H166.749V21.7307H181.843V8.87305Z" stroke="#BFB7AB" stroke-miterlimit="10"/>
<path d="M182.801 6.7168H165.791V8.87305H182.801V6.7168Z" stroke="#BFB7AB" stroke-miterlimit="10"/>
<path d="M175.135 6.55713H173.458V21.7308H175.135V6.55713Z" stroke="#BFB7AB" stroke-miterlimit="10"/>
<path d="M173.938 6.63695C174.736 5.83834 174.976 3.52236 176.493 3.84181C177.292 4.00153 178.01 4.80014 177.931 5.5189C177.691 6.71682 176.493 5.9182 173.938 6.63695Z" stroke="#BFB7AB" stroke-miterlimit="10"/>
<path d="M174.097 6.47728C173.538 5.91825 173.378 3.762 172.1 4.56061C170.742 5.43908 173.777 6.79673 174.097 6.47728Z" stroke="#BFB7AB" stroke-miterlimit="10"/>
<path d="M378.381 1.12634V24.5257" stroke="#BFB7AB" stroke-miterlimit="10"/>
<path d="M378.302 0.966797C377.823 1.76541 377.264 2.56402 376.465 3.04319C376.225 3.20292 375.986 3.28278 375.746 3.28278C375.347 3.28278 374.868 3.04319 374.708 2.64389" stroke="#BFB7AB" stroke-miterlimit="10"/>
<path d="M375.187 2.32438C375.187 2.56397 375.027 2.80355 374.708 2.80355C374.468 2.80355 374.229 2.64383 374.229 2.32438C374.229 2.0848 374.388 1.84521 374.708 1.84521C375.027 1.84521 375.187 2.00494 375.187 2.32438Z" stroke="#BFB7AB" stroke-miterlimit="10"/>
<path d="M378.381 0.966797C378.861 1.76541 379.42 2.56402 380.218 3.04319C380.458 3.20292 380.697 3.28278 380.937 3.28278C381.336 3.28278 381.815 3.04319 381.975 2.64389" stroke="#BFB7AB" stroke-miterlimit="10"/>
<path d="M381.496 2.32438C381.496 2.56397 381.655 2.80355 381.975 2.80355C382.214 2.80355 382.454 2.64383 382.454 2.32438C382.454 2.0848 382.294 1.84521 381.975 1.84521C381.655 1.84521 381.496 2.00494 381.496 2.32438Z" stroke="#BFB7AB" stroke-miterlimit="10"/>
<path d="M378.302 4.32092C377.823 5.11954 377.264 5.91815 376.465 6.39732C376.225 6.55704 375.986 6.6369 375.746 6.6369C375.347 6.6369 374.868 6.39732 374.708 5.99801" stroke="#BFB7AB" stroke-miterlimit="10"/>
<path d="M375.187 5.59868C375.187 5.83826 375.027 6.07784 374.708 6.07784C374.468 6.07784 374.229 5.91812 374.229 5.59868C374.229 5.35909 374.388 5.11951 374.708 5.11951C375.027 5.19937 375.187 5.35909 375.187 5.59868Z" stroke="#BFB7AB" stroke-miterlimit="10"/>
<path d="M378.381 4.32092C378.861 5.11954 379.42 5.91815 380.218 6.39732C380.458 6.55704 380.697 6.6369 380.937 6.6369C381.336 6.6369 381.815 6.39732 381.975 5.99801" stroke="#BFB7AB" stroke-miterlimit="10"/>
<path d="M381.496 5.59868C381.496 5.83826 381.655 6.07784 381.975 6.07784C382.214 6.07784 382.454 5.91812 382.454 5.59868C382.454 5.35909 382.294 5.11951 381.975 5.11951C381.655 5.19937 381.496 5.35909 381.496 5.59868Z" stroke="#BFB7AB" stroke-miterlimit="10"/>
<path d="M378.301 7.43542C377.742 8.39376 377.103 9.3521 376.145 9.91113C375.905 10.0709 375.586 10.1507 375.266 10.2306C374.787 10.2306 374.228 9.91113 374.068 9.43196" stroke="#BFB7AB" stroke-miterlimit="10"/>
<path d="M374.628 9.03278C374.628 9.35223 374.388 9.59181 374.069 9.59181C373.749 9.59181 373.51 9.35223 373.51 9.03278C373.51 8.71334 373.749 8.47375 374.069 8.47375C374.388 8.47375 374.628 8.71334 374.628 9.03278Z" stroke="#BFB7AB" stroke-miterlimit="10"/>
<path d="M378.381 7.43542C378.94 8.39376 379.579 9.3521 380.538 9.91113C380.777 10.0709 381.097 10.1507 381.416 10.2306C381.895 10.2306 382.454 9.91113 382.614 9.43196" stroke="#BFB7AB" stroke-miterlimit="10"/>
<path d="M382.055 9.03278C382.055 9.35223 382.294 9.59181 382.614 9.59181C382.933 9.59181 383.173 9.35223 383.173 9.03278C383.173 8.71334 382.933 8.47375 382.614 8.47375C382.294 8.47375 382.055 8.71334 382.055 9.03278Z" stroke="#BFB7AB" stroke-miterlimit="10"/>
<path d="M378.301 10.4702C377.582 11.6681 376.784 12.8661 375.586 13.5848C375.266 13.7445 374.867 13.9043 374.468 13.9043C373.829 13.9043 373.19 13.5049 372.95 12.9459" stroke="#BFB7AB" stroke-miterlimit="10"/>
<path d="M373.749 12.3869C373.749 12.7862 373.43 13.0258 373.11 13.0258C372.711 13.0258 372.471 12.7064 372.471 12.3869C372.471 11.9876 372.791 11.748 373.11 11.748C373.43 11.748 373.749 11.9876 373.749 12.3869Z" stroke="#BFB7AB" stroke-miterlimit="10"/>
<path d="M378.381 10.4702C379.1 11.6681 379.899 12.8661 381.097 13.5848C381.416 13.7445 381.815 13.9043 382.215 13.9043C382.854 13.9043 383.492 13.5049 383.732 12.9459" stroke="#BFB7AB" stroke-miterlimit="10"/>
<path d="M382.934 12.3869C382.934 12.7862 383.253 13.0258 383.572 13.0258C383.972 13.0258 384.211 12.7064 384.211 12.3869C384.211 11.9876 383.892 11.748 383.572 11.748C383.253 11.748 382.934 11.9876 382.934 12.3869Z" stroke="#BFB7AB" stroke-miterlimit="10"/>
<path d="M378.301 13.505C377.502 14.8626 376.544 16.3002 375.107 17.0988C374.707 17.3384 374.308 17.4981 373.829 17.4981C373.11 17.4981 372.311 17.0189 372.072 16.38" stroke="#BFB7AB" stroke-miterlimit="10"/>
<path d="M372.951 15.741C372.951 16.1403 372.631 16.5396 372.152 16.5396C371.753 16.5396 371.354 16.2202 371.354 15.741C371.354 15.3417 371.673 14.9424 372.152 14.9424C372.551 15.0222 372.951 15.3417 372.951 15.741Z" stroke="#BFB7AB" stroke-miterlimit="10"/>
<path d="M378.381 13.505C379.18 14.8626 380.138 16.3002 381.576 17.0988C381.975 17.3384 382.374 17.4981 382.854 17.4981C383.572 17.4981 384.371 17.0189 384.611 16.38" stroke="#BFB7AB" stroke-miterlimit="10"/>
<path d="M383.732 15.741C383.732 16.1403 384.052 16.5396 384.531 16.5396C384.93 16.5396 385.33 16.2202 385.33 15.741C385.33 15.3417 385.01 14.9424 384.531 14.9424C384.132 15.0222 383.732 15.3417 383.732 15.741Z" stroke="#BFB7AB" stroke-miterlimit="10"/>
<path d="M378.301 16.5398C377.343 18.137 376.225 19.8141 374.548 20.7724C374.069 21.012 373.59 21.2516 373.031 21.2516C372.152 21.2516 371.274 20.6926 370.954 19.894" stroke="#BFB7AB" stroke-miterlimit="10"/>
<path d="M371.992 19.1751C371.992 19.6543 371.593 20.0536 371.114 20.0536C370.634 20.0536 370.155 19.6543 370.155 19.1751C370.155 18.6959 370.555 18.2966 371.034 18.2966C371.513 18.2966 371.992 18.6161 371.992 19.1751Z" stroke="#BFB7AB" stroke-miterlimit="10"/>
<path d="M378.381 16.5398C379.34 18.137 380.458 19.8141 382.135 20.7724C382.614 21.012 383.093 21.2516 383.652 21.2516C384.531 21.2516 385.409 20.6926 385.729 19.894" stroke="#BFB7AB" stroke-miterlimit="10"/>
<path d="M384.69 19.1752C384.69 19.6543 385.09 20.0536 385.569 20.0536C386.048 20.0536 386.447 19.6543 386.447 19.1752C386.447 18.696 386.048 18.2967 385.569 18.2967C385.17 18.2168 384.69 18.6161 384.69 19.1752Z" stroke="#BFB7AB" stroke-miterlimit="10"/>
<path d="M211.791 1.12646V24.5258" stroke="#BFB7AB" stroke-miterlimit="10"/>
<path d="M211.791 0.966797C211.311 1.76541 210.752 2.56402 209.954 3.04319C209.714 3.20292 209.475 3.28278 209.235 3.28278C208.836 3.28278 208.357 3.04319 208.197 2.64389" stroke="#BFB7AB" stroke-miterlimit="10"/>
<path d="M208.676 2.32451C208.676 2.56409 208.516 2.80367 208.196 2.80367C207.957 2.80367 207.717 2.64395 207.717 2.32451C207.717 2.08492 207.877 1.84534 208.196 1.84534C208.436 1.84534 208.676 2.00506 208.676 2.32451Z" stroke="#BFB7AB" stroke-miterlimit="10"/>
<path d="M211.791 0.966797C212.27 1.76541 212.829 2.56402 213.628 3.04319C213.867 3.20292 214.107 3.28278 214.347 3.28278C214.746 3.28278 215.225 3.04319 215.385 2.64389" stroke="#BFB7AB" stroke-miterlimit="10"/>
<path d="M214.905 2.32451C214.905 2.56409 215.065 2.80367 215.384 2.80367C215.624 2.80367 215.863 2.64395 215.863 2.32451C215.863 2.08492 215.703 1.84534 215.384 1.84534C215.144 1.84534 214.905 2.00506 214.905 2.32451Z" stroke="#BFB7AB" stroke-miterlimit="10"/>
<path d="M211.791 4.32104C211.311 5.11966 210.752 5.91827 209.954 6.39744C209.714 6.55716 209.475 6.63702 209.235 6.63702C208.836 6.63702 208.357 6.39744 208.197 5.99813" stroke="#BFB7AB" stroke-miterlimit="10"/>
<path d="M208.676 5.5988C208.676 5.83838 208.516 6.07797 208.196 6.07797C207.957 6.07797 207.717 5.91824 207.717 5.5988C207.717 5.35921 207.877 5.11963 208.196 5.11963C208.436 5.19949 208.676 5.35921 208.676 5.5988Z" stroke="#BFB7AB" stroke-miterlimit="10"/>
<path d="M211.791 4.32104C212.27 5.11966 212.829 5.91827 213.628 6.39744C213.867 6.55716 214.107 6.63702 214.347 6.63702C214.746 6.63702 215.225 6.39744 215.385 5.99813" stroke="#BFB7AB" stroke-miterlimit="10"/>
<path d="M214.905 5.5988C214.905 5.83838 215.065 6.07797 215.384 6.07797C215.624 6.07797 215.863 5.91824 215.863 5.5988C215.863 5.35921 215.703 5.11963 215.384 5.11963C215.144 5.19949 214.905 5.35921 214.905 5.5988Z" stroke="#BFB7AB" stroke-miterlimit="10"/>
<path d="M211.79 7.43567C211.231 8.39401 210.592 9.35234 209.634 9.91137C209.394 10.0711 209.075 10.151 208.756 10.2308C208.276 10.2308 207.717 9.91137 207.558 9.4322" stroke="#BFB7AB" stroke-miterlimit="10"/>
<path d="M208.037 9.03278C208.037 9.35223 207.797 9.59181 207.478 9.59181C207.159 9.59181 206.919 9.35223 206.919 9.03278C206.919 8.71334 207.159 8.47375 207.478 8.47375C207.797 8.47375 208.037 8.71334 208.037 9.03278Z" stroke="#BFB7AB" stroke-miterlimit="10"/>
<path d="M211.791 7.43567C212.35 8.39401 212.989 9.35234 213.947 9.91137C214.187 10.0711 214.506 10.151 214.826 10.2308C215.305 10.2308 215.864 9.91137 216.024 9.4322" stroke="#BFB7AB" stroke-miterlimit="10"/>
<path d="M215.464 9.03278C215.464 9.35223 215.703 9.59181 216.023 9.59181C216.342 9.59181 216.582 9.35223 216.582 9.03278C216.582 8.71334 216.342 8.47375 216.023 8.47375C215.703 8.47375 215.464 8.71334 215.464 9.03278Z" stroke="#BFB7AB" stroke-miterlimit="10"/>
<path d="M211.71 10.4702C210.991 11.6681 210.193 12.8661 208.995 13.5848C208.675 13.7445 208.276 13.9043 207.877 13.9043C207.238 13.9043 206.599 13.5049 206.359 12.9459" stroke="#BFB7AB" stroke-miterlimit="10"/>
<path d="M207.158 12.3869C207.158 12.7862 206.839 13.0258 206.519 13.0258C206.12 13.0258 205.88 12.7064 205.88 12.3869C205.88 11.9876 206.2 11.748 206.519 11.748C206.839 11.748 207.158 11.9876 207.158 12.3869Z" stroke="#BFB7AB" stroke-miterlimit="10"/>
<path d="M211.791 10.4702C212.51 11.6681 213.308 12.8661 214.506 13.5848C214.826 13.7445 215.225 13.9043 215.624 13.9043C216.263 13.9043 216.902 13.5049 217.142 12.9459" stroke="#BFB7AB" stroke-miterlimit="10"/>
<path d="M216.422 12.3869C216.422 12.7862 216.742 13.0258 217.061 13.0258C217.461 13.0258 217.7 12.7064 217.7 12.3869C217.7 11.9876 217.381 11.748 217.061 11.748C216.662 11.748 216.422 11.9876 216.422 12.3869Z" stroke="#BFB7AB" stroke-miterlimit="10"/>
<path d="M211.71 13.505C210.912 14.8626 209.953 16.3002 208.516 17.0988C208.116 17.3384 207.717 17.4981 207.238 17.4981C206.519 17.4981 205.721 17.0189 205.481 16.38" stroke="#BFB7AB" stroke-miterlimit="10"/>
<path d="M206.36 15.741C206.36 16.1403 206.04 16.5396 205.561 16.5396C205.162 16.5396 204.763 16.2202 204.763 15.741C204.763 15.3417 205.082 14.9424 205.561 14.9424C206.04 15.0222 206.36 15.3417 206.36 15.741Z" stroke="#BFB7AB" stroke-miterlimit="10"/>
<path d="M211.791 13.505C212.59 14.8626 213.548 16.3002 214.985 17.0988C215.385 17.3384 215.784 17.4981 216.263 17.4981C216.982 17.4981 217.781 17.0189 218.02 16.38" stroke="#BFB7AB" stroke-miterlimit="10"/>
<path d="M217.221 15.741C217.221 16.1403 217.541 16.5396 218.02 16.5396C218.419 16.5396 218.818 16.2202 218.818 15.741C218.818 15.3417 218.499 14.9424 218.02 14.9424C217.541 15.0222 217.221 15.3417 217.221 15.741Z" stroke="#BFB7AB" stroke-miterlimit="10"/>
<path d="M211.711 16.5398C210.752 18.137 209.634 19.8141 207.957 20.7724C207.478 21.012 206.999 21.2516 206.44 21.2516C205.561 21.2516 204.683 20.6926 204.363 19.894" stroke="#BFB7AB" stroke-miterlimit="10"/>
<path d="M205.401 19.1752C205.401 19.6544 205.002 20.0537 204.523 20.0537C204.044 20.0537 203.645 19.6544 203.645 19.1752C203.645 18.6961 204.044 18.2968 204.523 18.2968C205.002 18.2968 205.401 18.6162 205.401 19.1752Z" stroke="#BFB7AB" stroke-miterlimit="10"/>
<path d="M211.791 16.5398C212.749 18.137 213.867 19.8141 215.545 20.7724C216.024 21.012 216.503 21.2516 217.062 21.2516C217.94 21.2516 218.819 20.6926 219.138 19.894" stroke="#BFB7AB" stroke-miterlimit="10"/>
<path d="M218.18 19.1752C218.18 19.6543 218.579 20.0536 219.058 20.0536C219.537 20.0536 219.937 19.6543 219.937 19.1752C219.937 18.696 219.537 18.2967 219.058 18.2967C218.579 18.2168 218.18 18.6161 218.18 19.1752Z" stroke="#BFB7AB" stroke-miterlimit="10"/>
<path d="M449.538 13.3453L448.021 12.8661L449.458 12.3071L448.74 10.8696L450.177 11.5085L450.656 9.99109L451.295 11.4286L452.653 10.7098L452.094 12.1473L453.611 12.6265L452.094 13.2654L452.893 14.623L451.375 14.064L450.896 15.5814L450.337 14.064L448.899 14.7828L449.538 13.3453Z" stroke="#BFB7AB" stroke-miterlimit="10"/>
<path d="M449.139 14.623L445.226 18.5363" stroke="#BFB7AB" stroke-miterlimit="10"/>
<path d="M444.746 18.2966C445.065 18.2966 445.305 18.5362 445.305 18.8557C445.305 19.1751 445.065 19.4147 444.746 19.4147C444.426 19.4147 444.187 19.1751 444.187 18.8557C444.187 18.6161 444.426 18.2966 444.746 18.2966Z" stroke="#BFB7AB" stroke-miterlimit="10"/>
<path d="M448.978 11.1091L445.145 7.27576" stroke="#BFB7AB" stroke-miterlimit="10"/>
<path d="M444.746 7.59535C445.065 7.59535 445.305 7.35577 445.305 7.03632C445.305 6.71688 445.065 6.47729 444.746 6.47729C444.426 6.47729 444.187 6.71688 444.187 7.03632C444.187 7.35577 444.426 7.59535 444.746 7.59535Z" stroke="#BFB7AB" stroke-miterlimit="10"/>
<path d="M452.812 14.623L456.725 18.5363" stroke="#BFB7AB" stroke-miterlimit="10"/>
<path d="M457.124 18.2966C456.805 18.2966 456.565 18.5362 456.565 18.8557C456.565 19.1751 456.805 19.4147 457.124 19.4147C457.444 19.4147 457.683 19.1751 457.683 18.8557C457.683 18.6161 457.444 18.2966 457.124 18.2966Z" stroke="#BFB7AB" stroke-miterlimit="10"/>
<path d="M452.652 10.7099L456.566 6.87659" stroke="#BFB7AB" stroke-miterlimit="10"/>
<path d="M456.885 7.19594C456.566 7.19594 456.326 6.95636 456.326 6.63691C456.326 6.31746 456.566 6.07788 456.885 6.07788C457.205 6.07788 457.444 6.31746 457.444 6.63691C457.444 6.95636 457.205 7.19594 456.885 7.19594Z" stroke="#BFB7AB" stroke-miterlimit="10"/>
<path d="M448.26 12.8661H442.75" stroke="#BFB7AB" stroke-miterlimit="10"/>
<path d="M442.111 12.307C442.43 12.307 442.67 12.5466 442.67 12.866C442.67 13.1855 442.43 13.4251 442.111 13.4251C441.791 13.4251 441.552 13.1855 441.552 12.866C441.552 12.5466 441.791 12.307 442.111 12.307Z" stroke="#BFB7AB" stroke-miterlimit="10"/>
<path d="M445.306 15.3418L447.781 12.8661" stroke="#BFB7AB" stroke-miterlimit="10"/>
<path d="M443.069 15.3418L445.545 12.8661" stroke="#BFB7AB" stroke-miterlimit="10"/>
<path d="M445.306 10.3905L447.781 12.8662" stroke="#BFB7AB" stroke-miterlimit="10"/>
<path d="M443.069 10.3905L445.545 12.7863" stroke="#BFB7AB" stroke-miterlimit="10"/>
<path d="M453.211 12.6265H458.721" stroke="#BFB7AB" stroke-miterlimit="10"/>
<path d="M459.441 12.0675C459.121 12.0675 458.882 12.3071 458.882 12.6265C458.882 12.946 459.121 13.1856 459.441 13.1856C459.76 13.1856 460 12.946 460 12.6265C460 12.3071 459.76 12.0675 459.441 12.0675Z" stroke="#BFB7AB" stroke-miterlimit="10"/>
<path d="M456.166 15.1022L453.771 12.6265" stroke="#BFB7AB" stroke-miterlimit="10"/>
<path d="M458.403 15.1022L456.007 12.6265" stroke="#BFB7AB" stroke-miterlimit="10"/>
<path d="M456.166 10.1508L453.771 12.5466" stroke="#BFB7AB" stroke-miterlimit="10"/>
<path d="M458.403 10.1508L455.927 12.5466" stroke="#BFB7AB" stroke-miterlimit="10"/>
<path d="M450.655 10.1508V4.64038" stroke="#BFB7AB" stroke-miterlimit="10"/>
<path d="M450.097 3.92158C450.097 4.24102 450.337 4.48061 450.656 4.48061C450.976 4.48061 451.215 4.24102 451.215 3.92158C451.215 3.60213 450.976 3.36255 450.656 3.36255C450.337 3.36255 450.097 3.60213 450.097 3.92158Z" stroke="#BFB7AB" stroke-miterlimit="10"/>
<path d="M453.131 7.19604L450.655 9.59189" stroke="#BFB7AB" stroke-miterlimit="10"/>
<path d="M453.131 4.95984L450.655 7.35568" stroke="#BFB7AB" stroke-miterlimit="10"/>
<path d="M448.18 7.19604L450.656 9.67175" stroke="#BFB7AB" stroke-miterlimit="10"/>
<path d="M448.18 4.95984L450.656 7.43554" stroke="#BFB7AB" stroke-miterlimit="10"/>
<path d="M450.896 15.4215V20.9319" stroke="#BFB7AB" stroke-miterlimit="10"/>
<path d="M450.336 21.571C450.336 21.2515 450.576 21.012 450.895 21.012C451.215 21.012 451.454 21.2515 451.454 21.571C451.454 21.8904 451.215 22.13 450.895 22.13C450.576 22.13 450.336 21.8904 450.336 21.571Z" stroke="#BFB7AB" stroke-miterlimit="10"/>
<path d="M453.372 18.3766L450.896 15.9807" stroke="#BFB7AB" stroke-miterlimit="10"/>
<path d="M453.372 20.6128L450.896 18.1371" stroke="#BFB7AB" stroke-miterlimit="10"/>
<path d="M448.42 18.3766L450.896 15.9009" stroke="#BFB7AB" stroke-miterlimit="10"/>
<path d="M448.34 20.6128L450.816 18.1371" stroke="#BFB7AB" stroke-miterlimit="10"/>
<path d="M138.797 11.5085L139.276 9.99109L139.835 11.5085L141.273 10.7098L140.634 12.2272L142.151 12.7064L140.714 13.2654L141.433 14.7029L139.995 14.064L139.516 15.5814L138.877 14.1439L137.519 14.8626L138.078 13.4251L136.561 12.946L138.078 12.3071L137.28 10.9494L138.797 11.5085Z" stroke="#BFB7AB" stroke-miterlimit="10"/>
<path d="M137.519 11.1091L133.606 7.19592" stroke="#BFB7AB" stroke-miterlimit="10"/>
<path d="M133.766 6.79658C133.766 7.11602 133.526 7.35561 133.206 7.35561C132.887 7.35561 132.647 7.11602 132.647 6.79658C132.647 6.47713 132.887 6.23755 133.206 6.23755C133.526 6.23755 133.766 6.47713 133.766 6.79658Z" stroke="#BFB7AB" stroke-miterlimit="10"/>
<path d="M140.953 11.0293L144.866 7.11609" stroke="#BFB7AB" stroke-miterlimit="10"/>
<path d="M144.547 6.71687C144.547 7.03631 144.786 7.2759 145.106 7.2759C145.425 7.2759 145.665 7.03631 145.665 6.71687C145.665 6.39742 145.425 6.15784 145.106 6.15784C144.786 6.15784 144.547 6.39742 144.547 6.71687Z" stroke="#BFB7AB" stroke-miterlimit="10"/>
<path d="M137.519 14.8627L133.606 18.696" stroke="#BFB7AB" stroke-miterlimit="10"/>
<path d="M133.766 19.1752C133.766 18.8558 133.526 18.6162 133.206 18.6162C132.887 18.6162 132.647 18.8558 132.647 19.1752C132.647 19.4947 132.887 19.7343 133.206 19.7343C133.526 19.7343 133.766 19.4947 133.766 19.1752Z" stroke="#BFB7AB" stroke-miterlimit="10"/>
<path d="M141.433 14.623L145.266 18.5363" stroke="#BFB7AB" stroke-miterlimit="10"/>
<path d="M144.946 18.9356C144.946 18.6162 145.185 18.3766 145.505 18.3766C145.824 18.3766 146.064 18.6162 146.064 18.9356C146.064 19.2551 145.824 19.4946 145.505 19.4946C145.185 19.4946 144.946 19.2551 144.946 18.9356Z" stroke="#BFB7AB" stroke-miterlimit="10"/>
<path d="M139.276 10.3106V4.80017" stroke="#BFB7AB" stroke-miterlimit="10"/>
<path d="M139.836 4.08137C139.836 4.40081 139.596 4.6404 139.277 4.6404C138.957 4.6404 138.718 4.40081 138.718 4.08137C138.718 3.76192 138.957 3.52234 139.277 3.52234C139.596 3.52234 139.836 3.84178 139.836 4.08137Z" stroke="#BFB7AB" stroke-miterlimit="10"/>
<path d="M136.801 7.35571L139.276 9.75155" stroke="#BFB7AB" stroke-miterlimit="10"/>
<path d="M136.801 5.11963L139.276 7.51547" stroke="#BFB7AB" stroke-miterlimit="10"/>
<path d="M141.752 7.35571L139.276 9.83141" stroke="#BFB7AB" stroke-miterlimit="10"/>
<path d="M141.752 5.11963L139.276 7.59533" stroke="#BFB7AB" stroke-miterlimit="10"/>
<path d="M139.516 15.262V20.7724" stroke="#BFB7AB" stroke-miterlimit="10"/>
<path d="M140.075 21.4113C140.075 21.0919 139.836 20.8523 139.516 20.8523C139.197 20.8523 138.957 21.0919 138.957 21.4113C138.957 21.7308 139.197 21.9704 139.516 21.9704C139.836 21.9704 140.075 21.7308 140.075 21.4113Z" stroke="#BFB7AB" stroke-miterlimit="10"/>
<path d="M137.041 18.2169L139.436 15.7412" stroke="#BFB7AB" stroke-miterlimit="10"/>
<path d="M137.041 20.4531L139.436 17.9774" stroke="#BFB7AB" stroke-miterlimit="10"/>
<path d="M141.991 18.2169L139.516 15.7412" stroke="#BFB7AB" stroke-miterlimit="10"/>
<path d="M141.991 20.4531L139.516 17.9774" stroke="#BFB7AB" stroke-miterlimit="10"/>
<path d="M141.992 12.7064H147.502" stroke="#BFB7AB" stroke-miterlimit="10"/>
<path d="M148.141 12.1475C147.822 12.1475 147.582 12.387 147.582 12.7065C147.582 13.0259 147.822 13.2655 148.141 13.2655C148.461 13.2655 148.7 13.0259 148.7 12.7065C148.78 12.387 148.461 12.1475 148.141 12.1475Z" stroke="#BFB7AB" stroke-miterlimit="10"/>
<path d="M144.946 15.1023L142.55 12.7064" stroke="#BFB7AB" stroke-miterlimit="10"/>
<path d="M147.183 15.1023L144.707 12.7064" stroke="#BFB7AB" stroke-miterlimit="10"/>
<path d="M144.946 10.1509L142.471 12.6266" stroke="#BFB7AB" stroke-miterlimit="10"/>
<path d="M147.183 10.1509L144.707 12.6266" stroke="#BFB7AB" stroke-miterlimit="10"/>
<path d="M136.721 12.8661H131.21" stroke="#BFB7AB" stroke-miterlimit="10"/>
<path d="M130.571 12.3071C130.891 12.3071 131.13 12.5467 131.13 12.8662C131.13 13.1856 130.891 13.4252 130.571 13.4252C130.252 13.4252 130.012 13.1856 130.012 12.8662C129.933 12.5467 130.252 12.3071 130.571 12.3071Z" stroke="#BFB7AB" stroke-miterlimit="10"/>
<path d="M133.766 15.3419L136.162 12.946" stroke="#BFB7AB" stroke-miterlimit="10"/>
<path d="M131.53 15.3419L134.005 12.946" stroke="#BFB7AB" stroke-miterlimit="10"/>
<path d="M133.766 10.3904L136.242 12.8661" stroke="#BFB7AB" stroke-miterlimit="10"/>
<path d="M131.53 10.3904L134.005 12.8661" stroke="#BFB7AB" stroke-miterlimit="10"/>
<line x1="0.5" y1="48.5" x2="121.5" y2="48.5" stroke="#BFB7AB" stroke-linecap="round" stroke-dasharray="1 2"/>
<line x1="0.5" y1="43.5" x2="121.5" y2="43.5" stroke="#BFB7AB" stroke-linecap="round" stroke-dasharray="1 2"/>
<line x1="0.5" y1="38.5" x2="121.5" y2="38.5" stroke="#BFB7AB" stroke-linecap="round" stroke-dasharray="1 2"/>
<line x1="473.5" y1="48.5" x2="594.5" y2="48.5" stroke="#BFB7AB" stroke-linecap="round" stroke-dasharray="1 2"/>
<line x1="473.5" y1="43.5" x2="594.5" y2="43.5" stroke="#BFB7AB" stroke-linecap="round" stroke-dasharray="1 2"/>
<line x1="473.5" y1="38.5" x2="594.5" y2="38.5" stroke="#BFB7AB" stroke-linecap="round" stroke-dasharray="1 2"/>
<g clip-path="url(#clip0)">
<path d="M55.1303 72.1185V111.161L56.3711 112.408H61.4646V115.008H1V112.451H6.09352L7.33433 111.204V72.1185L6.09352 70.8404H1V68.2779H14.6923L31.1827 105.655H31.8031L47.2946 68.2779H61.4956V70.8404H56.4021L55.1303 72.1185ZM11.187 75.317H10.5666V111.161L11.8074 112.408H27.8759L11.187 75.317ZM48.7587 74.6935H48.1507L32.2684 112.439H47.4869L48.7277 111.192L48.7587 74.6935ZM67.2344 112.451H71.0561L72.2969 111.204V72.1185L71.0561 70.8404H67.2344V68.2779H101.623L103.534 82.9982L101.623 83.3848L96.5423 70.8404H79.9713L78.6932 72.1185V89.7193H88.2475L90.8594 80.442H92.7206V101.559H90.8594L88.2475 92.2756H78.6932V111.161L79.9713 112.408H98.4407L103.534 99.8633L105.445 100.25L103.534 115.008H67.2344V112.451ZM109.906 112.451H114.999L116.271 111.204V72.1185L114.999 70.8404H109.906V68.2779H130.28C140.79 68.2779 147.794 73.141 147.794 80.442C147.794 86.5209 142.508 91.3217 134.61 92.3442L151.299 112.439H156.393V115.008H109.906V112.451ZM130.28 90.0685C137.03 90.0685 140.79 86.6144 140.79 80.4731C140.79 74.3319 137.03 70.8716 130.28 70.8716H123.915L122.643 72.1497V90.0685H130.28ZM142.688 112.47L127.097 92.5998H122.643V111.161L123.915 112.408L142.688 112.47ZM159.569 112.47H164.663L165.935 111.223V72.1185L164.663 70.8404H159.569V68.2779H179.943C190.453 68.2779 197.457 73.141 197.457 80.442C197.457 86.5209 192.171 91.3217 184.274 92.3442L200.963 112.439H206.056V115.008H159.582L159.569 112.47ZM179.956 90.0685C186.706 90.0685 190.465 86.6144 190.465 80.4731C190.465 74.3319 186.706 70.8716 179.956 70.8716H173.59L172.312 72.1497V90.0685H179.956ZM192.364 112.47L176.773 92.5998H172.312V111.161L173.59 112.408L192.364 112.47ZM213.699 112.47H218.793L220.065 111.223V96.4404L206.695 72.1248L205.423 70.8466H200.336V68.2779H246.19V70.8404H241.847L226.449 96.4404V111.161L227.721 112.408H232.814V115.008H213.712L213.699 112.47ZM225.586 92.4065L237.684 72.1185L236.381 70.8404H214.984L213.712 72.1185L224.923 92.4065H225.586ZM262.339 123.954H272.526L273.798 122.708V72.1185L272.526 70.8404H268.704V68.2779H285.263V70.8404H281.423L280.151 72.1185V120.694L274.418 126.517C271.999 128.949 268.835 130.551 266.136 130.676L261.042 131L262.339 123.954ZM295.773 99.0154V72.1185L294.451 70.8404H289.358V68.2779H337.129V70.8404H332.029L330.757 72.1185V98.9967C330.757 110.456 324.963 116.279 313.498 116.279C301.729 116.255 295.742 110.456 295.742 98.9967L295.773 99.0154ZM327.612 99.0154V72.1185L326.371 70.8404H303.416L302.144 72.1185V98.9967C302.144 107.831 306.729 112.439 315.173 112.439C323.12 112.439 327.581 107.831 327.581 98.9967L327.612 99.0154ZM341.943 112.458H345.765L347.037 111.211V72.1185L345.765 70.8404H341.912V68.2779H358.471V70.8404H354.63L353.39 72.1185V110.519L354.63 111.765H372.461L378.206 100.468L380.117 100.917L378.206 115.008H341.912L341.943 112.458ZM386.525 112.458H391.619L392.86 111.211V96.4404L379.484 72.1248L378.243 70.8466H373.119V68.2779H418.973V70.8404H414.63L399.225 96.4404V111.161L400.503 112.408H405.597V115.008H386.494L386.525 112.458ZM398.369 92.4252L410.467 72.1185L409.164 70.8404H387.766L386.525 72.1185L397.73 92.4065L398.369 92.4252ZM421.87 96.7896H440.972V99.67H421.839L421.87 96.7896ZM499.216 72.1185V111.161L500.488 112.408H505.581V115.008H445.085V112.451H450.173L451.414 111.204V72.1185L450.173 70.8404H445.085V68.2779H458.778L475.268 105.687H475.889L491.38 68.2779H505.581V70.8404H500.488L499.216 72.1185ZM455.272 75.317H454.652V111.161L455.93 112.408H471.974L455.272 75.317ZM492.844 74.6935H492.224L476.354 112.439H491.572L492.813 111.192L492.844 74.6935ZM508.77 112.451H513.355L528.828 72.1185L527.587 70.8404H518.033V68.2779H534.548L550.598 112.439H555.883V115.008H508.733L508.77 112.451ZM541.887 112.451L543.128 111.204L538.481 98.1113H522.016L517.052 111.204L518.33 112.451H541.887ZM537.681 95.4927L531.061 75.7285H530.441L522.909 95.4803L537.681 95.4927ZM562.584 115.008H561.312L559.401 95.9915L561.628 95.7982C564.048 108.149 568.192 113.717 577.424 113.717C583.92 113.717 588.591 110.07 588.591 104.564C588.591 100.088 585.409 97.1449 578.913 94.5201L572.33 91.9389C564.557 88.8215 561.312 85.2864 561.312 79.1389C561.312 71.8442 566.896 66.9811 575.637 66.9811C580.098 66.9811 582.772 68.2592 588.666 68.2592H589.937L591.848 84.0706L589.621 84.2577C587.456 74.8556 583.318 69.5436 575.674 69.5436C570.388 69.5436 566.989 72.742 566.989 77.3495C566.989 81.5081 569.787 84.3262 576.413 87.0758L583.032 89.763C591.439 93.217 594.944 96.8706 594.944 102.819C595 110.905 588.523 116.255 577.424 116.255C572.008 116.255 568.633 115.008 562.584 115.008Z" fill="url(#paint0_linear)"/>
</g>
<defs>
<linearGradient id="paint0_linear" x1="1" y1="98.9967" x2="595" y2="98.9967" gradientUnits="userSpaceOnUse">
<stop stop-color="#C6FAED"/>
<stop offset="0.11" stop-color="#80B6F1"/>
<stop offset="0.21" stop-color="#9DA3E4"/>
<stop offset="0.33" stop-color="#ECDEE5"/>
<stop offset="0.47" stop-color="#FCE2C3"/>
<stop offset="0.57" stop-color="#EFF1E6"/>
<stop offset="0.69" stop-color="#C6FAED"/>
<stop offset="0.78" stop-color="#80B6F1"/>
<stop offset="0.88" stop-color="#9DA3E4"/>
<stop offset="0.96" stop-color="#ECDEE5"/>
</linearGradient>
<clipPath id="clip0">
<rect width="594" height="64" fill="white" transform="translate(1 67)"/>
</clipPath>
</defs>
</svg>
