<svg xmlns="http://www.w3.org/2000/svg" viewBox="0 0 121.32 62.5"><defs><style>.cls-1{fill:#020202;}.cls-2{fill:#b17e6e;}</style></defs><title>Asset 1</title><g id="Layer_2" data-name="Layer 2"><g id="Layer_1-2" data-name="Layer 1"><g id="_Group_" data-name="&lt;Group&gt;"><polygon class="cls-1" points="0.65 51.92 0.65 10.58 60.66 0.66 120.67 10.58 120.67 51.92 60.66 61.84 0.65 51.92"/><path class="cls-2" d="M60.66,1.32,120,11.13V51.37L60.66,61.18,1.3,51.37V11.13L60.66,1.32m0-1.32-.21,0L1.09,9.85,0,10V52.47l1.09.18,59.36,9.81.21,0,.21,0,59.36-9.81,1.09-.18V10l-1.09-.18L60.87,0l-.21,0Z"/></g><path class="cls-2" d="M6.32,48.09a.75.75,0,0,1-.21,0A.68.68,0,0,1,5.92,48a.73.73,0,0,1-.18-.09l-.16-.13A1.06,1.06,0,0,1,5.27,47a.67.67,0,0,1,0-.2.65.65,0,0,1,.06-.2,1.67,1.67,0,0,1,.1-.18.65.65,0,0,1,.13-.16,1.07,1.07,0,0,1,1.14-.23,1.14,1.14,0,0,1,.34.23,1,1,0,0,1,.31.74,1.06,1.06,0,0,1-.31.75l-.16.13a1.4,1.4,0,0,1-.18.09.64.64,0,0,1-.2.06A.65.65,0,0,1,6.32,48.09Z"/><path class="cls-2" d="M5.27,40.72a1.05,1.05,0,0,1,1-1h0a1.05,1.05,0,0,1,1.05,1h0a1.05,1.05,0,0,1-1.05,1.05h0A1.05,1.05,0,0,1,5.27,40.72Zm0-6.31a1.05,1.05,0,0,1,1-1.05h0a1.05,1.05,0,0,1,1.05,1.05h0a1.06,1.06,0,0,1-1.05,1h0A1.06,1.06,0,0,1,5.27,34.41Zm0-6.32a1.05,1.05,0,0,1,1-1h0a1.05,1.05,0,0,1,1.05,1h0a1.05,1.05,0,0,1-1.05,1.05h0A1.05,1.05,0,0,1,5.27,28.09Zm0-6.32a1.05,1.05,0,0,1,1-1.05h0a1.05,1.05,0,0,1,1.05,1.05h0a1.05,1.05,0,0,1-1.05,1h0A1.05,1.05,0,0,1,5.27,21.77Z"/><path class="cls-2" d="M6.32,16.5l-.21,0a.69.69,0,0,1-.19-.06.75.75,0,0,1-.18-.1.5.5,0,0,1-.16-.13A.64.64,0,0,1,5.45,16a.77.77,0,0,1-.1-.18.93.93,0,0,1-.08-.4,1,1,0,0,1,.31-.74.89.89,0,0,1,.34-.23,1.1,1.1,0,0,1,.8,0,1,1,0,0,1,.34.23,1,1,0,0,1,.31.74,1.1,1.1,0,0,1-.08.4,1,1,0,0,1-.23.34.64.64,0,0,1-.16.13l-.18.1a.66.66,0,0,1-.2.06Z"/><path class="cls-2" d="M108.78,15.47a1.05,1.05,0,0,1-.86-1.21h0a1.05,1.05,0,0,1,1.21-.87h0A1.06,1.06,0,0,1,110,14.6h0a1.05,1.05,0,0,1-1,.88h-.17ZM11.32,14.6a1.05,1.05,0,0,1,.86-1.21h0a1.06,1.06,0,0,1,1.21.86h0a1,1,0,0,1-.86,1.21h0l-.18,0h0A1,1,0,0,1,11.32,14.6Zm91.42-.14a1.05,1.05,0,0,1-.86-1.21h0a1.05,1.05,0,0,1,1.21-.86h0A1,1,0,0,1,104,13.6h0a1.05,1.05,0,0,1-1,.87h-.17Zm-85.39-.88a1.06,1.06,0,0,1,.87-1.21h0a1.05,1.05,0,0,1,1.21.86h0a1.06,1.06,0,0,1-.86,1.21h0l-.18,0h0A1.07,1.07,0,0,1,17.35,13.58Zm79.35-.13a1.05,1.05,0,0,1-.86-1.21h0a1.05,1.05,0,0,1,1.21-.86h0a1,1,0,0,1,.86,1.21h0a1.05,1.05,0,0,1-1,.88h0Zm-73.31-.89a1.05,1.05,0,0,1,.86-1.21h0a1,1,0,0,1,1.21.86h0a1,1,0,0,1-.86,1.21h-.17A1.05,1.05,0,0,1,23.39,12.56Zm67.27-.12a1,1,0,0,1-.86-1.21h0A1.06,1.06,0,0,1,91,10.37h0a1.05,1.05,0,0,1,.86,1.21h0a1.05,1.05,0,0,1-1,.88h0Zm-61.23-.9a1,1,0,0,1,.86-1.21h0a1,1,0,0,1,1.21.86h0a1.05,1.05,0,0,1-.86,1.21h-.18A1,1,0,0,1,29.43,11.54Zm55.19-.11a1,1,0,0,1-.86-1.2h0A1.06,1.06,0,0,1,85,9.36h0a1.05,1.05,0,0,1,.86,1.21h0a1.05,1.05,0,0,1-1,.88h0Zm-49.16-.91a1.06,1.06,0,0,1,.86-1.22h0a1,1,0,0,1,1.21.86h0a1,1,0,0,1-.85,1.21h0l-.18,0h0A1.06,1.06,0,0,1,35.46,10.52Zm43.13-.09a1.07,1.07,0,0,1-.87-1.21h0a1.06,1.06,0,0,1,1.21-.87h0a1.06,1.06,0,0,1,.87,1.21h0a1.05,1.05,0,0,1-1,.88h-.17ZM41.5,9.49a1.05,1.05,0,0,1,.86-1.21h0a1.05,1.05,0,0,1,1.21.86h0a1.05,1.05,0,0,1-.86,1.21h0l-.18,0h0A1.06,1.06,0,0,1,41.5,9.49Zm31-.07a1.05,1.05,0,0,1-.86-1.21h0a1,1,0,0,1,1.21-.86h0a1,1,0,0,1,.86,1.2h0a1.05,1.05,0,0,1-1,.88h-.17Zm-25-1a1,1,0,0,1,.86-1.21h0a1.05,1.05,0,0,1,1.21.86h0a1.06,1.06,0,0,1-.86,1.21h-.18A1,1,0,0,1,47.54,8.47Zm19-.06a1.05,1.05,0,0,1-.86-1.21h0a1,1,0,0,1,1.21-.86h0a1,1,0,0,1,.86,1.21h0a1.05,1.05,0,0,1-1,.87h-.17Zm-12.94-1a1.05,1.05,0,0,1,.86-1.21h0a1,1,0,0,1,1.21.86h0a1.05,1.05,0,0,1-.86,1.21h-.17A1.05,1.05,0,0,1,53.57,7.45Zm6.9-.05a1,1,0,0,1-.86-1.21h0a1,1,0,0,1,1.21-.86h0a1.06,1.06,0,0,1,.86,1.21h0a1.06,1.06,0,0,1-1,.88h0Z"/><path class="cls-2" d="M115,16.49a1,1,0,0,1-.74-.31,1.14,1.14,0,0,1-.23-.34,1.1,1.1,0,0,1-.08-.4,1.53,1.53,0,0,1,0-.21L114,15a1,1,0,0,1,.23-.34,1,1,0,0,1,.34-.23,1,1,0,0,1,1.14.23,1,1,0,0,1,.31.74.93.93,0,0,1-.08.4.83.83,0,0,1-.1.18.62.62,0,0,1-.13.16A1,1,0,0,1,115,16.49Z"/><path class="cls-2" d="M113.94,40.73a1.05,1.05,0,0,1,1.05-1h0a1.05,1.05,0,0,1,1,1h0a1.05,1.05,0,0,1-1,1h0A1.05,1.05,0,0,1,113.94,40.73Zm0-6.32A1.05,1.05,0,0,1,115,33.36h0a1.05,1.05,0,0,1,1,1.05h0a1.05,1.05,0,0,1-1,1h0A1.05,1.05,0,0,1,113.94,34.41Zm0-6.33A1.05,1.05,0,0,1,115,27h0a1.05,1.05,0,0,1,1,1.05h0a1.05,1.05,0,0,1-1,1.06h0A1.05,1.05,0,0,1,113.94,28.08Zm0-6.32a1.05,1.05,0,0,1,1.05-1h0a1.05,1.05,0,0,1,1,1h0a1.05,1.05,0,0,1-1,1.05h0A1.05,1.05,0,0,1,113.94,21.76Z"/><path class="cls-2" d="M115,48.1a.65.65,0,0,1-.2,0,.67.67,0,0,1-.2-.06,1,1,0,0,1-.65-1,1.52,1.52,0,0,1,0-.21l.06-.2a1.14,1.14,0,0,1,.23-.34,1.1,1.1,0,0,1,.34-.22,1,1,0,0,1,1.45,1,.69.69,0,0,1,0,.2.74.74,0,0,1-.06.2.83.83,0,0,1-.1.18.61.61,0,0,1-.13.16,1,1,0,0,1-.34.22.71.71,0,0,1-.19.06A.75.75,0,0,1,115,48.1Z"/><path class="cls-2" d="M59.61,56.3a1.05,1.05,0,0,1,.86-1.21h0a1.05,1.05,0,0,1,1.21.86h0a1.05,1.05,0,0,1-.86,1.21h0l-.18,0h0A1.05,1.05,0,0,1,59.61,56.3Zm-5.18,0A1,1,0,0,1,53.57,55h0a1.06,1.06,0,0,1,1.21-.86h0a1.05,1.05,0,0,1,.86,1.21h0a1,1,0,0,1-1,.88h0Zm11.22-1a1.05,1.05,0,0,1,.86-1.21h0a1.06,1.06,0,0,1,1.21.87h0a1,1,0,0,1-.86,1.2h0l-.18,0h0A1.05,1.05,0,0,1,65.65,55.29ZM48.4,55.23A1,1,0,0,1,47.54,54h0a1,1,0,0,1,1.21-.86h0a1.06,1.06,0,0,1,.86,1.21h0a1.07,1.07,0,0,1-1,.88h0Zm23.29-.94a1,1,0,0,1,.86-1.21h0a1.05,1.05,0,0,1,1.21.86h0a1.07,1.07,0,0,1-.87,1.21h-.17A1,1,0,0,1,71.69,54.29Zm-29.33-.08A1.05,1.05,0,0,1,41.5,53h0a1.05,1.05,0,0,1,1.21-.86h0a1,1,0,0,1,.86,1.21h0a1,1,0,0,1-1,.87h-.18Zm35.36-.94a1,1,0,0,1,.87-1.2h0a1.05,1.05,0,0,1,1.21.86h0a1.07,1.07,0,0,1-.87,1.21h-.17A1.05,1.05,0,0,1,77.72,53.27Zm-41.4-.08A1.06,1.06,0,0,1,35.46,52h0a1.05,1.05,0,0,1,1.21-.86h0a1,1,0,0,1,.86,1.21h0a1,1,0,0,1-1,.87h-.18Zm47.44-.92a1.06,1.06,0,0,1,.86-1.21h0a1,1,0,0,1,1.21.86h0A1,1,0,0,1,85,53.13H84.8A1.05,1.05,0,0,1,83.76,52.27Zm-53.47-.1A1.05,1.05,0,0,1,29.43,51h0a1.06,1.06,0,0,1,1.21-.87h0a1.06,1.06,0,0,1,.86,1.22h0a1.05,1.05,0,0,1-1,.87h-.17Zm59.51-.91a1.06,1.06,0,0,1,.86-1.21h0a1.05,1.05,0,0,1,1.21.86h0A1,1,0,0,1,91,52.12h0l-.18,0h0A1.06,1.06,0,0,1,89.8,51.26Zm-65.55-.12a1,1,0,0,1-.86-1.21h0a1.06,1.06,0,0,1,1.21-.86h0a1.05,1.05,0,0,1,.86,1.21h0a1,1,0,0,1-1,.88h0Zm71.59-.89A1.05,1.05,0,0,1,96.7,49h0a1.06,1.06,0,0,1,1.21.87h0a1,1,0,0,1-.86,1.2h0l-.18,0h0A1,1,0,0,1,95.84,50.25Zm-77.62-.13a1.06,1.06,0,0,1-.87-1.21h0a1.05,1.05,0,0,1,1.21-.86h0a1.06,1.06,0,0,1,.87,1.21h0a1.06,1.06,0,0,1-1,.88h0Zm83.66-.88a1,1,0,0,1,.86-1.2h0a1.05,1.05,0,0,1,1.21.86h0a1.06,1.06,0,0,1-.86,1.21h-.18A1,1,0,0,1,101.88,49.24Zm-89.7-.14a1.05,1.05,0,0,1-.86-1.21h0A1.05,1.05,0,0,1,12.53,47h0a1.05,1.05,0,0,1,.86,1.21h0a1.05,1.05,0,0,1-1,.87h-.17Zm95.74-.86a1,1,0,0,1,.86-1.21h0a1.05,1.05,0,0,1,1.21.86h0a1.06,1.06,0,0,1-.86,1.21H109A1,1,0,0,1,107.92,48.24Z"/><path class="cls-2" d="M96.49,25.75l.22,4c.73-1.53,1.89-4,4-4A3.63,3.63,0,0,1,102,26l-.59,2.82a4.61,4.61,0,0,0-1.62-.36,3.8,3.8,0,0,0-3,2.07v8.57H93.29V30.88a42.19,42.19,0,0,0-.19-4.38Zm-13,12a3.51,3.51,0,0,0,2.4-1.27V32.09c-3.51.49-4.32,1.79-4.32,3.26s.84,2.36,1.92,2.36m2.4-.72c-.81.93-2.4,2.41-4.34,2.41a3.32,3.32,0,0,1-3.45-3.21c0-2,1.89-3.86,7.8-4.61V29c0-1.71-.89-2.8-1.94-2.8-1.94,0-4.48,4.32-4.48,4.32l-.94-3.42a14.07,14.07,0,0,1,6-1.37c2.51,0,4.72.88,4.72,3.78v6.81c0,1.19.46,1.4,1,1.4a1.18,1.18,0,0,0,.62-.21l.22.26a3.61,3.61,0,0,1-2.91,1.58A2.37,2.37,0,0,1,85.89,37M71.7,31a44.52,44.52,0,0,0-.22-4.48l3.59-.75V39.09H71.7Zm1.7-11a2.18,2.18,0,0,1,1.19.31,1.69,1.69,0,0,1,.86,1.5,2,2,0,0,1-2.08,1.71,1.79,1.79,0,0,1-1.89-1.71A1.85,1.85,0,0,1,73.4,20M63.74,36.5A40.07,40.07,0,0,0,66.28,26l3.18.13A128.33,128.33,0,0,0,63,39.45l-1.27.15L56.08,26.37l3.72-.47ZM48.29,37.71a3.51,3.51,0,0,0,2.4-1.27V32.09c-3.51.49-4.32,1.79-4.32,3.26s.84,2.36,1.92,2.36m2.4-.72c-.81.93-2.4,2.41-4.34,2.41a3.32,3.32,0,0,1-3.45-3.21c0-2,1.89-3.86,7.8-4.61V29c0-1.71-.89-2.8-1.94-2.8-1.94,0-4.48,4.32-4.48,4.32l-.94-3.42a14.07,14.07,0,0,1,6-1.37c2.51,0,4.72.88,4.72,3.78v6.81c0,1.19.46,1.4,1,1.4a1.18,1.18,0,0,0,.62-.21l.22.26A3.61,3.61,0,0,1,53,39.4,2.37,2.37,0,0,1,50.69,37m-10.76,2.1H36.55V25.39c0-1.68-.05-3.37-.19-5.15l3.56-1Zm-17,4c-.84,0-1.4-.72-1.4-1.84,0-1.35,1.08-2.8,2.64-3.81l0,2.28c0,2.36-.38,3.37-1.27,3.37M33.69,24.25l.43-3.91H21.31l.22.6L24,21l.19,15.41c-1.92,1.37-3.08,3.16-3.08,5a2.24,2.24,0,0,0,2.43,2.36c2.32,0,3.86-1.71,3.86-4.35V30.31a17.05,17.05,0,0,1,5.53,1.24l.32-3a50.56,50.56,0,0,1-5.85,1.14V21a8,8,0,0,1,6.34,3.24"/></g></g></svg>