<svg width="627" height="173" viewBox="0 0 627 173" fill="none" xmlns="http://www.w3.org/2000/svg">
<path d="M625.888 46.7999L625.888 45.0757L6.10352e-05 45.0757L6.09598e-05 46.7999L625.888 46.7999Z" fill="#FFFEFD"/>
<path d="M625.889 89.4126L625.889 87.6884L0.000549316 87.6884L0.000549241 89.4126L625.889 89.4126Z" fill="#FFFEFD"/>
<path d="M625.889 131.04L625.889 129.316L0.000549316 129.316L0.000549241 131.04L625.889 131.04Z" fill="#FFFEFD"/>
<path d="M0.000358674 172.421L0.000366211 -2.73907e-05L626.627 0L626.627 172.421L0.000358674 172.421ZM1.72461 1.72418L1.7246 170.697L624.903 170.697L624.903 1.72421L1.72461 1.72418Z" fill="#FFFEFD"/>
<path d="M290.899 170.45L290.899 0.492584L289.175 0.492584L289.175 170.45L290.899 170.45Z" fill="#FFFEFD"/>
<path d="M1.9707 170.45L1.9707 0.492615L0.246582 0.492615L0.246575 170.45L1.9707 170.45Z" fill="#FFFEFD"/>
<path d="M483.518 170.45L483.518 0.492615L481.793 0.492615L481.793 170.45L483.518 170.45Z" fill="#FFFEFD"/>
<path d="M194.836 170.45L194.836 0.492615L193.112 0.492615L193.112 170.45L194.836 170.45Z" fill="#FFFEFD"/>
<path d="M386.962 170.45L386.962 0.492584L385.238 0.492584L385.238 170.45L386.962 170.45Z" fill="#FFFEFD"/>
<path d="M98.0342 170.45L98.0342 0.492615L96.3099 0.492615L96.3099 170.45L98.0342 170.45Z" fill="#FFFEFD"/>
<path d="M579.582 170.451L579.582 0.492676L577.857 0.492676L577.857 170.451L579.582 170.451Z" fill="#FFFEFD"/>
<path d="M338.931 170.45L338.931 0.492584L337.206 0.492584L337.206 170.45L338.931 170.45Z" fill="#FFFEFD"/>
<path d="M50.249 170.45L50.249 0.492645L48.5248 0.492645L48.5248 170.45L50.249 170.45Z" fill="#FFFEFD"/>
<path d="M531.795 170.45L531.795 0.492584L530.071 0.492584L530.071 170.45L531.795 170.45Z" fill="#FFFEFD"/>
<path d="M242.868 170.45L242.868 0.492615L241.143 0.492615L241.143 170.45L242.868 170.45Z" fill="#FFFEFD"/>
<path d="M435.24 170.45L435.24 0.492554L433.516 0.492554L433.516 170.45L435.24 170.45Z" fill="#FFFEFD"/>
<path d="M146.312 170.45L146.312 0.492615L144.588 0.492615L144.588 170.45L146.312 170.45Z" fill="#FFFEFD"/>
<path d="M112.441 35H117.661L118.993 30.752H125.581L126.949 35H132.241L124.933 14.156H119.713L112.441 35ZM120.505 25.892L122.233 19.484L124.033 25.892L124.321 26.864H120.181L120.505 25.892ZM162.767 35H167.771V28.124H170.003L174.287 35H180.299L174.755 27.116C176.879 26.18 178.751 24.38 178.751 21.068C178.751 16.1 174.539 14.156 169.571 14.156H162.767V35ZM167.771 18.26H169.571C172.199 18.26 173.603 19.088 173.603 21.212C173.603 23.3 172.199 24.164 169.571 24.164H167.771V18.26ZM218.205 35.36C224.685 35.36 227.457 30.968 227.457 24.416C227.457 17.864 224.685 13.76 218.385 13.76C211.977 13.76 209.169 18.008 209.169 24.668C209.169 31.364 212.013 35.36 218.205 35.36ZM218.313 31.076C214.893 31.076 214.317 28.304 214.317 24.56C214.317 20.78 214.893 18.044 218.313 18.044C221.733 18.044 222.309 20.78 222.309 24.56C222.309 28.304 221.733 31.076 218.313 31.076ZM266.263 35.36C271.843 35.36 274.327 32.408 274.327 27.152V14.156H269.287V27.152C269.287 30.14 268.315 31.076 266.299 31.076C264.283 31.076 263.311 30.14 263.311 27.152V14.156H258.271V27.152C258.271 32.372 260.647 35.36 266.263 35.36ZM306.725 35H311.117V26.036L310.433 19.34L315.725 35H321.845V14.156H317.453V23.12L318.137 29.816L312.845 14.156H306.725V35ZM354.711 35H361.587C368.571 35 371.415 31.04 371.415 24.38C371.415 17.648 368.499 14.156 361.587 14.156H354.711V35ZM359.715 18.332H361.587C365.367 18.332 366.267 20.384 366.267 24.56C366.267 28.7 365.367 30.824 361.587 30.824H359.715V18.332ZM455.723 35H460.727V18.332H467.495V14.156H448.991V18.332H455.723V35ZM498.669 35H503.709V26.468H508.749V35H513.789V14.156H508.749V22.292H503.709V14.156H498.669V35ZM546.655 35H562.171V30.824H551.659V26.468H560.515V22.292H551.659V18.332H562.171V14.156H546.655V35ZM66.6152 77H72.2312L74.3552 68.792L76.4792 77H82.0952L84.3992 56.156H79.6832L78.9632 65.84L78.6392 72.284L76.3352 62.636H72.5192L70.1792 72.32L69.8912 65.84L69.1712 56.156H64.3112L66.6152 77ZM114.781 77H119.821V68.468H124.861V77H129.901V56.156H124.861V64.292H119.821V56.156H114.781V77ZM162.731 77H177.923V72.824H172.811V60.332H177.923V56.156H162.731V60.332H167.807V72.824H162.731V77ZM218.133 77.36C223.029 77.36 226.881 75.344 226.881 70.916C226.881 67.604 224.721 66.164 221.841 65.192L217.197 63.608C216.009 63.212 215.217 62.672 215.217 61.7C215.217 60.512 216.333 59.792 218.349 59.792C220.761 59.792 221.553 60.8 221.733 62.528H226.485C226.377 58.1 223.281 55.76 218.421 55.76C213.777 55.76 210.213 57.884 210.213 62.024C210.213 65.228 212.337 66.884 214.821 67.712L219.285 69.188C220.905 69.728 221.877 70.16 221.877 71.312C221.877 72.572 220.725 73.364 218.349 73.364C215.793 73.364 214.641 72.464 214.461 70.484H209.745C209.745 74.876 212.697 77.36 218.133 77.36ZM258.739 77H263.743V69.98L265.507 68.072L270.619 77H276.595L268.927 64.328L276.235 56.156H270.223L263.743 64.004V56.156H258.739V77ZM311.765 77H316.769V68.828L324.473 56.156H318.893L316.517 60.368L314.321 64.832L312.377 60.368L310.037 56.156H304.061L311.765 68.864V77ZM359.859 77H364.683L372.387 56.156H367.023L363.927 65.84L362.415 71.348L360.903 65.804L357.771 56.156H352.155L359.859 77ZM402.697 77H418.213V72.824H407.701V68.468H416.557V64.292H407.701V60.332H418.213V56.156H402.697V77ZM450.683 77H455.687V70.124H457.919L462.203 77H468.215L462.671 69.116C464.795 68.18 466.667 66.38 466.667 63.068C466.667 58.1 462.455 56.156 457.487 56.156H450.683V77ZM455.687 60.26H457.487C460.115 60.26 461.519 61.088 461.519 63.212C461.519 65.3 460.115 66.164 457.487 66.164H455.687V60.26ZM506.049 77.36C510.945 77.36 514.797 75.344 514.797 70.916C514.797 67.604 512.637 66.164 509.757 65.192L505.113 63.608C503.925 63.212 503.133 62.672 503.133 61.7C503.133 60.512 504.249 59.792 506.265 59.792C508.677 59.792 509.469 60.8 509.649 62.528H514.401C514.293 58.1 511.197 55.76 506.337 55.76C501.693 55.76 498.129 57.884 498.129 62.024C498.129 65.228 500.253 66.884 502.737 67.712L507.201 69.188C508.821 69.728 509.793 70.16 509.793 71.312C509.793 72.572 508.641 73.364 506.265 73.364C503.709 73.364 502.557 72.464 502.377 70.484H497.661C497.661 74.876 500.613 77.36 506.049 77.36ZM546.655 77H562.171V72.824H551.659V68.468H560.515V64.292H551.659V60.332H562.171V56.156H546.655V77ZM114.745 119H129.937V114.824H124.825V102.332H129.937V98.156H114.745V102.332H119.821V114.824H114.745V119ZM162.767 119H167.159V110.036L166.475 103.34L171.767 119H177.887V98.156H173.495V107.12L174.179 113.816L168.887 98.156H162.767V119ZM257.659 119H275.299V114.896H262.807C262.807 114.176 263.383 113.6 265.219 112.736L269.467 110.756C272.347 109.424 274.903 107.516 274.903 103.952C274.903 100.1 271.915 97.76 266.839 97.76C261.511 97.76 258.127 100.352 258.127 105.14H262.735C262.735 102.908 264.283 101.864 266.623 101.864C268.495 101.864 269.827 102.512 269.827 104.204C269.827 105.5 269.071 106.364 266.263 107.66L262.087 109.604C259.639 110.756 257.659 112.88 257.659 116.048V119ZM315.437 119H320.153V114.5H323.393V110.576H320.153V98.156H315.761L304.709 111.26V114.5H315.437V119ZM315.437 104.276V110.576H310.181L315.437 104.276ZM402.697 119H409.573C416.557 119 419.401 115.04 419.401 108.38C419.401 101.648 416.485 98.156 409.573 98.156H402.697V119ZM407.701 102.332H409.573C413.353 102.332 414.253 104.384 414.253 108.56C414.253 112.7 413.353 114.824 409.573 114.824H407.701V102.332ZM448.343 119H453.563L454.895 114.752H461.483L462.851 119H468.143L460.835 98.156H455.615L448.343 119ZM456.407 109.892L458.135 103.484L459.935 109.892L460.223 110.864H456.083L456.407 109.892ZM503.709 119H508.713V110.828L516.417 98.156H510.837L508.461 102.368L506.265 106.832L504.321 102.368L501.981 98.156H496.005L503.709 110.864V119ZM554.035 119.36C558.931 119.36 562.783 117.344 562.783 112.916C562.783 109.604 560.623 108.164 557.743 107.192L553.099 105.608C551.911 105.212 551.119 104.672 551.119 103.7C551.119 102.512 552.235 101.792 554.251 101.792C556.663 101.792 557.455 102.8 557.635 104.528H562.387C562.279 100.1 559.183 97.76 554.323 97.76C549.679 97.76 546.115 99.884 546.115 104.024C546.115 107.228 548.239 108.884 550.723 109.712L555.187 111.188C556.807 111.728 557.779 112.16 557.779 113.312C557.779 114.572 556.627 115.364 554.251 115.364C551.695 115.364 550.543 114.464 550.363 112.484H545.647C545.647 116.876 548.599 119.36 554.035 119.36Z" fill="#FFFEFD"/>
</svg>
