<svg width="495" height="171" viewBox="0 0 495 171" fill="none" xmlns="http://www.w3.org/2000/svg">
<path d="M494.415 36.979V35.6166L5.95362e-08 35.6166L0 36.979L494.415 36.979Z" fill="#FFFEFD"/>
<path d="M494.416 70.6494V69.2871L0.00103572 69.287L0.00103566 70.6494L494.416 70.6494Z" fill="#FFFEFD"/>
<path d="M494.415 103.541V102.179L1.19418e-06 102.179L1.13464e-06 103.541L494.415 103.541Z" fill="#FFFEFD"/>
<path d="M495 171V169.638L2.6795e-07 169.638L2.08414e-07 171L495 171Z" fill="#FFFEFD"/>
<path d="M0.00111018 136.238L0.00111613 0L495 2.16428e-05V136.239L0.00111018 136.238ZM1.36314 1.36239L1.36313 134.876L493.638 134.876V1.36241L1.36314 1.36239Z" fill="#FFFEFD"/>
<path d="M229.794 169.638V0.389262L228.432 0.389262V169.638H229.794Z" fill="#FFFEFD"/>
<path d="M1.55765 134.681L1.55766 0.389262L0.195701 0.389262L0.195695 134.681H1.55765Z" fill="#FFFEFD"/>
<path d="M381.952 169.638V0.389262L380.59 0.389262V169.638H381.952Z" fill="#FFFEFD"/>
<path d="M153.911 169.638V0.389262L152.549 0.389262L152.549 169.638H153.911Z" fill="#FFFEFD"/>
<path d="M305.679 169.638V0.389262L304.317 0.389262V169.638H305.679Z" fill="#FFFEFD"/>
<path d="M77.4417 169.638L77.4417 0.389262L76.0797 0.389262L76.0797 169.638H77.4417Z" fill="#FFFEFD"/>
<path d="M457.836 169.638V0.389327L456.474 0.389327V169.638H457.836Z" fill="#FFFEFD"/>
<path d="M495 169.638V0.389327L493.94 0.389327L493.94 169.638L495 169.638Z" fill="#FFFEFD"/>
<path d="M267.736 169.638V0.389262L266.374 0.389262V169.638H267.736Z" fill="#FFFEFD"/>
<path d="M39.6943 169.638L39.6943 0.389327L38.3323 0.389327L38.3323 169.638H39.6943Z" fill="#FFFEFD"/>
<path d="M1.36305 169.638L1.36305 0.389327L0.00105124 0.389327L2.6795e-07 169.638L1.36305 169.638Z" fill="#FFFEFD"/>
<path d="M420.089 169.638L420.089 0.389262L418.727 0.389262V169.638H420.089Z" fill="#FFFEFD"/>
<path d="M191.853 169.638V0.389262L190.491 0.389262L190.491 169.638H191.853Z" fill="#FFFEFD"/>
<path d="M343.816 169.637V0.389197L342.454 0.389197V169.637H343.816Z" fill="#FFFEFD"/>
<path d="M115.578 169.638L115.578 0.389262L114.216 0.389262L114.216 169.638H115.578Z" fill="#FFFEFD"/>
<path d="M166.916 25.4456H169.836L170.582 23.0686H174.267L175.032 25.4456H177.993L173.905 13.782H170.984L166.916 25.4456ZM171.427 20.349L172.394 16.7633L173.401 20.349L173.562 20.8929H171.246L171.427 20.349Z" fill="#FFFEFD"/>
<path d="M206.164 25.4456H208.963V21.598H210.212L212.608 25.4456H215.972L212.87 21.034C214.058 20.5102 215.106 19.503 215.106 17.6497C215.106 14.8698 212.749 13.782 209.97 13.782H206.164V25.4456ZM208.963 16.0784H209.97C211.44 16.0784 212.226 16.5417 212.226 17.7303C212.226 18.8986 211.44 19.3821 209.97 19.3821H208.963V16.0784Z" fill="#FFFEFD"/>
<path d="M248.271 25.647C251.896 25.647 253.447 23.1894 253.447 19.5231C253.447 15.8568 251.896 13.5604 248.372 13.5604C244.787 13.5604 243.216 15.9374 243.216 19.6641C243.216 23.411 244.807 25.647 248.271 25.647ZM248.332 23.2499C246.418 23.2499 246.096 21.6987 246.096 19.6037C246.096 17.4885 246.418 15.9576 248.332 15.9576C250.245 15.9576 250.567 17.4885 250.567 19.6037C250.567 21.6987 250.245 23.2499 248.332 23.2499Z" fill="#FFFEFD"/>
<path d="M286.25 25.647C289.372 25.647 290.761 23.9952 290.761 21.0541V13.782H287.942V21.0541C287.942 22.7261 287.398 23.2499 286.27 23.2499C285.142 23.2499 284.599 22.7261 284.599 21.0541V13.782H281.779V21.0541C281.779 23.9751 283.108 25.647 286.25 25.647Z" fill="#FFFEFD"/>
<path d="M319.979 25.4456H322.436V20.4296L322.054 16.6828L325.014 25.4456H328.438V13.782H325.981V18.7979L326.364 22.5448L323.403 13.782H319.979V25.4456Z" fill="#FFFEFD"/>
<path d="M357.918 25.4456H361.765C365.672 25.4456 367.263 23.2297 367.263 19.503C367.263 15.736 365.631 13.782 361.765 13.782H357.918V25.4456ZM360.717 16.1187H361.765C363.879 16.1187 364.383 17.2669 364.383 19.6037C364.383 21.9203 363.879 23.1088 361.765 23.1088H360.717V16.1187Z" fill="#FFFEFD"/>
<path d="M171.045 59.3731H173.844V50.0462H177.63V47.7095H167.279V50.0462H171.045V59.3731Z" fill="#FFFEFD"/>
<path d="M206.164 59.3731H208.983V54.5989H211.803V59.3731H214.622V47.7095H211.803V52.2621H208.983V47.7095H206.164V59.3731Z" fill="#FFFEFD"/>
<path d="M244.102 59.3731H252.782V57.0364H246.902V54.5989H251.856V52.2621H246.902V50.0462H252.782V47.7095H244.102V59.3731Z" fill="#FFFEFD"/>
<path d="M168.125 93.3006H171.266L172.455 88.7077L173.643 93.3006H176.784L178.073 81.637H175.435L175.032 87.0559L174.851 90.6617L173.562 85.263H171.427L170.118 90.6819L169.957 87.0559L169.555 81.637H166.836L168.125 93.3006Z" fill="#FFFEFD"/>
<path d="M206.164 93.3006H208.983V88.5264H211.803V93.3006H214.622V81.637H211.803V86.1896H208.983V81.637H206.164V93.3006Z" fill="#FFFEFD"/>
<path d="M244.082 93.3006H252.581V90.9639H249.721V83.9737H252.581V81.637H244.082V83.9737H246.922V90.9639H244.082V93.3006Z" fill="#FFFEFD"/>
<path d="M286.169 93.5021C288.908 93.5021 291.063 92.374 291.063 89.8962C291.063 88.0429 289.855 87.2372 288.244 86.6933L285.646 85.8069C284.981 85.5853 284.538 85.2831 284.538 84.7392C284.538 84.0745 285.162 83.6716 286.29 83.6716C287.64 83.6716 288.083 84.2356 288.183 85.2026H290.842C290.781 82.7248 289.049 81.4154 286.331 81.4154C283.733 81.4154 281.739 82.6039 281.739 84.9205C281.739 86.7134 282.927 87.64 284.317 88.1034L286.814 88.9293C287.72 89.2315 288.264 89.4732 288.264 90.1178C288.264 90.8229 287.619 91.2661 286.29 91.2661C284.86 91.2661 284.216 90.7624 284.115 89.6545H281.477C281.477 92.1121 283.128 93.5021 286.169 93.5021Z" fill="#FFFEFD"/>
<path d="M319.979 93.3006H322.779V89.3725L323.766 88.3048L326.625 93.3006H329.968L325.679 86.2098L329.767 81.637H326.404L322.779 86.0285V81.637H319.979V93.3006Z" fill="#FFFEFD"/>
<path d="M360.737 93.3006H363.537V88.7278L367.847 81.637H364.725L363.396 83.9939L362.167 86.4918L361.08 83.9939L359.771 81.637H356.428L360.737 88.748V93.3006Z" fill="#FFFEFD"/>
<path d="M396.944 88.6473H403.227V86.2904H396.944V88.6473Z" fill="#FFFEFD"/>
<path d="M171.105 127.228H173.804L178.114 115.565H175.113L173.381 120.983L172.535 124.065L171.689 120.963L169.937 115.565H166.795L171.105 127.228Z" fill="#FFFEFD"/>
<path d="M206.164 127.228H214.844V124.891H208.963V122.454H213.917V120.117H208.963V117.901H214.844V115.565H206.164V127.228Z" fill="#FFFEFD"/>
<path d="M244.102 127.228H246.902V123.381H248.15L250.547 127.228H253.91L250.809 122.817C251.997 122.293 253.044 121.286 253.044 119.432C253.044 116.652 250.688 115.565 247.909 115.565H244.102V127.228ZM246.902 117.861H247.909C249.379 117.861 250.164 118.324 250.164 119.513C250.164 120.681 249.379 121.165 247.909 121.165H246.902V117.861Z" fill="#FFFEFD"/>
<path d="M286.169 127.43C288.908 127.43 291.063 126.302 291.063 123.824C291.063 121.97 289.855 121.165 288.244 120.621L285.646 119.734C284.981 119.513 284.538 119.211 284.538 118.667C284.538 118.002 285.162 117.599 286.29 117.599C287.64 117.599 288.083 118.163 288.183 119.13H290.842C290.781 116.652 289.049 115.343 286.331 115.343C283.733 115.343 281.739 116.531 281.739 118.848C281.739 120.641 282.927 121.568 284.317 122.031L286.814 122.857C287.72 123.159 288.264 123.401 288.264 124.045C288.264 124.75 287.619 125.194 286.29 125.194C284.86 125.194 284.216 124.69 284.115 123.582H281.477C281.477 126.04 283.128 127.43 286.169 127.43Z" fill="#FFFEFD"/>
<path d="M319.979 127.228H328.659V124.891H322.779V122.454H327.733V120.117H322.779V117.901H328.659V115.565H319.979V127.228Z" fill="#FFFEFD"/>
<path d="M395.836 127.228H404.335V124.891H401.475V117.901H404.335V115.565H395.836V117.901H398.676V124.891H395.836V127.228Z" fill="#FFFEFD"/>
<path d="M433.795 127.228H436.252V122.212L435.869 118.465L438.83 127.228H442.253V115.565H439.796V120.58L440.179 124.327L437.219 115.565H433.795V127.228Z" fill="#FFFEFD"/>
<path d="M167.621 161.156H177.489V158.859H170.501C170.501 158.456 170.823 158.134 171.85 157.651L174.227 156.543C175.838 155.797 177.268 154.73 177.268 152.735C177.268 150.58 175.596 149.27 172.757 149.27C169.776 149.27 167.883 150.721 167.883 153.4H170.461C170.461 152.151 171.327 151.567 172.636 151.567C173.683 151.567 174.428 151.93 174.428 152.876C174.428 153.602 174.005 154.085 172.434 154.81L170.098 155.898C168.729 156.543 167.621 157.731 167.621 159.504V161.156Z" fill="#FFFEFD"/>
<path d="M211.038 161.156H213.676V158.638H215.488V156.442H213.676V149.492H211.219L205.036 156.825V158.638H211.038V161.156ZM211.038 152.917V156.442H208.097L211.038 152.917Z" fill="#FFFEFD"/>
<path d="M282.041 161.156H285.887C289.794 161.156 291.385 158.94 291.385 155.213C291.385 151.446 289.754 149.492 285.887 149.492H282.041V161.156ZM284.84 151.829H285.887C288.002 151.829 288.506 152.977 288.506 155.314C288.506 157.63 288.002 158.819 285.887 158.819H284.84V151.829Z" fill="#FFFEFD"/>
<path d="M318.67 161.156H321.591L322.336 158.779H326.021L326.786 161.156H329.747L325.659 149.492H322.739L318.67 161.156ZM323.182 156.059L324.148 152.473L325.155 156.059L325.316 156.603H323L323.182 156.059Z" fill="#FFFEFD"/>
<path d="M360.737 161.156H363.537V156.583L367.847 149.492H364.725L363.396 151.849L362.167 154.347L361.08 151.849L359.771 149.492H356.428L360.737 156.603V161.156Z" fill="#FFFEFD"/>
<path d="M399.985 161.357C402.724 161.357 404.879 160.229 404.879 157.751C404.879 155.898 403.67 155.092 402.059 154.548L399.461 153.662C398.797 153.44 398.354 153.138 398.354 152.594C398.354 151.93 398.978 151.527 400.106 151.527C401.455 151.527 401.898 152.091 401.999 153.058H404.657C404.597 150.58 402.865 149.27 400.146 149.27C397.548 149.27 395.554 150.459 395.554 152.776C395.554 154.568 396.743 155.495 398.132 155.958L400.629 156.784C401.536 157.086 402.079 157.328 402.079 157.973C402.079 158.678 401.435 159.121 400.106 159.121C398.676 159.121 398.031 158.617 397.931 157.51H395.293C395.293 159.967 396.944 161.357 399.985 161.357Z" fill="#FFFEFD"/>
</svg>
