<svg width="36" height="36" fill="none" xmlns="http://www.w3.org/2000/svg"><g clip-path="url(#a)"><path d="m8.51 31.95.42-.14 17.3.14h5.72V4.05H4.05v27.9H8.5Zm0 .84h-5.3v-5.3H.84v7.67H8.5V32.8Zm24.28-5.3v5.3h-5.86v2.23h8.1v-7.67l-2.24.14ZM27.07 3.2h5.72v5.58h2.23V.84h-8.09l.14 2.37Zm-17.72 0h16.74V.14h9.77V9.77H32.8v17.02h3.07v9.35H26.1v-3.07H9.35V36.27H0v-9.34h3.07V9.63H0V0h9.35v3.21Zm-5.72 0H8.5V.84H.84v7.81h2.23V3.21h.56Z" fill="#AF705E"/></g><defs><clipPath id="a"><path fill="#fff" d="M0 0h36v36H0z"/></clipPath></defs></svg>