<svg width="377" height="444" viewBox="0 0 377 444" fill="none" xmlns="http://www.w3.org/2000/svg">
<g clip-path="url(#clip0)">
<g clip-path="url(#clip1)">
<path d="M30.5958 174.52C41.8169 171.739 61.3953 172.727 64.5076 169.158C69.0672 164.506 42.3444 149.999 50.0623 144.415C56.5049 139.813 74.085 146.263 77.581 137.835C80.7888 131.082 76.0032 118.029 78.1736 112.466C82.1909 103.152 102.248 120.307 105.33 116.293C108.447 112.142 93.1194 78.419 99.1874 73.574C100.842 72.2526 104.183 73.9932 105.854 74.8635C115.836 80.804 128.589 95.1918 133.59 95.0289C140.165 94.9821 131.373 65.8694 140.914 67.3203C148.507 68.4123 156.477 85.4988 165.101 82.0452C172.04 79.4676 178.314 66.5087 183.33 64.5996C192.779 60.7763 194.849 87.1267 199.855 86.3817C205.341 85.4696 217.827 50.7852 225.728 51.8113C227.849 52.069 228.984 55.5715 229.516 57.4593C232.296 68.6804 231.308 88.2588 234.877 91.3711C239.529 95.9307 254.036 69.2079 259.62 76.9258C264.359 83.4038 257.772 100.949 266.2 104.445C272.953 107.652 286.006 102.867 291.569 105.037C300.883 109.054 283.728 129.112 287.743 132.193C291.894 135.311 325.616 119.983 330.461 126.051C331.783 127.706 330.042 131.047 329.172 132.717C323.231 142.7 308.844 155.453 309.006 160.453C309.053 167.028 338.166 158.236 336.715 167.778C335.623 175.37 318.537 183.34 321.99 191.965C324.568 198.904 337.527 205.178 339.436 210.193C343.294 219.506 316.909 221.713 317.654 226.718C318.566 232.205 353.25 244.691 352.224 252.592C351.966 254.713 348.464 255.847 346.576 256.379C335.355 259.16 315.812 258.035 312.664 261.74C308.105 266.393 334.827 280.9 327.11 286.484C320.667 291.086 303.087 284.636 299.591 293.064C296.383 299.817 301.169 312.87 298.998 318.433C294.981 327.747 274.924 310.592 271.842 314.606C268.725 318.757 284.052 352.48 277.984 357.325C276.33 358.646 272.989 356.906 271.318 356.035C261.336 350.095 248.583 335.707 243.582 335.87C237.007 335.917 245.799 365.029 236.258 363.579C228.665 362.487 220.695 345.4 212.071 348.854C205.132 351.431 198.858 364.39 193.842 366.299C184.529 370.158 182.323 343.772 177.317 344.517C171.83 345.429 159.345 380.114 151.443 379.088C149.323 378.83 148.188 375.327 147.656 373.44C144.875 362.218 146.001 342.675 142.295 339.528C137.643 334.968 123.136 361.691 117.551 353.973C112.813 347.495 119.4 329.95 110.971 326.454C104.219 323.247 91.1657 328.032 85.6026 325.862C76.2885 321.845 93.4436 301.787 89.4292 298.706C85.2781 295.588 51.5555 310.916 46.7105 304.848C45.3891 303.193 47.1297 299.852 48 298.182C53.9404 288.199 68.3282 275.446 68.1653 270.445C68.1186 263.87 39.0059 272.663 40.4568 263.121C41.5487 255.529 58.6352 247.559 55.1817 238.934C52.604 231.995 39.6452 225.721 37.7361 220.706C33.8774 211.393 60.2631 209.186 59.5182 204.181C58.6061 198.694 23.9217 186.208 24.9478 178.307C25.2055 176.186 28.708 175.052 30.5958 174.52ZM24.5024 178.337C23.5068 186.684 58.3278 199.205 59.0373 204.348C59.7519 208.908 33.2295 211.079 37.2198 221.009C39.2302 226.197 52.0878 232.299 54.6654 239.238C57.9165 247.518 40.9667 255.524 39.8747 263.116C38.4189 273.24 67.4961 264.584 67.5479 270.577C67.7461 275.441 52.4272 288.974 46.9675 298.789C45.2977 301.857 45.04 303.978 46.0222 305.253C51.2064 311.701 84.8278 296.201 88.8776 299.146C92.5174 301.985 75.4635 322.214 85.1876 326.338C90.8873 328.543 103.667 323.687 110.42 326.895C118.575 330.32 112.16 347.763 116.899 354.241C122.787 362.476 137.465 335.652 141.743 339.968C145.312 343.081 144.041 363.752 147.1 374.462C148.133 377.792 149.454 379.447 151.13 379.736C159.476 380.731 171.998 345.91 177.14 345.201C181.7 344.486 183.872 371.008 193.802 367.018C198.989 365.008 205.091 352.15 212.03 349.572C220.311 346.321 228.316 363.271 235.909 364.363C246.032 365.819 237.377 336.742 243.369 336.69C248.234 336.492 261.766 351.811 271.582 357.27C274.649 358.94 276.77 359.198 278.045 358.216C284.493 353.031 268.993 319.41 271.938 315.36C274.777 311.721 295.006 328.774 299.13 319.05C301.336 313.351 296.479 300.571 299.687 293.818C303.112 285.663 320.556 292.078 327.034 287.339C335.268 281.451 308.444 266.772 312.761 262.495C315.873 258.926 336.545 260.197 347.254 257.138C350.585 256.105 352.24 254.784 352.528 253.108C353.523 244.761 318.702 232.24 317.993 227.098C317.278 222.537 343.801 220.366 339.81 210.436C337.8 205.248 324.942 199.146 322.365 192.207C319.114 183.927 336.064 175.922 337.155 168.329C338.611 158.206 309.534 166.861 309.346 160.833C309.147 155.969 324.466 142.436 329.926 132.621C331.596 129.553 331.854 127.432 330.871 126.157C325.687 119.71 292.066 135.209 288.016 132.264C284.376 129.425 301.43 109.196 291.706 105.073C286.006 102.867 273.227 107.723 266.474 104.515C258.319 101.09 264.734 83.6467 259.995 77.1687C254.107 68.9346 239.428 95.7587 235.15 91.4419C231.581 88.3297 232.853 67.6579 229.794 56.9481C228.761 53.6177 227.439 51.9628 225.9 51.71C217.554 50.7144 205.033 85.5355 199.89 86.245C195.33 86.9595 193.159 60.4372 183.228 64.4275C178.041 66.4379 171.939 79.2955 165 81.8731C156.72 85.1242 148.714 68.1743 141.122 67.0824C130.998 65.6265 139.654 94.7038 133.661 94.7555C128.797 94.9538 115.264 79.6348 105.449 74.1752C102.381 72.5054 100.26 72.2477 98.9848 73.2298C92.5373 78.4141 108.037 112.035 105.092 116.085C102.253 119.725 82.0237 102.671 77.9003 112.395C75.6945 118.095 80.5509 130.875 77.3431 137.627C73.9179 145.782 56.4744 139.367 49.9964 144.106C41.7623 149.994 68.5864 164.673 64.2696 168.951C61.1574 172.52 40.4856 171.248 29.7758 174.307C26.3088 175.305 24.6539 176.627 24.5024 178.337Z" fill="#1C1C1C"/>
<path d="M45.3757 147.868C52.1319 142.618 73.9084 150.884 76.1036 142.411C76.7055 140.087 75.8593 134.91 75.3523 130.111C74.9012 126.786 74.4749 120.55 76.008 117.447C80.7085 108.31 99.115 122.266 102.566 119.077C106.397 115.548 89.6529 83.3547 95.3561 77.1025C98.0888 73.8727 107.474 81.5545 111.59 84.8084C115.842 88.0976 125.021 96.0174 128.791 95.5358C135.614 94.5324 126.204 65.5514 135.133 66.552C143.48 67.5476 153.4 88.931 160.698 84.4046C163.142 82.8503 166.78 77.8133 168.926 75.1606C171.487 72.0321 174.877 67.9518 178.278 66.6453C187.758 63.2675 191.397 86.3781 195.881 86.519C201.014 86.9736 212.062 52.2085 220.525 51.6299C224.053 51.523 225.39 59.3075 226.647 68.5295C227.382 74.6995 228.382 86.0423 231.308 88.2588C236.886 92.6208 250.613 64.9668 256.167 72.2393C261.417 78.9956 253.151 100.772 261.624 102.967C263.948 103.569 269.125 102.723 273.924 102.216C277.249 101.765 283.485 101.339 286.588 102.872C295.725 107.572 281.769 125.979 284.958 129.43C288.487 133.261 320.68 116.517 326.932 122.22C330.026 124.917 322.481 134.338 319.227 138.454C315.937 142.706 308.018 151.884 308.499 155.655C309.503 162.478 338.484 153.068 337.483 161.997C336.487 170.344 315.104 180.263 319.63 187.561C321.185 190.006 326.257 193.507 328.874 195.79C332.003 198.35 336.083 201.741 337.39 205.142C340.768 214.622 317.657 218.26 317.516 222.745C317.061 227.877 351.827 238.926 352.268 247.353C352.512 250.916 344.591 252.219 335.369 253.476C329.199 254.211 317.856 255.21 315.64 258.136C311.278 263.715 338.932 277.442 331.659 282.996C324.903 288.246 303.126 279.979 300.931 288.453C300.329 290.776 301.175 295.954 301.682 300.752C302.134 304.077 302.56 310.313 301.027 313.416C296.326 322.553 277.92 308.597 274.468 311.786C270.637 315.315 287.382 347.509 281.679 353.761C278.946 356.991 269.56 349.309 265.445 346.055C261.192 342.766 252.014 334.846 248.243 335.327C241.42 336.331 250.83 365.312 241.901 364.311C233.555 363.316 223.635 341.932 216.337 346.459C213.893 348.013 210.254 353.05 208.109 355.703C205.548 358.831 202.157 362.912 198.756 364.218C189.277 367.596 185.638 344.485 181.153 344.344C176.021 343.89 164.973 378.655 156.545 379.097C153.017 379.204 151.68 371.419 150.423 362.197C149.688 356.027 148.688 344.684 145.762 342.468C140.184 338.106 126.457 365.76 120.903 358.487C115.653 351.731 123.919 329.955 115.446 327.759C113.122 327.157 107.945 328.004 103.146 328.511C99.8209 328.962 93.5851 329.388 90.4821 327.855C81.345 323.154 95.3015 304.748 92.1121 301.297C88.5835 297.466 56.3897 314.21 50.1376 308.507C46.9078 305.774 54.5896 296.389 57.8434 292.273C61.1327 288.021 69.0524 278.842 68.5709 275.072C67.5674 268.249 38.5864 277.659 39.587 268.73C40.5826 260.383 61.9661 250.463 57.4397 243.165C55.8853 240.721 50.8483 237.083 48.1957 234.937C45.0671 232.376 40.9869 228.986 39.6804 225.585C36.3025 216.105 59.4131 212.466 59.554 207.982C60.0086 202.849 25.2436 191.801 24.665 183.338C24.5581 179.81 32.3426 178.473 41.5646 177.216C47.7345 176.481 59.0774 175.481 61.2938 172.555C65.8584 167.321 38.2044 153.594 45.3757 147.868ZM40.5725 177.104C35.7388 177.748 23.9151 178.914 24.3209 183.541C24.8286 192.277 59.5937 203.325 59.1086 208.012C58.8665 212.325 35.7559 215.963 39.1995 225.752C41.7113 232.382 54.2906 238.995 56.9588 243.332C61.2827 250.286 40.208 260.14 39.0403 268.588C37.964 278.372 67.0512 268.553 67.9888 275.067C68.4045 278.529 60.8997 287.231 56.7097 292.708C51.0319 299.988 46.8016 306.184 49.7934 308.709C56.2835 314.62 88.4773 297.876 91.768 301.499C94.7549 304.606 80.8288 323.458 90.2392 328.23C96.4453 331.296 110.693 326.966 115.203 328.134C123.302 330.086 115.136 352.035 120.422 358.654C126.452 366.342 140.315 338.723 145.555 342.706C148.481 344.922 149.268 357.085 150.038 363.118C150.682 367.952 151.848 379.776 156.474 379.37C165.211 378.862 176.259 344.097 180.946 344.582C185.259 344.824 188.897 367.935 198.685 364.491C205.316 361.98 211.929 349.4 216.266 346.732C223.22 342.408 233.074 363.483 241.522 364.651C251.306 365.727 241.486 336.64 248 335.702C251.462 335.286 260.165 342.791 265.642 346.981C272.922 352.659 279.118 356.889 281.643 353.897C287.417 347.372 270.809 315.214 274.433 311.923C277.54 308.936 296.392 322.862 301.163 313.452C304.23 307.246 299.899 292.998 301.068 288.488C303.02 280.389 324.969 288.554 331.588 283.269C339.276 277.239 311.657 263.375 315.64 258.136C317.856 255.21 330.019 254.423 336.052 253.653C340.886 253.009 352.71 251.843 352.304 247.216C351.796 238.48 317.031 227.432 317.516 222.745C317.758 218.432 340.869 214.794 337.425 205.005C334.913 198.375 322.334 191.762 319.666 187.425C315.342 180.471 336.417 170.617 337.584 162.169C338.661 152.385 309.437 162.169 308.636 155.69C308.22 152.228 315.725 143.526 319.915 138.049C325.593 130.769 329.823 124.573 326.831 122.048C320.306 116.274 288.147 132.882 284.857 129.258C281.87 126.151 295.796 107.299 286.385 102.527C280.179 99.4613 265.932 103.792 261.422 102.623C253.323 100.671 261.488 78.7223 256.203 72.1027C250.173 64.4152 236.309 92.0338 231.07 88.0513C228.144 85.8348 227.357 73.672 226.45 67.6033C225.806 62.7696 224.64 50.9459 220.014 51.3517C211.277 51.8594 200.229 86.6245 195.542 86.1394C191.229 85.8973 187.591 62.7867 177.803 66.2303C171.172 68.7421 164.559 81.3214 160.222 83.9896C153.268 88.3135 143.414 67.2388 134.966 66.0711C125.182 64.9948 134.966 94.2187 128.488 95.0196C125.026 95.4353 116.323 87.9305 110.846 83.7405C103.566 78.0627 97.3701 73.8324 94.8449 76.8242C89.0708 83.3497 105.679 115.508 102.055 118.799C98.9479 121.786 80.096 107.86 75.3246 117.27C72.2584 123.476 76.5887 137.724 75.4203 142.234C73.468 150.333 51.5194 142.167 44.8998 147.453C37.2123 153.483 64.8309 167.346 60.8484 172.586C58.9407 175.446 46.7424 176.369 40.5725 177.104Z" fill="#1C1C1C"/>
<path d="M27.4615 168.603C30.4009 161.198 66.9215 167.159 70.2461 162.77C73.3279 158.755 51.2972 144.151 59.2275 137.747C63.3318 134.289 77.8436 135.132 83.3295 130.282C90.5361 124.419 79.332 109.12 82.2006 101.988C85.5649 92.942 106.747 114.764 109.98 109.039C112.55 104.746 106.164 86.6113 105.818 75C105.732 73.0817 105.832 69.3159 107.928 68.5461C115.246 65.6293 137.148 95.3673 142.291 94.6577C147.296 93.9127 142.002 68.1856 152.131 69.0594C157.911 69.8277 166.999 80.3491 174.596 80.8589C183.662 81.8949 186.559 63.3942 193.71 59.9966C202.339 55.9609 202.046 86.366 208.327 84.6388C212.959 83.651 221.601 66.0553 229.48 57.5959C230.862 56.2037 233.554 53.6927 235.533 54.4971C242.939 57.4366 236.978 93.9571 241.367 97.2817C245.381 100.364 259.985 78.3328 266.389 86.2631C269.847 90.3675 269.005 104.879 273.855 110.365C279.717 117.572 295.016 106.368 302.149 109.236C311.194 112.601 289.373 133.782 295.098 137.016C299.391 139.586 317.525 133.2 329.136 132.854C331.055 132.767 334.821 132.868 335.59 134.963C338.507 142.282 308.769 164.184 309.479 169.326C310.224 174.332 335.951 169.038 335.077 179.166C334.309 184.947 323.787 194.034 323.277 201.632C322.241 210.697 340.742 213.594 344.14 220.746C348.175 229.375 317.77 229.082 319.498 235.363C320.485 239.994 338.081 248.636 346.54 256.516C347.933 257.897 350.444 260.589 349.639 262.569C346.7 269.974 310.316 264.049 306.855 268.402C303.773 272.417 325.804 287.021 317.873 293.425C313.769 296.883 299.257 296.04 293.771 300.89C286.565 306.753 297.769 322.052 294.9 329.184C291.536 338.23 270.354 316.408 267.121 322.133C264.55 326.426 270.936 344.561 271.283 356.172C271.369 358.09 271.268 361.856 269.173 362.626C261.855 365.543 239.953 335.805 234.81 336.514C229.804 337.259 235.098 362.986 224.97 362.113C219.19 361.344 210.102 350.823 202.505 350.313C193.439 349.277 190.542 367.778 183.391 371.175C174.761 375.211 175.054 344.806 168.773 346.533C164.142 347.521 155.5 365.117 147.621 373.576C146.239 374.968 143.547 377.479 141.568 376.675C134.162 373.735 140.123 337.215 135.734 333.89C131.72 330.808 117.116 352.839 110.711 344.909C107.254 340.805 108.096 326.293 103.246 320.807C97.3836 313.6 82.0844 324.804 74.9521 321.936C65.9064 318.571 87.7282 297.39 82.0029 294.156C77.7102 291.586 59.5757 297.972 47.9644 298.318C46.0461 298.405 42.2802 298.304 41.5105 296.209C38.5937 288.89 68.3316 266.988 67.6221 261.846C66.8771 256.84 41.15 262.134 42.0238 252.006C42.7921 246.225 53.3135 237.138 53.8233 229.54C54.8593 220.475 36.3586 217.578 32.961 210.426C28.9253 201.797 59.3304 202.09 57.6032 195.809C56.6154 191.178 39.0197 182.536 30.5603 174.656C29.1681 173.275 26.6571 170.583 27.4615 168.603ZM29.7757 174.307C37.653 182.182 56.2054 191.072 57.3299 195.738C58.8899 201.538 28.4494 201.382 32.7889 210.528C36.2878 217.851 54.5151 220.677 53.55 229.469C53.0756 236.93 42.625 245.744 41.7858 251.798C40.6691 262.301 66.6342 257.215 67.3487 261.775C67.9924 266.609 38.0824 288.612 41.2018 296.275C41.8044 297.889 43.7836 298.694 47.3115 298.587C58.4065 298.544 77.8115 291.758 81.9675 294.293C87.1815 297.248 65.461 318.602 75.0534 322.108C82.2211 324.84 97.5861 313.944 103.11 320.772C107.924 326.394 107.016 340.597 110.575 344.873C117.182 353.148 131.922 331.153 135.597 333.855C139.748 336.972 133.752 373.629 141.568 376.675C143.137 377.373 145.096 376.568 147.515 373.986C155.389 366.109 164.314 347.42 168.945 346.432C174.746 344.872 174.589 375.312 183.735 370.973C191.058 367.474 193.884 349.247 202.677 350.212C210.137 350.686 218.952 361.137 225.005 361.976C235.508 363.093 230.422 337.128 234.982 336.413C239.816 335.769 261.819 365.679 269.482 362.56C271.096 361.957 271.901 359.978 271.794 356.45C271.751 345.355 264.965 325.95 267.5 321.794C270.455 316.58 291.809 338.301 295.452 328.744C298.184 321.576 287.288 306.211 294.115 300.688C299.738 295.873 313.941 296.782 318.217 293.222C326.492 286.616 304.497 271.875 307.199 268.2C310.316 264.049 346.973 270.045 350.019 262.23C350.717 260.66 349.912 258.702 347.33 256.283C339.453 248.408 320.764 239.483 319.776 234.852C318.216 229.051 348.656 229.208 344.317 220.062C340.818 212.739 322.591 209.913 323.556 201.121C324.03 193.66 334.481 184.846 335.32 178.792C336.437 168.289 310.472 173.375 309.757 168.815C309.113 163.981 339.023 141.978 335.904 134.315C335.301 132.701 333.322 131.896 329.794 132.003C318.699 132.046 299.294 138.832 295.138 136.297C289.924 133.342 311.645 111.988 302.052 108.482C294.885 105.75 279.52 116.646 273.996 109.818C269.182 104.196 270.09 89.9929 266.531 85.7165C259.924 77.4419 245.184 99.4373 241.372 96.6997C237.221 93.5825 243.217 56.9253 235.401 53.8796C233.832 53.1814 231.873 53.9866 229.454 56.5684C221.58 64.4457 212.69 82.9981 208.024 84.1226C202.223 85.6826 202.38 55.2422 193.234 59.5816C185.911 63.0805 183.085 81.3079 174.292 80.3427C166.832 79.8683 158.017 69.4177 151.964 68.5786C141.461 67.4619 146.547 93.4269 141.987 94.1415C137.153 94.7852 115.15 64.8751 107.487 67.9945C105.873 68.5971 105.068 70.5763 105.175 74.1043C105.218 85.1993 112.004 104.604 109.469 108.76C106.514 113.974 85.1599 92.2537 81.654 101.846C78.922 109.014 89.8174 124.379 82.9903 129.902C77.3677 134.717 63.1647 133.808 58.8883 137.368C50.6138 143.974 72.6092 158.715 69.8715 162.527C66.7543 166.678 30.0971 160.681 27.0515 168.497C26.3887 169.93 27.1938 171.888 29.7757 174.307Z" fill="#1C1C1C"/>
<path d="M67.6857 165.898C71.4558 161.479 46.9247 146.956 54.7488 140.962C60.2956 137.003 74.7472 140.893 80.0149 133.507C85.6927 126.227 77.8551 113.696 80.1367 107.141C83.4351 97.7864 104.53 117.69 107.587 112.648C110.709 107.915 96.6467 74.3741 103.221 70.3894C109.896 66.5768 132.39 95.1555 138.044 94.7243C143.799 94.4651 136.779 66.3947 146.558 68.0531C153.432 69.1047 160.581 82.0408 169.666 80.7485C178.681 79.7294 182.161 65.1716 188.452 62.2803C197.491 58.3509 198.276 86.8475 203.97 85.6975C209.391 84.4767 223.476 50.936 230.755 52.6758C238.1 54.7244 233.991 90.8498 238.137 94.5491C242.557 98.3191 257.079 73.788 263.073 81.6121C267.033 87.1589 263.143 101.61 270.529 106.878C277.808 112.556 290.339 104.718 296.895 107C306.249 110.298 286.346 131.394 291.387 134.45C296.121 137.572 329.661 123.51 333.646 130.084C337.459 136.76 308.88 159.254 309.311 164.907C309.57 170.662 337.641 163.642 335.982 173.421C334.931 180.295 321.994 187.444 323.287 196.53C324.306 205.544 338.864 209.024 341.755 215.315C345.684 224.354 317.188 225.139 318.338 230.833C319.559 236.254 353.099 250.339 351.36 257.618C349.346 264.826 313.186 260.854 309.486 265.001C305.716 269.42 330.247 283.942 322.423 289.937C316.876 293.896 302.425 290.006 297.157 297.392C291.479 304.672 299.317 317.203 297.035 323.758C293.737 333.112 272.642 313.209 269.585 318.251C266.463 322.984 280.525 356.525 273.951 360.509C267.275 364.322 244.782 335.743 239.128 336.174C233.373 336.434 240.393 364.504 230.614 362.846C223.74 361.794 216.591 348.858 207.506 350.15C198.491 351.169 195.011 365.727 188.72 368.618C179.681 372.548 178.896 344.051 173.202 345.201C167.781 346.422 153.696 379.963 146.417 378.223C139.209 376.21 143.181 340.049 139.035 336.35C134.615 332.58 120.093 357.111 114.099 349.287C110.139 343.74 114.029 329.288 106.643 324.02C99.3638 318.343 86.8327 326.18 80.2775 323.899C70.9231 320.6 90.8265 299.505 85.7845 296.449C81.0514 293.326 47.5107 307.389 43.5261 300.814C39.7134 294.139 68.2922 271.645 67.8609 265.991C67.6017 260.236 39.5314 267.257 41.1898 257.477C42.2414 250.604 55.1775 243.454 53.8851 234.369C52.8661 225.354 38.3083 221.875 35.417 215.584C31.4875 206.544 59.9842 205.76 58.8342 200.066C57.6133 194.645 24.0726 180.559 25.8125 173.281C27.8257 166.072 63.9865 170.044 67.6857 165.898ZM25.4025 173.174C23.4856 181.137 57.2692 194.847 58.3888 200.096C59.3717 205.309 30.7029 206.195 35.1083 215.649C38.2375 222.148 52.5574 225.42 53.6118 234.298C54.9396 243.247 42.2109 250.158 40.9519 257.27C39.1518 267.596 67.3588 260.611 67.623 265.784C67.953 271.265 39.3389 293.896 43.354 300.916C47.5412 307.834 81.2185 293.807 85.7137 296.722C90.2444 299.5 70.4422 320.767 80.2067 324.172C86.9998 326.661 99.2575 318.753 106.436 324.258C113.685 329.491 109.593 343.598 113.755 349.489C119.916 357.794 134.61 333.162 138.655 336.689C142.7 340.216 138.42 376.443 146.174 378.597C154.137 380.514 167.847 346.731 173.096 345.611C178.309 344.628 179.195 373.297 188.649 368.892C195.148 365.762 198.42 351.443 207.298 350.388C216.247 349.06 223.123 361.926 230.27 363.048C240.596 364.848 233.611 336.641 238.784 336.377C244.129 336.012 266.623 364.59 273.779 360.611C274.639 360.104 275.161 359.218 275.444 358.125C277.781 349.105 266.949 322.235 269.585 318.251C272.363 313.72 293.631 333.522 297.035 323.758C299.524 316.965 291.616 304.707 297.122 297.529C302.354 290.279 316.461 294.372 322.352 290.21C330.657 284.049 306.025 269.354 309.552 265.309C313.079 261.264 349.306 265.545 351.461 257.79C353.378 249.828 319.594 236.117 318.474 230.869C317.492 225.655 346.16 224.769 341.755 215.315C338.626 208.817 324.306 205.544 323.251 196.666C321.924 187.718 334.652 180.806 335.911 173.695C337.711 163.369 309.504 170.354 309.24 165.181C308.875 159.836 337.454 137.342 333.474 130.186C329.287 123.267 295.609 137.294 291.114 134.379C286.583 131.601 306.386 110.334 296.621 106.929C289.828 104.44 277.57 112.349 270.392 106.843C263.143 101.61 267.235 87.5031 263.073 81.6121C256.983 73.0338 242.288 97.6663 238.345 94.3111C234.3 90.7839 238.58 54.5573 230.826 52.4025C222.863 50.4856 209.153 84.2692 203.904 85.3888C198.691 86.3717 197.805 57.7029 188.35 62.1083C181.852 65.2375 178.58 79.5574 169.702 80.6118C160.753 81.9396 153.842 69.2109 146.73 67.9519C136.404 66.1518 143.389 94.3589 138.216 94.623C132.735 94.953 110.104 66.3389 103.084 70.354C96.1658 74.5412 110.193 108.219 107.278 112.714C104.5 117.244 83.2326 97.4422 79.8279 107.207C77.3388 114 85.2473 126.258 79.7416 133.436C74.5092 140.685 60.4018 136.593 54.5109 140.755C46.1705 147.053 70.8383 161.61 67.3111 165.655C63.7839 169.7 27.5573 165.42 25.4025 173.174Z" fill="#1C1C1C"/>
<path d="M29.8298 163.966C34.4446 156.849 70.0644 164.035 72.2957 159.363C74.2487 155.202 55.913 140.972 63.4688 134.325C66.2624 131.986 71.339 130.967 75.4539 130.283C78.678 129.66 84.9492 129.097 87.5304 127.578C95.1676 123.431 81.1536 104.342 84.3359 96.5613C87.7611 88.4065 108.528 110.704 112.753 105.09C115.005 102.027 112.538 90.1583 111.727 84.8438C111.018 79.7013 108.859 67.7665 112.873 66.9103C121.072 65.0968 141.086 95.3666 146.067 93.5941C150.531 92.1254 147.302 69.121 157.537 69.5848C160.994 69.7512 166.238 73.1517 168.927 75.1606C172.875 77.9337 176.991 81.1875 179.314 81.7894C187.752 84.1213 191.134 60.9335 199.004 57.5762C207.391 53.9151 206.101 84.7911 212.959 83.651C216.593 83.1341 222.974 73.7031 226.612 68.6662C232.224 61.0778 237.173 54.922 240.17 56.8651C247.288 61.48 240.102 97.0998 244.774 99.3311C248.935 101.284 263.165 82.9484 269.812 90.5041C272.151 93.2977 273.169 98.3743 273.853 102.489C274.477 105.713 275.04 111.985 276.558 114.566C280.705 122.203 299.795 108.189 307.575 111.371C315.73 114.796 293.433 135.563 299.047 139.789C302.109 142.041 313.978 139.573 319.293 138.763C324.435 138.053 336.37 135.895 337.226 139.908C339.04 148.108 308.77 168.122 310.543 173.102C312.011 177.566 335.016 174.338 334.552 184.572C334.385 188.029 330.985 193.274 328.976 195.962C326.203 199.91 322.949 204.026 322.347 206.349C320.015 214.788 343.203 218.17 346.56 226.04C350.085 234.391 319.346 233.136 320.486 239.994C321.003 243.628 330.434 250.009 335.47 253.648C343.059 259.26 349.215 264.209 347.272 267.206C342.793 274.358 307.037 267.137 304.942 271.845C302.989 276.006 321.325 290.236 313.769 296.883C310.976 299.222 305.899 300.24 301.784 300.924C298.56 301.547 292.289 302.11 289.708 303.629C282.07 307.776 296.084 326.866 292.902 334.646C289.477 342.801 268.71 320.503 264.485 326.117C262.233 329.18 264.7 341.049 265.511 346.364C266.357 351.542 268.379 363.441 264.365 364.297C256.166 366.111 236.152 335.841 231.171 337.613C226.707 339.082 229.936 362.086 219.701 361.623C216.244 361.456 211 358.056 208.311 356.047C204.363 353.274 200.247 350.02 197.924 349.418C189.486 347.086 186.104 370.274 178.234 373.631C169.847 377.292 171.137 346.416 164.279 347.556C160.645 348.073 154.401 357.54 150.626 362.541C145.014 370.13 140.065 376.285 137.068 374.342C129.95 369.727 137.136 334.108 132.429 332.013C128.268 330.06 114.038 348.396 107.391 340.84C105.052 338.046 104.033 332.97 103.349 328.855C102.726 325.631 102.163 319.359 100.644 316.778C96.4973 309.141 77.4075 323.155 69.6272 319.973C61.4724 316.548 83.77 295.781 78.1559 291.555C75.0932 289.304 63.2596 291.634 57.9097 292.582C52.7318 293.428 40.8324 295.45 39.9762 291.436C38.1627 283.236 68.4325 263.222 66.66 258.242C65.1913 253.778 42.1869 257.007 42.6507 246.772C42.8171 243.315 46.2176 238.07 48.2265 235.382C50.9996 231.434 54.2534 227.318 54.8553 224.995C57.1872 216.557 33.9994 213.175 30.6421 205.304C26.981 196.918 57.857 198.208 56.7169 191.35C56.2 187.716 46.7336 181.471 41.7321 177.696C34.1791 171.948 28.0233 166.999 29.8298 163.966ZM40.5729 177.104C45.4731 180.707 55.6887 187.437 56.241 190.935C57.214 197.312 26.338 196.022 30.0954 205.163C33.316 212.998 56.4684 216.516 54.2428 224.544C53.0744 229.054 42.371 239.407 42.0382 246.322C41.6402 256.865 64.8826 253.844 66.1487 257.964C67.7187 262.6 37.4489 282.614 39.465 291.158C40.2553 294.863 47.726 294.173 56.8114 292.88C63.6342 291.877 74.8857 289.542 77.7105 291.586C82.95 295.568 60.2423 316.229 69.3185 320.039C77.3721 323.292 96.2544 309.516 100.097 316.637C102.594 321.075 102.267 335.283 106.844 340.698C113.866 348.497 128.268 330.06 132.019 331.907C136.316 333.895 129.13 369.515 136.521 374.201C140.404 376.665 147.129 367.032 150.039 363.118C153.642 358.218 160.372 348.003 164.006 347.486C170.383 346.513 169.093 377.389 178.234 373.631C186.068 370.411 189.587 347.258 197.615 349.484C202.125 350.652 212.478 361.356 219.392 361.689C229.936 362.086 226.915 338.844 231.035 337.578C235.671 336.008 255.685 366.278 264.228 364.262C267.933 363.471 267.244 356.001 265.951 346.915C264.948 340.092 262.612 328.841 264.657 326.016C268.639 320.777 289.3 343.484 293.11 334.408C296.363 326.355 282.587 307.472 289.708 303.629C294.146 301.133 308.354 301.459 313.769 296.883C321.568 289.861 303.131 275.459 304.978 271.708C306.966 267.41 342.586 274.596 347.272 267.206C349.736 263.323 340.102 256.598 336.189 253.688C331.289 250.085 321.073 243.355 320.556 239.721C319.584 233.343 350.46 234.634 346.702 225.493C343.482 217.658 320.329 214.14 322.555 206.112C323.723 201.601 334.427 191.249 334.759 184.334C335.157 173.791 311.915 176.812 310.649 172.692C309.079 168.056 339.349 148.042 337.333 139.498C336.542 135.793 329.071 136.483 319.986 137.775C313.163 138.779 301.912 141.114 299.087 139.07C293.848 135.087 316.555 114.427 307.479 110.617C299.425 107.364 280.543 121.14 276.7 114.019C274.204 109.581 274.53 95.3725 269.954 89.9575C262.932 82.1588 248.53 100.596 244.779 98.749C240.481 96.7606 247.667 61.1408 240.276 56.4551C236.394 53.9908 229.669 63.6243 226.759 67.5374C223.156 72.4377 216.426 82.6532 212.928 83.2056C206.551 84.1786 207.841 53.3026 198.701 57.06C190.866 60.2806 187.347 83.433 179.319 81.2073C174.809 80.0389 164.456 69.3355 157.542 69.0027C146.998 68.6048 150.019 91.8471 145.9 93.1133C141.263 94.6832 121.249 64.4134 112.706 66.4295C109.001 67.2198 109.691 74.6906 110.983 83.7759C111.986 90.5988 114.322 101.85 112.277 104.675C108.295 109.915 87.6344 87.2069 83.8246 96.283C80.5715 104.337 94.3476 123.219 87.2266 127.062C82.788 129.558 68.5801 129.232 63.165 133.808C55.3664 140.83 73.8033 155.232 71.9565 158.983C69.9681 163.281 34.3483 156.095 29.6626 163.486C27.0263 167.47 36.6597 174.195 40.5729 177.104Z" fill="#1C1C1C"/>
<path d="M36.7173 155.396C43.3468 148.946 73.4347 158.345 74.4862 151.471C75.3105 147.164 65.0737 134.886 70.4881 126.372C77.0921 118.894 91.7972 125.183 95.6487 123.264C101.803 120.338 84.5685 93.413 89.0162 85.8147C93.0136 78.829 113.259 102.012 119.525 98.0936C125.993 94.519 115.556 65.5635 123.603 65.4608C132.406 65.2618 147.575 93.4015 153.122 89.4423C156.67 87.007 158.211 70.926 168.055 68.9553C178.128 68.3562 183.926 83.1299 188.056 84.6375C194.475 86.8837 200.867 56.0169 209.689 53.4895C217.276 51.2256 215.404 82.0967 222.546 83.8011C229.617 85.7789 242.97 57.882 248.503 63.5449C254.953 70.1744 245.554 100.262 252.291 101.278C256.599 102.103 268.876 91.8659 277.391 97.2803C284.868 103.884 278.579 118.589 280.498 122.441C283.425 128.595 310.349 111.361 317.948 115.808C324.933 119.806 301.75 140.051 305.669 146.317C309.243 152.785 338.199 142.348 338.302 150.396C338.501 159.198 310.361 174.367 314.32 179.914C316.755 183.462 332.836 185.003 334.807 194.847C335.406 204.92 320.632 210.718 319.125 214.848C316.843 221.404 347.745 227.659 350.237 236.618C352.501 244.205 321.63 242.333 319.926 249.475C317.948 256.546 345.88 269.762 340.182 275.432C333.553 281.882 303.465 272.483 302.449 279.22C301.624 283.527 311.861 295.805 306.447 304.32C299.843 311.797 285.138 305.508 281.286 307.427C275.132 310.354 292.366 337.278 287.919 344.877C283.921 351.862 263.676 328.679 257.41 332.598C250.942 336.172 261.379 365.128 253.331 365.23C244.529 365.43 229.36 337.29 223.813 341.249C220.265 343.684 218.724 359.765 208.88 361.736C198.807 362.335 193.009 347.561 188.878 346.054C182.323 343.772 176.068 374.674 167.246 377.202C159.659 379.466 161.531 348.595 154.389 346.89C147.317 344.912 134.102 372.845 128.432 367.146C121.982 360.517 131.381 330.429 124.644 329.413C120.336 328.589 108.059 338.825 99.544 333.411C92.0668 326.807 98.3557 312.102 96.4367 308.25C93.5099 302.096 66.5854 319.331 58.9871 314.883C52.0014 310.885 75.1849 290.64 71.266 284.374C67.6914 277.906 38.7359 288.344 38.6332 280.296C38.4342 271.494 66.5739 256.324 62.6147 250.777C60.1794 247.229 44.0984 245.688 42.1277 235.844C41.5286 225.772 56.3023 219.973 57.8099 215.843C60.0561 209.424 29.1893 203.032 26.6619 194.21C24.398 186.623 55.2691 188.495 56.9735 181.353C58.9513 174.282 31.019 161.066 36.7173 155.396ZM56.5635 181.247C54.8944 188.253 23.8917 185.763 26.1811 194.377C28.8451 203.235 59.3678 209.829 57.3645 215.873C56.0644 219.766 41.1186 225.665 41.7835 236.047C43.8555 246.063 60.0378 247.776 62.3718 251.152C65.9918 256.319 38.1962 271.286 38.3244 280.361C38.5234 289.164 67.5497 278.453 71.0585 284.612C74.8761 290.706 51.2472 310.982 58.8809 315.293C66.7525 319.811 93.3329 302.779 96.0925 308.453C97.9103 312.132 91.5506 327.111 99.3011 333.786C108.054 339.407 120.331 329.171 124.502 329.96C130.794 331.006 121.567 360.993 128.153 367.658C134.537 373.978 147.449 345.53 154.384 347.472C161.39 349.141 158.9 380.144 167.514 377.855C176.372 375.191 182.966 344.668 189.01 346.671C193.039 348.007 198.802 362.917 209.184 362.252C219.2 360.18 220.913 343.998 224.289 341.664C229.456 338.044 244.423 365.84 253.498 365.711C262.301 365.512 251.625 336.349 257.749 332.977C263.843 329.16 284.119 352.789 288.43 345.155C292.948 337.283 275.916 310.703 281.59 307.943C285.269 306.125 300.248 312.485 306.923 304.735C312.544 295.982 302.308 283.704 303.096 279.534C304.143 273.242 334.165 282.332 340.795 275.882C347.115 269.499 318.667 256.587 320.609 249.652C322.278 242.646 353.281 245.136 350.992 236.522C348.328 227.664 317.805 221.069 319.808 215.026C321.144 210.996 336.054 205.233 335.389 194.852C333.317 184.836 317.135 183.123 314.801 179.747C311.181 174.58 338.976 159.613 338.848 150.537C338.649 141.735 309.486 152.41 306.114 146.286C302.297 140.193 325.926 119.917 318.292 115.606C310.42 111.087 283.84 128.119 281.08 122.446C279.262 118.766 285.622 103.788 277.872 97.1131C269.119 91.4913 256.841 101.728 252.671 100.939C246.379 99.8926 255.606 69.906 249.019 63.2411C242.636 56.9204 229.724 85.3689 222.789 83.4265C215.576 81.9954 218.101 50.856 209.588 53.3175C200.73 55.9815 194.136 86.5041 188.092 84.5008C184.062 83.1653 178.3 68.2549 167.918 68.9199C157.902 70.9919 156.189 87.1741 152.813 89.5081C147.646 93.1281 132.679 65.3326 123.603 65.4608C114.801 65.6598 125.477 94.8228 119.353 98.1949C113.259 102.012 92.9832 78.3836 88.6721 86.0172C84.1535 93.8889 101.186 120.469 95.512 123.229C91.8326 125.047 76.8541 118.687 70.1793 126.437C64.5575 135.19 74.7943 147.468 74.0054 151.638C72.9588 157.93 42.9722 148.703 36.3073 155.29C30.194 161.436 58.5059 174.312 56.5635 181.247Z" fill="#1C1C1C"/>
<path d="M40.9277 151.528C47.7902 145.868 74.2184 154.756 75.1737 147.128C75.7649 142.031 68.9144 130.193 73.4684 122.185C78.8169 113.362 95.3348 123.912 99.4646 121.482C104.318 118.51 87.0425 88.3662 92.0674 81.3549C95.4629 76.6926 108.605 89.577 117.398 94.4801C120.43 96.2865 122.582 96.9897 124.161 96.5238C131.029 94.2195 121.072 65.0969 129.455 65.9558C138.145 66.7489 150.774 91.7509 156.806 87.0425C160.389 84.4705 164.411 70.6364 173.197 68.2458C183.285 65.9004 187.504 85.078 192.05 86.1098C197.588 87.2527 206.743 53.6015 215.211 52.4408C220.971 51.5996 221.192 69.8871 223.78 79.5998C224.641 83.0314 225.72 85.0609 227.152 85.7237C233.768 88.8961 246.842 61.5105 252.507 67.7909C258.168 74.6534 249.279 101.082 256.907 102.037C261.868 102.593 273.878 95.641 281.85 100.332C290.674 105.68 280.123 122.198 282.554 126.328C285.526 131.181 315.669 113.906 322.681 118.931C327.343 122.326 314.459 135.468 309.555 144.261C307.749 147.293 307.046 149.445 307.512 151.024C309.816 157.892 338.939 147.936 338.08 156.318C337.287 165.009 312.285 177.637 316.993 183.669C319.565 187.253 333.399 191.274 335.79 200.061C338.135 210.148 318.958 214.368 317.926 218.913C316.783 224.451 350.434 233.606 351.595 242.074C352.436 247.834 334.149 248.055 324.436 250.643C321.004 251.504 318.975 252.583 318.312 254.015C315.139 260.631 342.525 273.706 336.245 279.371C329.382 285.031 302.954 276.142 301.999 283.77C301.443 288.731 308.395 300.741 303.704 308.714C298.355 317.537 281.838 306.987 277.708 309.417C272.854 312.389 290.13 342.533 285.105 349.544C281.709 354.206 268.567 341.322 259.774 336.419C256.742 334.612 254.591 333.909 253.012 334.375C246.144 336.679 256.1 365.802 247.718 364.943C239.027 364.15 226.399 339.148 220.366 343.856C216.783 346.428 212.762 360.262 203.975 362.653C193.888 364.998 189.668 345.821 185.122 344.789C179.585 343.646 170.429 377.297 161.962 378.458C156.202 379.299 155.981 361.012 153.392 351.299C152.531 347.867 151.453 345.838 150.02 345.175C143.404 342.003 130.33 369.388 124.665 363.108C119.005 356.245 127.893 329.817 120.265 328.862C115.305 328.306 103.295 335.258 95.322 330.567C86.4986 325.219 97.049 308.701 94.6187 304.571C91.6467 299.717 61.5029 316.993 54.4917 311.968C49.8293 308.573 62.7138 295.43 67.6169 286.638C69.4233 283.605 70.1265 281.454 69.6605 279.875C67.3562 273.007 38.2336 282.963 39.0926 274.581C39.8856 265.89 64.8876 253.262 60.1792 247.229C57.6073 243.646 43.7732 239.625 41.3825 230.838C39.0372 220.751 58.2148 216.531 59.2465 211.986C60.3894 206.448 26.7383 197.293 25.5776 188.825C24.7363 183.065 43.0238 182.844 52.7366 180.256C56.1682 179.395 58.1977 178.316 58.8605 176.883C62.0329 170.267 34.5106 157.158 40.9277 151.528ZM51.7799 180.008C41.4851 182.591 23.9517 182.716 24.9955 188.82C26.2574 197.46 59.772 206.58 58.6999 211.844C57.7035 216.253 38.3892 220.437 40.8004 230.833C43.257 239.929 57.1265 243.813 59.6984 247.396C64.2043 253.085 39.3744 265.612 38.5459 274.439C37.6466 283.54 66.8046 273.447 69.0784 279.87C69.7469 281.793 67.9051 284.962 66.8273 286.871C61.408 295.967 49.146 308.396 54.1476 312.171C61.4321 317.266 91.5404 300.127 94.1733 304.601C96.4669 308.696 85.9519 325.077 95.0132 330.633C103.123 335.359 115.269 328.443 120.093 328.963C127.276 329.949 118.559 356.276 124.22 363.138C130.254 370.244 143.47 342.311 149.676 345.378C151.483 346.283 152.481 349.75 153.079 351.947C155.662 362.242 155.787 379.775 162.027 378.767C170.667 377.505 179.787 343.99 185.052 345.062C189.46 346.059 193.645 365.373 204.041 362.962C213.136 360.505 217.021 346.636 220.604 344.064C226.292 339.558 238.819 364.388 247.647 365.216C256.748 366.116 246.655 336.958 253.078 334.684C255.001 334.015 258.17 335.857 260.078 336.935C269.038 342.319 281.603 354.616 285.378 349.615C290.474 342.33 273.335 312.222 277.809 309.589C281.903 307.295 298.285 317.81 303.841 308.749C308.567 300.639 301.65 288.493 302.171 283.669C303.156 276.487 329.483 285.203 336.346 279.543C343.451 273.508 315.519 260.292 318.585 254.086C319.491 252.279 322.958 251.281 325.155 250.684C335.449 248.1 352.983 247.976 351.939 241.871C350.677 233.232 317.162 224.112 318.235 218.847C319.231 214.439 338.545 210.254 336.134 199.858C333.677 190.763 319.808 186.878 317.236 183.295C312.73 177.606 337.56 165.08 338.389 156.252C339.288 147.151 310.13 157.244 307.856 150.821C307.188 148.898 309.029 145.729 310.107 143.821C315.491 134.861 327.788 122.296 322.787 118.521C315.502 113.425 285.394 130.564 282.761 126.09C280.467 121.996 290.982 105.614 281.921 100.058C273.812 95.3322 261.665 102.249 256.841 101.728C249.659 100.742 258.375 74.4155 252.715 67.553C246.68 60.4476 233.464 88.3799 227.258 85.3137C225.451 84.408 224.453 80.941 223.856 78.7444C221.272 68.4496 221.148 50.9162 215.044 51.96C206.404 53.2219 197.284 86.7365 192.02 85.6644C187.611 84.668 183.426 65.3537 173.03 67.7649C163.935 70.2215 160.05 84.091 156.467 86.6629C150.779 91.1688 138.252 66.3389 129.424 65.5104C120.323 64.6111 130.416 93.7691 123.994 96.0429C122.07 96.7114 118.901 94.8696 116.993 93.7918C107.896 88.3725 95.4678 76.1105 91.6928 81.1121C86.5971 88.3966 103.736 118.505 99.2621 121.138C95.1677 123.431 78.7864 112.916 73.2305 121.978C68.5044 130.087 75.4208 142.234 74.9003 147.058C73.9146 154.24 47.5876 145.524 40.7252 151.184C33.6198 157.219 61.5521 170.435 58.4859 176.641C57.4081 178.549 53.9411 179.547 51.7799 180.008Z" fill="#1C1C1C"/>
<path d="M33.0176 159.542C38.1084 152.839 71.972 161.175 73.697 155.642C75.0021 151.167 60.2856 138.167 67.2338 130.487C73.59 123.967 87.6365 127.168 91.6247 125.284C98.6699 122.297 82.9443 99.1176 86.4708 91.1348C89.7898 83.39 110.278 106.199 115.764 101.349C116.903 100.331 117.368 97.9725 117.261 94.4445C117.072 84.4783 112.361 66.632 118.086 65.9273C126.655 64.9388 144.72 94.8495 149.574 91.8775C153.704 89.4472 152.501 69.8843 162.811 69.4927C172.058 69.2632 179.046 81.1364 183.789 83.0944C190.956 85.8264 196.155 58.4422 204.263 55.2924C212.3 52.4159 210.397 82.8415 217.722 83.2806C219.296 83.3967 221.26 82.0094 223.643 79.5643C230.758 72.3654 239.866 56.3488 244.321 59.9822C251.024 65.073 242.688 98.9366 248.221 100.662C252.696 101.967 265.696 87.2502 273.376 94.1984C279.896 100.555 276.695 114.601 278.579 118.589C281.566 125.634 304.746 109.909 312.728 113.435C320.473 116.754 297.664 137.243 302.514 142.729C303.532 143.867 305.891 144.333 309.419 144.226C319.35 144.173 337.231 139.326 337.936 145.051C338.924 153.62 309.014 171.685 311.986 176.538C314.416 180.668 333.979 179.465 334.371 189.776C334.6 199.023 322.727 206.01 320.769 210.753C318.037 217.921 345.421 223.119 348.571 231.227C351.447 239.265 321.022 237.362 320.583 244.686C320.467 246.26 321.854 248.224 324.299 250.608C331.498 257.723 347.514 266.831 343.881 271.286C338.79 277.988 304.927 269.653 303.202 275.186C301.897 279.66 316.613 292.661 309.665 300.341C303.309 306.861 289.262 303.66 285.274 305.543C278.229 308.531 293.954 331.71 290.428 339.693C287.109 347.438 266.62 324.629 261.134 329.479C259.996 330.496 259.531 332.855 259.638 336.383C259.69 346.314 264.537 364.196 258.813 364.9C250.244 365.889 232.178 335.978 227.325 338.95C223.195 341.381 224.398 360.943 214.088 361.335C204.84 361.565 197.853 349.691 193.11 347.733C185.942 345.001 180.744 372.386 172.636 375.535C164.598 378.412 166.501 347.986 159.177 347.547C157.603 347.431 155.639 348.818 153.256 351.263C146.14 358.462 137.032 374.479 132.577 370.846C125.875 365.755 134.21 331.891 128.678 330.166C124.203 328.861 111.202 343.578 103.523 336.629C97.0021 330.273 100.204 316.227 98.3199 312.238C95.3323 305.193 72.153 320.919 64.1703 317.392C56.4254 314.073 79.2343 293.585 74.3843 288.099C73.3667 286.96 71.0079 286.495 67.48 286.602C57.5491 286.654 39.6674 291.502 38.9628 285.777C37.9742 277.208 67.885 259.143 64.9129 254.289C62.4826 250.159 42.9197 251.363 42.5281 241.052C42.2986 231.805 54.1719 224.818 56.1298 220.074C58.8618 212.907 31.4776 207.708 28.3278 199.6C25.4513 191.563 55.877 193.466 56.316 186.141C56.4321 184.567 55.0449 182.604 52.5997 180.22C45.3654 173.241 29.3488 164.133 33.0176 159.542ZM51.7797 180.008C53.4098 181.597 55.9917 184.016 55.8706 186.172C55.5378 193.086 24.6667 191.214 27.9836 199.803C31.1993 208.22 58.4822 213.246 55.8565 220.004C53.9693 224.473 42.0607 231.597 42.2193 241.118C42.6768 251.737 62.2397 250.534 64.5687 254.492C67.1662 259.102 37.5996 276.965 38.5174 285.808C39.2524 291.978 56.2079 287.328 66.7917 287.007C69.0187 286.855 72.6479 286.92 74.0047 288.438C78.5155 293.545 55.6358 314.306 63.9274 317.767C72.1481 321.501 95.054 305.705 97.8391 312.406C99.7582 316.257 96.3847 330.405 103.143 336.969C111.197 344.16 124.233 329.306 128.435 330.541C133.421 332.124 125.121 365.851 132.198 371.185C137.164 375.096 145.649 359.794 152.906 352.048C154.495 350.418 156.914 347.836 159.071 347.957C165.985 348.29 164.113 379.161 172.702 375.844C181.118 372.628 186.145 345.346 192.902 347.971C197.372 349.858 204.496 361.767 214.017 361.608C224.636 361.151 223.433 341.588 227.391 339.259C232.001 336.662 249.864 366.228 258.706 365.31C264.876 364.575 260.227 347.62 259.906 337.036C259.754 334.809 259.819 331.18 261.337 329.823C266.443 325.312 287.205 348.192 290.666 339.9C294.4 331.68 278.603 308.774 285.304 305.989C289.156 304.07 303.304 307.443 309.867 300.685C317.058 292.63 302.205 279.594 303.44 275.393C305.023 270.407 338.75 278.707 344.084 271.63C347.995 266.664 332.692 258.178 324.947 250.921C323.317 249.332 320.735 246.913 320.856 244.757C321.189 237.843 352.06 239.715 348.743 231.126C345.527 222.709 318.244 217.683 320.87 210.925C322.757 206.456 334.666 199.332 334.507 189.811C334.05 179.192 314.487 180.395 312.158 176.437C309.56 171.827 339.127 153.964 338.209 145.121C337.474 138.951 320.519 143.601 309.935 143.922C307.708 144.074 304.079 144.009 302.722 142.491C298.211 137.384 321.091 116.623 312.799 113.162C304.578 109.428 281.673 125.224 278.887 118.523C276.968 114.672 280.342 100.524 273.583 93.9605C265.529 86.7694 252.493 101.622 248.292 100.388C243.306 98.8049 251.606 65.0779 244.529 59.7443C239.563 55.8326 231.077 71.1353 223.683 78.8455C222.094 80.4756 219.675 83.0575 217.519 82.9364C210.605 82.6036 212.477 51.7326 203.888 55.0495C195.471 58.2651 190.445 85.5481 183.687 82.9223C179.218 81.0352 172.094 69.1265 162.573 69.2852C151.954 69.7427 153.157 89.3055 149.199 91.6346C144.897 94.1662 126.898 64.5642 118.056 65.4819C111.886 66.217 116.535 83.1725 116.856 93.7562C117.008 95.9833 116.943 99.6125 115.425 100.969C110.319 105.48 89.5568 82.6004 86.0962 90.8919C82.3623 99.1126 98.1586 122.019 91.4576 124.804C87.6061 126.723 73.4583 123.349 66.8946 130.108C59.7035 138.162 74.5567 151.198 73.3224 155.399C71.739 160.385 38.0121 152.085 32.6784 159.162C28.868 164.301 44.0341 172.751 51.7797 180.008Z" fill="#1C1C1C"/>
<path d="M131.44 299.234L129.458 306.888L129.696 307.095L136.174 302.357L131.44 299.234ZM133.651 292.953L133.034 293.084L131.86 298.176L137.105 301.577L141.412 298.463L141.28 297.846L133.651 292.953ZM144.241 299.925L142.743 298.954L129.478 308.497L129.61 309.115L132.607 311.058L132.086 311.944L126.841 308.544L130.892 291.217L129.293 290.073L129.814 289.187L144.763 299.04L144.241 299.925Z" fill="#1C1C1C"/>
<path d="M108.136 265.341C106.009 261.727 102.35 261.217 98.0478 263.748C93.7459 266.28 92.552 269.763 94.6785 273.376L96.2987 276.129L96.9821 276.307L109.579 268.778L109.756 268.094L108.136 265.341ZM112.526 272.604L111.513 270.883L110.83 270.706L98.2327 278.235L98.0556 278.918L99.0683 280.639L98.2079 281.145L93.8181 273.883C90.7448 268.857 91.8474 264.038 96.5288 261.167C101.21 258.297 105.958 259.672 109.032 264.698L113.421 271.961L112.526 272.604Z" fill="#1C1C1C"/>
<path d="M92.8626 225.215L79.1956 221.675L78.7807 222.151L79.6984 230.993L80.1743 231.408L92.8272 225.352L92.8626 225.215ZM79.9774 234.42L80.2005 236.374L79.3097 236.434L77.6108 218.785L78.5017 218.724L78.6943 220.232L95.9146 224.694L96.0364 226.475L79.9774 234.42Z" fill="#1C1C1C"/>
<path d="M97.2102 193.236L97.7009 191.904L97.4325 191.251L83.33 186.577L82.6771 186.845L82.3231 188.212L81.3664 187.964L85.4792 175.466L91.0168 176.609L90.9764 177.328L85.7681 177.729L83.8002 183.636L84.0686 184.289L90.3859 186.363L91.5798 182.881L88.5829 180.937L88.76 180.254L96.4085 182.819L96.0948 183.467L92.501 183.265L91.3071 186.748L98.1711 188.963L98.6873 188.66L101.004 181.968L97.0607 178.613L97.5111 178L102.558 180.474L98.1314 193.62L97.2102 193.236Z" fill="#1C1C1C"/>
<path d="M114.287 158.282L115.668 156.89L115.572 156.136L104.941 145.944L104.222 145.903L102.977 147.331L102.263 146.708L105.649 143.21L122.444 145.373L122.651 145.136L113.888 136.74L113.169 136.7L110.371 139.621L109.657 138.998L115.426 133.055L116.14 133.677L114.758 135.069L114.718 135.788L126.367 147.119L125.193 148.273L107.132 145.928L106.925 146.166L116.366 155.321L117.121 155.224L120.056 152.339L120.633 152.926L115 158.904L114.287 158.282Z" fill="#1C1C1C"/>
<path d="M150.477 130.614L154.804 129.11L154.981 128.426L149.998 114.447L149.451 114.306L144.643 115.977L144.811 120.396L144.021 120.629L142.522 115.719L159.113 109.662L161.093 114.405L160.405 114.81L157.661 111.328L152.853 112.999L152.539 113.647L157.557 127.49L158.205 127.803L162.533 126.299L162.902 127.124L150.811 131.576L150.477 130.614Z" fill="#1C1C1C"/>
<path d="M190.471 114.723C191.138 108.771 194.554 105.718 200.233 106.314C202.217 106.536 202.83 106.987 205.361 107.351L205.806 107.32L206.329 114.31L205.438 114.371C204.723 109.811 203.169 107.366 200.193 107.033C196.361 106.624 193.871 109.479 193.209 114.849C192.684 120.255 194.542 123.216 198.682 123.559C201.932 123.964 204.31 122.1 205.509 118.036L206.294 118.385C204.852 122.824 201.922 125.128 198.227 124.754C192.649 124.33 189.976 120.574 190.471 114.723Z" fill="#1C1C1C"/>
<path d="M241.586 131.903L243.296 124.179L243.022 124.108L236.782 129.054L241.586 131.903ZM239.684 138.119L240.302 137.987L241.338 132.86L235.922 129.561L231.716 132.846L231.848 133.464L239.684 138.119ZM228.952 131.693L230.451 132.664L243.412 122.605L243.28 121.987L240.111 120.145L240.632 119.259L246.049 122.559L242.681 140.062L244.453 141.105L243.932 141.99L228.431 132.579L228.952 131.693Z" fill="#1C1C1C"/>
<path d="M261.569 157.789L262.414 159.029L263.098 159.206L275.188 150.817L275.365 150.134L274.52 148.894L275.38 148.388L278.864 153.519L278.14 154.061L277.259 152.958L276.576 152.781L264.657 161.069L264.48 161.752L268.439 167.299L273.136 166.62L273.369 167.409L268.657 169.835L260.81 158.468L261.569 157.789Z" fill="#1C1C1C"/>
<path d="M279.048 192.215L279.276 193.587L279.888 194.037L294.329 191.215L294.779 190.603L294.551 189.231L295.477 189.033L297.833 201.895L292.544 203.733L292.311 202.943L296.512 200.24L295.367 193.964L294.856 193.685L288.271 194.896L288.96 198.429L292.518 198.767L292.786 199.42L284.83 200.859L284.698 200.242L288.033 198.627L287.344 195.094L280.314 196.335L279.864 196.948L281.277 203.877L286.268 204.878L286.228 205.597L280.609 205.891L277.985 192.377L279.048 192.215Z" fill="#1C1C1C"/>
<path d="M281.525 231.068L280.893 232.946L281.333 233.497L295.476 237.453L296.129 237.184L296.624 235.271L297.581 235.519L296.241 240.13L280.333 246.364L280.298 246.501L292.117 249.854L292.669 249.414L293.832 245.486L294.789 245.734L292.563 253.762L291.607 253.514L292.102 251.601L291.834 250.948L276.152 246.739L276.577 245.099L293.618 238.43L293.689 238.157L281.014 234.727L280.362 234.996L279.335 238.959L278.378 238.711L280.568 230.82L281.525 231.068Z" fill="#1C1C1C"/>
<path d="M259.212 277.79C256.479 281.02 257.032 284.518 260.839 287.837C264.646 291.157 268.275 291.222 271.109 288.164L273.183 285.785L273.087 285.031L262.041 275.315L261.287 275.411L259.212 277.79ZM264.814 271.366L263.569 272.794L263.665 273.548L274.712 283.264L275.466 283.168L276.711 281.74L277.424 282.363L271.822 288.787C267.916 293.171 263.117 293.678 258.936 290.115C254.754 286.553 254.591 281.552 258.498 277.168L264.1 270.744L264.814 271.366Z" fill="#1C1C1C"/>
<path d="M222.555 303.879L222.242 304.527L225.907 308.394L231.646 305.943L231.418 300.633L230.77 300.32L222.555 303.879ZM226.585 309.153L231.911 315.054L232.083 314.952L231.672 306.97L226.585 309.153ZM234.07 298.841L232.42 299.58L233.136 315.954L233.784 316.268L237.084 314.79L237.454 315.615L231.679 318.202L219.392 305.393L217.57 306.234L217.2 305.409L233.665 298.153L234.07 298.841Z" fill="#1C1C1C"/>
<path d="M181.411 310.138L187.132 317.891L188.878 317.906L189.109 310.82L188.669 310.268L181.411 310.138ZM185.892 318.737C183.29 318.646 181.807 319.866 181.787 322.195C181.768 324.523 183.16 325.905 185.625 325.96L188.09 326.015L188.641 325.575L188.802 318.762L185.892 318.737ZM193.837 310.586L191.954 310.536L191.402 310.976L190.934 325.731L191.375 326.283L193.258 326.333L193.283 327.36L185.478 327.089C181.439 326.917 178.852 325.08 178.978 322.342C178.998 320.014 181.068 318.216 184.186 318.003L178.055 310.144L176.172 310.093L176.146 309.066L193.811 309.559L193.837 310.586Z" fill="#1C1C1C"/>
<path d="M172.239 281.364L170.599 280.94L187.417 216.022L122.635 199.239L123.06 197.599L187.842 214.381L204.624 149.6L206.264 150.025L189.482 214.806L254.4 231.624L253.975 233.264L189.057 216.446L172.239 281.364Z" fill="#1C1C1C"/>
</g>
</g>
<defs>
<clipPath id="clip0">
<rect width="377" height="444" fill="white"/>
</clipPath>
<clipPath id="clip1">
<rect width="337" height="337" fill="white" transform="translate(67.6421 10.1274) rotate(14.524)"/>
</clipPath>
</defs>
</svg>
