<svg width="627" height="90" viewBox="0 0 627 90" fill="none" xmlns="http://www.w3.org/2000/svg">
<path d="M625.888 46.7999L625.888 45.0757L6.10352e-05 45.0757L6.09598e-05 46.7999L625.888 46.7999Z" fill="#FFFEFD"/>
<path d="M625.889 89.4127L625.889 87.6885L0.000549316 87.6884L0.000549241 89.4127L625.889 89.4127Z" fill="#FFFEFD"/>
<path d="M0.000388036 89L0.000391926 -2.73907e-05L626.627 0L626.627 89L0.000388036 89ZM1.72459 0.889973L1.72459 88.11L624.903 88.11L624.903 0.89L1.72459 0.889973Z" fill="#FFFEFD"/>
<path d="M290.899 87.9999L290.899 0.492554L289.175 0.492554L289.175 87.9999L290.899 87.9999Z" fill="#FFFEFD"/>
<path d="M1.9707 87.9999L1.9707 0.492554L0.246582 0.492554L0.246575 87.9999L1.9707 87.9999Z" fill="#FFFEFD"/>
<path d="M483.518 87.9999L483.518 0.492554L481.793 0.492554L481.793 87.9999L483.518 87.9999Z" fill="#FFFEFD"/>
<path d="M194.836 87.9999L194.836 0.492554L193.112 0.492554L193.112 87.9999L194.836 87.9999Z" fill="#FFFEFD"/>
<path d="M386.962 87.9999L386.962 0.492554L385.238 0.492554L385.238 87.9999L386.962 87.9999Z" fill="#FFFEFD"/>
<path d="M98.0337 87.9999L98.0337 0.492554L96.3094 0.492554L96.3094 87.9999L98.0337 87.9999Z" fill="#FFFEFD"/>
<path d="M579.582 88.0001L579.582 0.492676L577.857 0.492676L577.857 88.0001L579.582 88.0001Z" fill="#FFFEFD"/>
<path d="M338.93 87.9999L338.93 0.492554L337.206 0.492554L337.206 87.9999L338.93 87.9999Z" fill="#FFFEFD"/>
<path d="M50.2485 87.9999L50.2485 0.492554L48.5244 0.492554L48.5243 87.9999L50.2485 87.9999Z" fill="#FFFEFD"/>
<path d="M531.795 87.9999L531.795 0.492554L530.071 0.492554L530.071 87.9999L531.795 87.9999Z" fill="#FFFEFD"/>
<path d="M242.867 87.9999L242.867 0.492554L241.143 0.492554L241.143 87.9999L242.867 87.9999Z" fill="#FFFEFD"/>
<path d="M435.24 87.9999L435.24 0.492554L433.516 0.492554L433.516 87.9999L435.24 87.9999Z" fill="#FFFEFD"/>
<path d="M146.312 87.9999L146.312 0.492554L144.587 0.492554L144.587 87.9999L146.312 87.9999Z" fill="#FFFEFD"/>
<path d="M66.24 36H71.244V29.52H73.836C78.732 29.52 82.908 27.504 82.908 22.32C82.908 17.136 78.732 15.156 73.836 15.156H66.24V36ZM71.244 19.26H73.836C76.464 19.26 77.796 20.232 77.796 22.32C77.796 24.444 76.464 25.38 73.836 25.38H71.244V19.26ZM114.226 36H119.23V29.124H121.462L125.746 36H131.758L126.214 28.116C128.338 27.18 130.21 25.38 130.21 22.068C130.21 17.1 125.998 15.156 121.03 15.156H114.226V36ZM119.23 19.26H121.03C123.658 19.26 125.062 20.088 125.062 22.212C125.062 24.3 123.658 25.164 121.03 25.164H119.23V19.26ZM162.212 36H177.728V31.824H167.216V27.468H176.072V23.292H167.216V19.332H177.728V15.156H162.212V36ZM217.65 36.36C224.13 36.36 226.902 31.968 226.902 25.416C226.902 18.864 224.13 14.76 217.83 14.76C211.422 14.76 208.614 19.008 208.614 25.668C208.614 32.364 211.458 36.36 217.65 36.36ZM217.758 32.076C214.338 32.076 213.762 29.304 213.762 25.56C213.762 21.78 214.338 19.044 217.758 19.044C221.178 19.044 221.754 21.78 221.754 25.56C221.754 29.304 221.178 32.076 217.758 32.076ZM258.184 36H263.188V29.124H265.42L269.704 36H275.716L270.172 28.116C272.296 27.18 274.168 25.38 274.168 22.068C274.168 17.1 269.956 15.156 264.988 15.156H258.184V36ZM263.188 19.26H264.988C267.616 19.26 269.02 20.088 269.02 22.212C269.02 24.3 267.616 25.164 264.988 25.164H263.188V19.26ZM306.17 36H313.046C320.03 36 322.874 32.04 322.874 25.38C322.874 18.648 319.958 15.156 313.046 15.156H306.17V36ZM311.174 19.332H313.046C316.826 19.332 317.726 21.384 317.726 25.56C317.726 29.7 316.826 31.824 313.046 31.824H311.174V19.332ZM354.156 36H369.672V31.824H359.16V27.468H368.016V23.292H359.16V19.332H369.672V15.156H354.156V36ZM402.142 36H407.146V29.124H409.378L413.662 36H419.674L414.13 28.116C416.254 27.18 418.126 25.38 418.126 22.068C418.126 17.1 413.914 15.156 408.946 15.156H402.142V36ZM407.146 19.26H408.946C411.574 19.26 412.978 20.088 412.978 22.212C412.978 24.3 411.574 25.164 408.946 25.164H407.146V19.26ZM66.24 78H70.632V69.036L69.948 62.34L75.24 78H81.36V57.156H76.968V66.12L77.652 72.816L72.36 57.156H66.24V78ZM121.678 78.36C128.158 78.36 130.93 73.968 130.93 67.416C130.93 60.864 128.158 56.76 121.858 56.76C115.45 56.76 112.642 61.008 112.642 67.668C112.642 74.364 115.486 78.36 121.678 78.36ZM121.786 74.076C118.366 74.076 117.79 71.304 117.79 67.56C117.79 63.78 118.366 61.044 121.786 61.044C125.206 61.044 125.782 63.78 125.782 67.56C125.782 71.304 125.206 74.076 121.786 74.076ZM162.032 78H167.648L169.772 69.792L171.896 78H177.512L179.816 57.156H175.1L174.38 66.84L174.056 73.284L171.752 63.636H167.936L165.596 73.32L165.308 66.84L164.588 57.156H159.728L162.032 78ZM265.204 78.36C270.712 78.36 273.232 75.156 273.232 70.188V69.18H275.464V65.4H262V60.972H269.812V57.156H257.176V70.188C257.176 75.156 259.696 78.36 265.204 78.36ZM265.204 74.508C263.044 74.508 262 73.14 262 70.332V69.18H268.408V70.332C268.408 73.14 267.364 74.508 265.204 74.508ZM361.536 78.36C366.432 78.36 370.284 76.344 370.284 71.916C370.284 68.604 368.124 67.164 365.244 66.192L360.6 64.608C359.412 64.212 358.62 63.672 358.62 62.7C358.62 61.512 359.736 60.792 361.752 60.792C364.164 60.792 364.956 61.8 365.136 63.528H369.888C369.78 59.1 366.684 56.76 361.824 56.76C357.18 56.76 353.616 58.884 353.616 63.024C353.616 66.228 355.74 67.884 358.224 68.712L362.688 70.188C364.308 70.728 365.28 71.16 365.28 72.312C365.28 73.572 364.128 74.364 361.752 74.364C359.196 74.364 358.044 73.464 357.864 71.484H353.148C353.148 75.876 356.1 78.36 361.536 78.36ZM399.802 78H405.022L406.354 73.752H412.942L414.31 78H419.602L412.294 57.156H407.074L399.802 78ZM407.866 68.892L409.594 62.484L411.394 68.892L411.682 69.864H407.542L407.866 68.892ZM455.276 78H460.1L467.804 57.156H462.44L459.344 66.84L457.832 72.348L456.32 66.804L453.188 57.156H447.572L455.276 78ZM498.113 78H513.629V73.824H503.117V69.468H511.973V65.292H503.117V61.332H513.629V57.156H498.113V78Z" fill="#FFFEFD"/>
</svg>
