<svg width="490" height="129" viewBox="0 0 490 129" fill="none" xmlns="http://www.w3.org/2000/svg">
<path d="M466.449 34.878L466.449 33.593L0.000183105 33.593L0.000183049 34.878L466.449 34.878Z" fill="#FFFEFD"/>
<path d="M466.45 66.6356L466.45 65.3506L0.00115967 65.3506L0.00115961 66.6355L466.45 66.6356Z" fill="#FFFEFD"/>
<path d="M466.449 97.6588L466.449 96.3738L0.000183105 96.3738L0.000183049 97.6587L466.449 97.6588Z" fill="#FFFEFD"/>
<path d="M0.00122839 128.498L0.00123401 -2.04132e-05L467.001 0L467.001 128.498L0.00122839 128.498ZM1.28621 1.28496L1.28621 127.213L465.716 127.213L465.716 1.28498L1.28621 1.28496Z" fill="#FFFEFD"/>
<path d="M216.796 128L216.796 0.367188L215.511 0.367187L215.511 128L216.796 128Z" fill="#FFFEFD"/>
<path d="M1.46972 127.03L1.46973 0.367188L0.184809 0.367187L0.184803 127.03L1.46972 127.03Z" fill="#FFFEFD"/>
<path d="M360.348 128L360.348 0.367188L359.063 0.367187L359.063 128L360.348 128Z" fill="#FFFEFD"/>
<path d="M145.205 128L145.205 0.367188L143.92 0.367187L143.92 128L145.205 128Z" fill="#FFFEFD"/>
<path d="M288.389 128L288.389 0.367188L287.104 0.367187L287.104 128L288.389 128Z" fill="#FFFEFD"/>
<path d="M73.0615 128L73.0615 0.367188L71.7765 0.367187L71.7765 128L73.0615 128Z" fill="#FFFEFD"/>
<path d="M431.939 128L431.939 0.367188L430.654 0.367187L430.654 128L431.939 128Z" fill="#FFFEFD"/>
<path d="M467.001 128L467.001 0.367188L466.001 0.367187L466.001 128L467.001 128Z" fill="#FFFEFD"/>
<path d="M252.592 128L252.592 0.367188L251.307 0.367187L251.307 128L252.592 128Z" fill="#FFFEFD"/>
<path d="M37.4492 128L37.4492 0.367188L36.1643 0.367187L36.1643 128L37.4492 128Z" fill="#FFFEFD"/>
<path d="M1.28613 128L1.28613 0.367188L0.0011698 0.367187L0.00116426 128L1.28613 128Z" fill="#FFFEFD"/>
<path d="M396.327 128L396.327 0.367188L395.042 0.367187L395.042 128L396.327 128Z" fill="#FFFEFD"/>
<path d="M181.001 128L181.001 0.367188L179.716 0.367187L179.716 128L181.001 128Z" fill="#FFFEFD"/>
<path d="M324.368 128L324.368 0.366943L323.083 0.366943L323.083 128L324.368 128Z" fill="#FFFEFD"/>
<path d="M109.041 128L109.041 0.367188L107.756 0.367187L107.756 128L109.041 128Z" fill="#FFFEFD"/>
<path d="M158.71 24H161.351V20.58H162.719C165.303 20.58 167.507 19.516 167.507 16.78C167.507 14.044 165.303 12.999 162.719 12.999H158.71V24ZM161.351 15.165H162.719C164.106 15.165 164.809 15.678 164.809 16.78C164.809 17.901 164.106 18.395 162.719 18.395H161.351V15.165ZM194.503 24H197.144V20.371H198.322L200.583 24H203.756L200.83 19.839C201.951 19.345 202.939 18.395 202.939 16.647C202.939 14.025 200.716 12.999 198.094 12.999H194.503V24ZM197.144 15.165H198.094C199.481 15.165 200.222 15.602 200.222 16.723C200.222 17.825 199.481 18.281 198.094 18.281H197.144V15.165ZM230.295 24H238.484V21.796H232.936V19.497H237.61V17.293H232.936V15.203H238.484V12.999H230.295V24ZM270.021 24.19C273.441 24.19 274.904 21.872 274.904 18.414C274.904 14.956 273.441 12.79 270.116 12.79C266.734 12.79 265.252 15.032 265.252 18.547C265.252 22.081 266.753 24.19 270.021 24.19ZM270.078 21.929C268.273 21.929 267.969 20.466 267.969 18.49C267.969 16.495 268.273 15.051 270.078 15.051C271.883 15.051 272.187 16.495 272.187 18.49C272.187 20.466 271.883 21.929 270.078 21.929ZM301.88 24H304.521V20.371H305.699L307.96 24H311.133L308.207 19.839C309.328 19.345 310.316 18.395 310.316 16.647C310.316 14.025 308.093 12.999 305.471 12.999H301.88V24ZM304.521 15.165H305.471C306.858 15.165 307.599 15.602 307.599 16.723C307.599 17.825 306.858 18.281 305.471 18.281H304.521V15.165ZM337.673 24H341.302C344.988 24 346.489 21.91 346.489 18.395C346.489 14.842 344.95 12.999 341.302 12.999H337.673V24ZM340.314 15.203H341.302C343.297 15.203 343.772 16.286 343.772 18.49C343.772 20.675 343.297 21.796 341.302 21.796H340.314V15.203ZM373.465 24H381.654V21.796H376.106V19.497H380.78V17.293H376.106V15.203H381.654V12.999H373.465V24ZM409.258 24H411.899V20.371H413.077L415.338 24H418.511L415.585 19.839C416.706 19.345 417.694 18.395 417.694 16.647C417.694 14.025 415.471 12.999 412.849 12.999H409.258V24ZM411.899 15.165H412.849C414.236 15.165 414.977 15.602 414.977 16.723C414.977 17.825 414.236 18.281 412.849 18.281H411.899V15.165ZM158.71 56H161.028V51.269L160.667 47.735L163.46 56H166.69V44.999H164.372V49.73L164.733 53.264L161.94 44.999H158.71V56ZM198.436 56.19C201.856 56.19 203.319 53.872 203.319 50.414C203.319 46.956 201.856 44.79 198.531 44.79C195.149 44.79 193.667 47.032 193.667 50.547C193.667 54.081 195.168 56.19 198.436 56.19ZM198.493 53.929C196.688 53.929 196.384 52.466 196.384 50.49C196.384 48.495 196.688 47.051 198.493 47.051C200.298 47.051 200.602 48.495 200.602 50.49C200.602 52.466 200.298 53.929 198.493 53.929ZM230.2 56H233.164L234.285 51.668L235.406 56H238.37L239.586 44.999H237.097L236.717 50.11L236.546 53.511L235.33 48.419H233.316L232.081 53.53L231.929 50.11L231.549 44.999H228.984L230.2 56ZM305.585 56.19C308.492 56.19 309.822 54.499 309.822 51.877V51.345H311V49.35H303.894V47.013H308.017V44.999H301.348V51.877C301.348 54.499 302.678 56.19 305.585 56.19ZM305.585 54.157C304.445 54.157 303.894 53.435 303.894 51.953V51.345H307.276V51.953C307.276 53.435 306.725 54.157 305.585 54.157ZM162.605 88.19C165.189 88.19 167.222 87.126 167.222 84.789C167.222 83.041 166.082 82.281 164.562 81.768L162.111 80.932C161.484 80.723 161.066 80.438 161.066 79.925C161.066 79.298 161.655 78.918 162.719 78.918C163.992 78.918 164.41 79.45 164.505 80.362H167.013C166.956 78.025 165.322 76.79 162.757 76.79C160.306 76.79 158.425 77.911 158.425 80.096C158.425 81.787 159.546 82.661 160.857 83.098L163.213 83.877C164.068 84.162 164.581 84.39 164.581 84.998C164.581 85.663 163.973 86.081 162.719 86.081C161.37 86.081 160.762 85.606 160.667 84.561H158.178C158.178 86.879 159.736 88.19 162.605 88.19ZM193.268 88H196.023L196.726 85.758H200.203L200.925 88H203.718L199.861 76.999H197.106L193.268 88ZM197.524 83.193L198.436 79.811L199.386 83.193L199.538 83.706H197.353L197.524 83.193ZM233.012 88H235.558L239.624 76.999H236.793L235.159 82.11L234.361 85.017L233.563 82.091L231.91 76.999H228.946L233.012 88ZM266.088 88H274.277V85.796H268.729V83.497H273.403V81.293H268.729V79.203H274.277V76.999H266.088V88Z" fill="#FFFEFD"/>
</svg>
