<svg width="180" height="182" viewBox="0 0 180 182" fill="none" xmlns="http://www.w3.org/2000/svg">
<g id="Not Rated">
<path id="Path 7" fill-rule="evenodd" clip-rule="evenodd" d="M70.5013 0.494141L179.506 109.499V180.501L0.501266 0.494141L70.5013 0.494141Z" fill="#E34B4B"/>
<path id="Save 10%" d="M70.252 45.9055C72.2375 47.891 74.6813 48.6717 76.7857 46.5673C78.0415 45.3115 77.719 43.5635 77.0063 42.104L75.5468 39.1512C75.0207 38.082 75.0886 37.2674 75.6995 36.6226C76.4293 35.8589 77.6342 35.9777 78.8391 37.1826C80.027 38.3705 80.3325 39.3888 79.1276 40.7294L80.621 42.2228C82.8781 39.8979 81.8598 37.6238 80.0779 35.8419C78.296 34.06 75.8353 33.5339 74.1043 35.2649C72.7127 36.6565 72.9673 38.3705 73.68 39.83L75.1395 42.7829C75.6147 43.7672 75.7674 44.5987 75.1565 45.2097C74.0873 46.2788 72.7806 45.8545 71.6266 44.7005C70.0823 43.1562 70.0653 42.0192 71.0835 40.8313L69.5901 39.3378C67.4179 41.5101 68.3852 44.0387 70.252 45.9055ZM76.4057 51.7197L78.0009 53.315L80.9708 51.8046L84.6364 55.4702L83.143 58.457L84.7891 60.1032L91.0004 47.1377L89.3712 45.5085L76.4057 51.7197ZM84.314 50.1245L88.5736 47.8674L86.3165 52.127L85.451 53.841L82.5999 50.99L84.314 50.1245ZM89.9585 65.2726L91.5877 66.9017L104.553 60.6905L102.958 59.0953L96.051 62.6082L92.3853 64.5428L94.3539 60.8433L97.8159 53.9532L96.1697 52.3071L89.9585 65.2726ZM97.8771 73.1912L104.207 79.5212L105.48 78.2484L100.643 73.4118L103.63 70.425L107.822 74.6167L109.095 73.3439L104.903 69.1522L107.686 66.369L112.523 71.2056L113.796 69.9329L107.466 63.6028L97.8771 73.1912ZM120.537 95.8506L121.657 96.9707L122.318 96.3088C124.219 97.9719 126.222 98.6168 127.936 96.9028C129.412 95.4263 128.496 93.4917 127.342 91.7946L127.138 91.4892L129.276 89.3509C129.819 90.1315 130.091 91.0479 129.48 91.9304L130.889 93.339C132.416 91.574 131.924 89.7242 130.566 88.0611L131.245 87.3823L130.125 86.2622L129.463 86.9241C127.664 85.2949 125.662 84.6161 124.168 86.1095C122.641 87.6369 123.608 89.5545 124.728 91.2855L124.864 91.5231L122.488 93.899C121.555 92.728 121.351 91.574 122.064 90.7255L120.655 89.3169C118.924 91.1158 119.552 93.305 121.198 95.1888L120.537 95.8506ZM126.222 95.5621C125.475 96.3088 124.576 95.9185 123.591 95.036L125.763 92.8638C126.459 93.9669 126.884 94.9003 126.222 95.5621ZM125.797 87.535C126.34 86.992 127.138 87.2465 128.19 88.1969L126.239 90.1485C125.509 88.9775 125.186 88.146 125.797 87.535ZM131.544 107.197C133.784 109.437 136.703 109.234 138.587 107.35C140.504 105.432 140.759 102.666 138.519 100.426C137.721 99.6284 136.822 99.2381 136.16 99.0175L138.587 97.2695L143.033 101.716L144.306 100.443L138.604 94.7409L133.292 98.729L134.7 100.138C134.7 100.138 135.99 100.443 136.89 101.342C138.502 102.955 138.23 104.686 137.042 105.874C136.092 106.824 134.378 107.452 132.766 105.84C131.323 104.397 131.612 102.853 132.952 101.512L131.51 100.07C129.304 102.276 129.151 104.804 131.544 107.197ZM141.482 117.135C144.061 119.715 147.218 119.036 150.273 115.981C153.412 112.842 154.091 109.855 151.427 107.191C148.847 104.611 145.691 105.29 142.636 108.345C139.496 111.484 138.818 114.471 141.482 117.135ZM142.772 115.846C140.633 113.707 142.67 111.399 144.18 109.889C145.691 108.379 147.999 106.342 150.137 108.48C152.275 110.619 150.239 112.927 148.728 114.437C147.218 115.947 144.91 117.984 142.772 115.846Z" fill="#F9F7F4"/>
</g>
</svg>
